<?xml version="1.0" encoding="utf-8"?>
<!-- Generator: Adobe Illustrator 16.0.4, SVG Export Plug-In . SVG Version: 6.00 Build 0)  -->
<!DOCTYPE svg PUBLIC "-//W3C//DTD SVG 1.1//EN" "http://www.w3.org/Graphics/SVG/1.1/DTD/svg11.dtd">
<svg version="1.1" id="Layer_1" xmlns="http://www.w3.org/2000/svg" xmlns:xlink="http://www.w3.org/1999/xlink" x="0px" y="0px"
	 width="228px" height="288px" viewBox="0 0 228 288" enable-background="new 0 0 228 288" xml:space="preserve">
<rect fill="#999999" width="228" height="288"/>
<rect x="12" y="24" fill="#FFFFFF" width="216" height="16"/>
<g>
	<path fill="#FFFFFF" d="M220,14c0,1.1-0.9,2-2,2H42c-1.1,0-2-0.9-2-2v-4c0-1.1,0.9-2,2-2h176c1.1,0,2,0.9,2,2V14z"/>
</g>
<g>
	<circle fill="#333333" cx="28" cy="12" r="4"/>
	<polygon fill="#333333" points="16,8 16,16 20,12 	"/>
	<polyline fill="#333333" points="8,12 12,16 12,8 	"/>
</g>
<rect y="40" fill="#CCCCCC" width="228" height="240"/>
<rect x="12" y="48" fill="#FFFFFF" width="156" height="224"/>
<rect y="24" fill="#4285F4" width="12" height="16"/>
<g id="Layer_1_4_">
	<rect x="3.15" y="30.8" fill="#FFFFFF" width="5.699" height="0.6"/>
</g>
<polyline fill="#FFFFFF" points="3.15,32 8.85,32 8.85,32.6 3.15,32.6 "/>
<polyline fill="#FFFFFF" points="3.15,29.6 8.85,29.6 8.85,30.201 3.15,30.201 "/>
<polyline fill="#FFFFFF" points="3.15,33.201 6.15,33.201 6.15,33.8 3.15,33.8 "/>
<g>
	<g>
		<path d="M53.698,31.53c0,0.926-0.243,1.626-0.728,2.1c-0.486,0.474-1.2,0.711-2.141,0.711h-1.319v-5.517H51
			c0.88,0,1.551,0.23,2.009,0.69C53.469,29.976,53.698,30.647,53.698,31.53z M53.279,31.545c0-0.79-0.201-1.384-0.603-1.782
			c-0.4-0.399-0.989-0.598-1.767-0.598h-1.016v4.837h0.913C52.455,34.002,53.279,33.183,53.279,31.545z"/>
		<path d="M58.186,32.285c0,0.669-0.161,1.192-0.486,1.568c-0.324,0.376-0.772,0.564-1.344,0.564c-0.359,0-0.677-0.087-0.951-0.26
			c-0.274-0.174-0.484-0.423-0.63-0.747c-0.146-0.325-0.219-0.699-0.219-1.125c0-0.669,0.163-1.19,0.487-1.564
			c0.325-0.374,0.77-0.56,1.336-0.56c0.563,0,1.005,0.189,1.326,0.567C58.026,31.107,58.186,31.626,58.186,32.285z M54.948,32.285
			c0,0.563,0.125,1.003,0.371,1.318c0.248,0.316,0.599,0.474,1.052,0.474s0.803-0.157,1.051-0.474
			c0.248-0.315,0.371-0.755,0.371-1.318c0-0.566-0.125-1.005-0.375-1.317c-0.25-0.312-0.602-0.468-1.055-0.468
			c-0.452,0-0.801,0.155-1.047,0.466C55.071,31.277,54.948,31.717,54.948,32.285z"/>
		<path d="M60.882,34.417c-0.587,0-1.045-0.185-1.377-0.555c-0.331-0.37-0.498-0.885-0.498-1.547c0-0.679,0.172-1.208,0.518-1.587
			c0.344-0.378,0.815-0.567,1.415-0.567c0.354,0,0.694,0.062,1.018,0.185l-0.102,0.332C61.5,30.56,61.192,30.5,60.931,30.5
			c-0.504,0-0.884,0.155-1.143,0.466c-0.259,0.311-0.389,0.758-0.389,1.341c0,0.554,0.13,0.987,0.389,1.3
			c0.259,0.313,0.622,0.47,1.087,0.47c0.371,0,0.717-0.066,1.036-0.2v0.347C61.651,34.353,61.308,34.417,60.882,34.417z"/>
		<path d="M65.382,33.274c0,0.367-0.141,0.65-0.42,0.847c-0.278,0.198-0.676,0.296-1.188,0.296c-0.549,0-0.984-0.084-1.306-0.253
			V33.76c0.411,0.207,0.848,0.31,1.306,0.31c0.404,0,0.712-0.067,0.922-0.202c0.21-0.135,0.315-0.314,0.315-0.538
			c0-0.206-0.085-0.379-0.251-0.52c-0.167-0.141-0.443-0.28-0.825-0.416c-0.409-0.148-0.697-0.276-0.862-0.383
			c-0.167-0.107-0.292-0.228-0.377-0.362c-0.083-0.135-0.127-0.299-0.127-0.492c0-0.307,0.13-0.55,0.388-0.729
			c0.258-0.178,0.617-0.268,1.081-0.268c0.442,0,0.863,0.083,1.261,0.249l-0.141,0.339c-0.401-0.166-0.776-0.249-1.12-0.249
			c-0.335,0-0.601,0.056-0.797,0.166c-0.196,0.111-0.293,0.264-0.293,0.46c0,0.214,0.076,0.385,0.228,0.513
			c0.152,0.128,0.449,0.272,0.892,0.43c0.37,0.133,0.64,0.253,0.808,0.36c0.168,0.106,0.295,0.228,0.38,0.364
			C65.339,32.931,65.382,33.09,65.382,33.274z"/>
	</g>
	<g>
		<path fill="#4285F4" d="M38.159,30.157c0.232,0.194,0.721,0.601,0.721,1.375c0,0.756-0.428,1.113-0.854,1.45
			c-0.131,0.134-0.283,0.274-0.283,0.5c0,0.224,0.152,0.345,0.263,0.438l0.365,0.285c0.446,0.376,0.854,0.722,0.854,1.429
			c0,0.957-0.925,1.926-2.672,1.926c-1.472,0-2.183-0.704-2.183-1.459c0-0.367,0.182-0.886,0.782-1.244
			c0.629-0.386,1.483-0.438,1.939-0.468c-0.142-0.184-0.306-0.378-0.306-0.694c0-0.172,0.053-0.275,0.104-0.396
			c-0.113,0.01-0.223,0.02-0.326,0.02c-1.076,0-1.686-0.807-1.686-1.602c0-0.471,0.215-0.988,0.649-1.365
			c0.578-0.481,1.27-0.562,1.819-0.562h2.091l-0.65,0.368H38.159z M37.437,34.682c-0.08-0.009-0.13-0.009-0.23-0.009
			c-0.094,0-0.642,0.019-1.068,0.163c-0.223,0.082-0.873,0.327-0.873,1.049c0,0.725,0.702,1.246,1.789,1.246
			c0.973,0,1.49-0.471,1.49-1.102C38.544,35.508,38.209,35.236,37.437,34.682z M37.733,32.745c0.232-0.234,0.255-0.561,0.255-0.743
			c0-0.732-0.438-1.875-1.281-1.875c-0.264,0-0.548,0.13-0.711,0.335c-0.172,0.213-0.224,0.488-0.224,0.754
			c0,0.683,0.396,1.815,1.271,1.815C37.295,33.032,37.57,32.91,37.733,32.745z"/>
		<path fill="#FFC325" d="M31.767,34.52c-1.613,0-2.474-1.264-2.474-2.403c0-1.333,1.083-2.473,2.625-2.473
			c1.49,0,2.422,1.171,2.422,2.402C34.34,33.246,33.418,34.52,31.767,34.52z M33.032,33.695c0.244-0.326,0.307-0.731,0.307-1.13
			c0-0.896-0.427-2.604-1.683-2.604c-0.337,0-0.671,0.131-0.914,0.345c-0.396,0.355-0.469,0.803-0.469,1.242
			c0,1.008,0.5,2.667,1.727,2.667C32.394,34.214,32.801,34.022,33.032,33.695z"/>
		<path fill="#EC174F" d="M26.271,34.52c-1.612,0-2.475-1.264-2.475-2.403c0-1.333,1.085-2.473,2.627-2.473
			c1.49,0,2.425,1.171,2.425,2.402C28.848,33.246,27.923,34.52,26.271,34.52z M27.537,33.695c0.246-0.326,0.305-0.731,0.305-1.13
			c0-0.896-0.425-2.604-1.683-2.604c-0.335,0-0.668,0.131-0.912,0.345c-0.396,0.355-0.468,0.803-0.468,1.242
			c0,1.008,0.498,2.667,1.724,2.667C26.898,34.214,27.305,34.022,27.537,33.695z"/>
		<path fill="#4285F4" d="M23.021,34.36l-1.455,0.337c-0.593,0.093-1.122,0.176-1.683,0.176c-2.813,0-3.883-2.08-3.883-3.707
			c0-1.984,1.52-3.826,4.115-3.826c0.553,0,1.084,0.082,1.562,0.213c0.764,0.216,1.122,0.484,1.344,0.635l-0.843,0.808l-0.359,0.083
			l0.256-0.409c-0.348-0.337-0.979-0.96-2.181-0.96c-1.612,0-2.824,1.228-2.824,3.018c0,1.923,1.388,3.734,3.608,3.734
			c0.653,0,0.989-0.134,1.295-0.256v-1.647l-1.539,0.081l0.813-0.438h2.161l-0.264,0.255c-0.072,0.06-0.083,0.081-0.102,0.162
			c-0.012,0.094-0.022,0.391-0.022,0.495V34.36z"/>
		<path fill="#0F9D58" d="M41.381,34.066c-0.337-0.033-0.408-0.094-0.408-0.491V33.46v-5.678c0.004-0.023,0.005-0.044,0.008-0.065
			c0.041-0.361,0.143-0.419,0.458-0.606H39.98l-0.766,0.368h0.781v0.007l-0.001-0.003v5.978v0.34c0,0.203-0.041,0.232-0.276,0.539
			h1.805l0.38-0.224C41.729,34.098,41.555,34.084,41.381,34.066z"/>
		<path fill="#EC174F" d="M45.529,34.159c-0.111,0.062-0.224,0.135-0.334,0.183c-0.333,0.155-0.677,0.193-0.98,0.193
			c-0.325,0-0.83-0.019-1.35-0.397c-0.715-0.505-1.033-1.38-1.033-2.144c0-1.575,1.279-2.346,2.32-2.346
			c0.366,0,0.742,0.092,1.043,0.283c0.506,0.335,0.639,0.772,0.708,1.007l-2.376,0.965l-0.782,0.061
			c0.253,1.292,1.125,2.042,2.087,2.042c0.516,0,0.889-0.181,1.233-0.353L45.529,34.159z M44.578,31.131
			c0.192-0.071,0.293-0.131,0.293-0.273c0-0.407-0.454-0.876-1.001-0.876c-0.405,0-1.166,0.317-1.166,1.414
			c0,0.173,0.021,0.356,0.031,0.537L44.578,31.131z"/>
	</g>
</g>
<g>
	<rect x="180" y="48" fill="#FFFFFF" width="48" height="232"/>
	<rect x="180" y="40" width="48" height="8"/>
</g>
<g>
	<path fill="#FFFFFF" d="M183.627,43.578l0.93-1.792h0.698l-1.308,2.404v1.522h-0.645v-1.501L182,41.787h0.698L183.627,43.578z"/>
	<path fill="#FFFFFF" d="M188.203,44.223c0,0.485-0.125,0.864-0.373,1.136c-0.25,0.272-0.596,0.408-1.04,0.408
		c-0.277,0-0.522-0.062-0.735-0.188s-0.377-0.305-0.492-0.54c-0.114-0.235-0.172-0.507-0.172-0.816c0-0.482,0.124-0.858,0.371-1.128
		c0.247-0.271,0.596-0.406,1.045-0.406c0.43,0,0.77,0.138,1.021,0.415C188.078,43.38,188.203,43.753,188.203,44.223z
		 M186.041,44.223c0,0.686,0.254,1.028,0.76,1.028c0.502,0,0.752-0.343,0.752-1.028c0-0.679-0.252-1.018-0.757-1.018
		c-0.265,0-0.457,0.088-0.576,0.263S186.041,43.895,186.041,44.223z"/>
	<path fill="#FFFFFF" d="M190.885,45.713l-0.088-0.39h-0.033c-0.087,0.138-0.212,0.247-0.374,0.325s-0.347,0.118-0.554,0.118
		c-0.361,0-0.629-0.089-0.807-0.269s-0.266-0.45-0.266-0.813v-1.942h0.637v1.832c0,0.228,0.047,0.398,0.139,0.512
		c0.094,0.114,0.24,0.17,0.438,0.17c0.265,0,0.46-0.079,0.584-0.238c0.124-0.158,0.187-0.424,0.187-0.796v-1.48h0.635v2.97H190.885z
		"/>
	<path fill="#FFFFFF" d="M193.651,42.689c0.127,0,0.231,0.009,0.313,0.027l-0.062,0.588c-0.089-0.021-0.183-0.032-0.279-0.032
		c-0.252,0-0.456,0.083-0.613,0.247c-0.157,0.165-0.235,0.379-0.235,0.642v1.552h-0.631v-2.97h0.494l0.083,0.524h0.032
		c0.099-0.178,0.227-0.318,0.386-0.422C193.298,42.741,193.469,42.689,193.651,42.689z"/>
	<path fill="#FFFFFF" d="M197.527,45.713l-0.125-0.414h-0.021c-0.145,0.181-0.288,0.304-0.434,0.369
		c-0.145,0.065-0.33,0.098-0.559,0.098c-0.291,0-0.52-0.079-0.684-0.236c-0.163-0.158-0.245-0.38-0.245-0.669
		c0-0.306,0.114-0.537,0.341-0.692c0.228-0.156,0.574-0.241,1.039-0.255l0.514-0.016v-0.158c0-0.19-0.045-0.332-0.133-0.426
		c-0.089-0.094-0.227-0.141-0.412-0.141c-0.152,0-0.299,0.022-0.438,0.067c-0.141,0.045-0.275,0.098-0.404,0.159l-0.203-0.451
		c0.16-0.084,0.338-0.148,0.529-0.192s0.372-0.066,0.542-0.066c0.378,0,0.663,0.083,0.855,0.247s0.288,0.423,0.288,0.776v2.001
		H197.527z M196.588,45.283c0.229,0,0.413-0.064,0.552-0.192s0.208-0.308,0.208-0.539v-0.258l-0.381,0.016
		c-0.297,0.011-0.514,0.061-0.648,0.149c-0.136,0.089-0.203,0.225-0.203,0.407c0,0.132,0.039,0.235,0.118,0.307
		C196.312,45.247,196.43,45.283,196.588,45.283z"/>
	<path fill="#FFFFFF" d="M199.725,45.767c-0.371,0-0.66-0.134-0.868-0.403s-0.312-0.646-0.312-1.13c0-0.487,0.105-0.866,0.315-1.138
		c0.21-0.271,0.502-0.407,0.874-0.407c0.391,0,0.688,0.144,0.893,0.432h0.031c-0.03-0.213-0.045-0.381-0.045-0.505v-1.082h0.633
		v4.179h-0.494l-0.109-0.39h-0.029C200.41,45.619,200.114,45.767,199.725,45.767z M199.893,45.256c0.26,0,0.449-0.073,0.566-0.219
		c0.119-0.146,0.18-0.383,0.184-0.71v-0.089c0-0.374-0.061-0.64-0.184-0.797c-0.121-0.158-0.312-0.236-0.571-0.236
		c-0.222,0-0.394,0.09-0.513,0.27c-0.12,0.18-0.18,0.437-0.18,0.77c0,0.329,0.058,0.58,0.174,0.753
		C199.486,45.17,199.66,45.256,199.893,45.256z"/>
	<path fill="#FFFFFF" d="M203.014,45.767c-0.371,0-0.66-0.134-0.867-0.403c-0.208-0.269-0.312-0.646-0.312-1.13
		c0-0.487,0.105-0.866,0.316-1.138c0.21-0.271,0.502-0.407,0.874-0.407c0.39,0,0.688,0.144,0.892,0.432h0.032
		c-0.03-0.213-0.046-0.381-0.046-0.505v-1.082h0.634v4.179h-0.494l-0.11-0.39h-0.029C203.7,45.619,203.404,45.767,203.014,45.767z
		 M203.183,45.256c0.26,0,0.448-0.073,0.566-0.219s0.179-0.383,0.183-0.71v-0.089c0-0.374-0.061-0.64-0.183-0.797
		s-0.312-0.236-0.571-0.236c-0.223,0-0.394,0.09-0.514,0.27c-0.119,0.18-0.18,0.437-0.18,0.77c0,0.329,0.059,0.58,0.175,0.753
		S202.949,45.256,203.183,45.256z"/>
	<path fill="#FFFFFF" d="M205.043,44.507V43.97h1.381v0.537H205.043z"/>
	<path fill="#FFFFFF" d="M209.568,44.223c0,0.485-0.125,0.864-0.374,1.136s-0.595,0.408-1.04,0.408
		c-0.277,0-0.521-0.062-0.734-0.188c-0.214-0.125-0.377-0.305-0.492-0.54c-0.115-0.235-0.172-0.507-0.172-0.816
		c0-0.482,0.123-0.858,0.371-1.128c0.246-0.271,0.595-0.406,1.045-0.406c0.43,0,0.77,0.138,1.02,0.415
		C209.442,43.38,209.568,43.753,209.568,44.223z M207.406,44.223c0,0.686,0.253,1.028,0.76,1.028c0.501,0,0.752-0.343,0.752-1.028
		c0-0.679-0.252-1.018-0.758-1.018c-0.265,0-0.457,0.088-0.576,0.263S207.406,43.895,207.406,44.223z"/>
	<path fill="#FFFFFF" d="M212.769,45.713h-0.634v-1.826c0-0.229-0.047-0.4-0.139-0.513c-0.092-0.113-0.238-0.169-0.439-0.169
		c-0.266,0-0.461,0.079-0.585,0.236s-0.186,0.421-0.186,0.792v1.479h-0.631v-2.97h0.494l0.089,0.389h0.032
		c0.089-0.141,0.216-0.25,0.381-0.327c0.165-0.077,0.348-0.116,0.548-0.116c0.713,0,1.069,0.363,1.069,1.087V45.713z"/>
	<path fill="#FFFFFF" d="M217.414,45.713h-0.635v-1.826c0-0.229-0.046-0.4-0.139-0.513c-0.092-0.113-0.238-0.169-0.438-0.169
		c-0.265,0-0.46,0.079-0.584,0.238c-0.124,0.158-0.187,0.424-0.187,0.796v1.475h-0.631v-4.179h0.631v1.061
		c0,0.17-0.012,0.352-0.033,0.545h0.041c0.086-0.143,0.205-0.254,0.358-0.333s0.331-0.118,0.536-0.118
		c0.719,0,1.08,0.363,1.08,1.087V45.713z"/>
	<path fill="#FFFFFF" d="M219.451,45.767c-0.463,0-0.823-0.135-1.084-0.404c-0.26-0.27-0.391-0.641-0.391-1.113
		c0-0.485,0.121-0.866,0.363-1.144c0.24-0.278,0.573-0.417,0.996-0.417c0.392,0,0.701,0.119,0.929,0.357
		c0.228,0.238,0.341,0.566,0.341,0.983v0.341h-1.979c0.008,0.288,0.086,0.51,0.232,0.665c0.147,0.155,0.354,0.232,0.621,0.232
		c0.176,0,0.339-0.017,0.49-0.05s0.313-0.088,0.487-0.165v0.513c-0.153,0.073-0.31,0.125-0.468,0.155
		C219.833,45.751,219.653,45.767,219.451,45.767z M219.336,43.167c-0.201,0-0.361,0.063-0.482,0.19
		c-0.121,0.127-0.193,0.312-0.217,0.556h1.349c-0.003-0.245-0.062-0.431-0.177-0.557C219.693,43.23,219.536,43.167,219.336,43.167z"
		/>
	<path fill="#FFFFFF" d="M222.692,42.689c0.127,0,0.231,0.009,0.313,0.027l-0.062,0.588c-0.089-0.021-0.183-0.032-0.279-0.032
		c-0.252,0-0.456,0.083-0.613,0.247c-0.157,0.165-0.235,0.379-0.235,0.642v1.552h-0.631v-2.97h0.494l0.083,0.524h0.032
		c0.099-0.178,0.227-0.318,0.386-0.422C222.339,42.741,222.51,42.689,222.692,42.689z"/>
	<path fill="#FFFFFF" d="M224.717,45.767c-0.463,0-0.823-0.135-1.084-0.404c-0.26-0.27-0.391-0.641-0.391-1.113
		c0-0.485,0.121-0.866,0.363-1.144c0.24-0.278,0.573-0.417,0.996-0.417c0.392,0,0.701,0.119,0.929,0.357
		c0.228,0.238,0.341,0.566,0.341,0.983v0.341h-1.979c0.008,0.288,0.086,0.51,0.232,0.665c0.147,0.155,0.354,0.232,0.621,0.232
		c0.176,0,0.339-0.017,0.49-0.05s0.313-0.088,0.487-0.165v0.513c-0.153,0.073-0.31,0.125-0.468,0.155
		C225.099,45.751,224.919,45.767,224.717,45.767z M224.602,43.167c-0.201,0-0.361,0.063-0.482,0.19
		c-0.121,0.127-0.193,0.312-0.217,0.556h1.349c-0.003-0.245-0.062-0.431-0.177-0.557C224.959,43.23,224.802,43.167,224.602,43.167z"
		/>
</g>
<g>
</g>
<g>
</g>
<g>
</g>
<g>
</g>
<g>
</g>
<g>
</g>
</svg>
