<?xml version="1.0" encoding="utf-8"?>
<!-- Generator: Adobe Illustrator 16.0.4, SVG Export Plug-In . SVG Version: 6.00 Build 0)  -->
<!DOCTYPE svg PUBLIC "-//W3C//DTD SVG 1.1//EN" "http://www.w3.org/Graphics/SVG/1.1/DTD/svg11.dtd">
<svg version="1.1" id="Layer_1" xmlns="http://www.w3.org/2000/svg" xmlns:xlink="http://www.w3.org/1999/xlink" x="0px" y="0px"
	 width="228px" height="288px" viewBox="0 0 228 288" enable-background="new 0 0 228 288" xml:space="preserve">
<rect fill="#999999" width="228" height="288"/>
<rect x="12" y="24" fill="#FFFFFF" width="216" height="16"/>
<g>
	<path d="M49.75,34.399h-0.388v-5.552h3.042v0.357H49.75v2.355h2.506v0.36H49.75V34.399z"/>
	<path d="M56.832,32.33c0,0.673-0.164,1.199-0.491,1.577c-0.326,0.379-0.776,0.568-1.352,0.568c-0.362,0-0.681-0.087-0.957-0.262
		c-0.276-0.175-0.487-0.425-0.635-0.752c-0.146-0.326-0.221-0.703-0.221-1.131c0-0.674,0.164-1.199,0.491-1.575
		c0.326-0.376,0.774-0.564,1.344-0.564c0.567,0,1.013,0.191,1.336,0.572C56.67,31.144,56.832,31.666,56.832,32.33z M53.573,32.33
		c0,0.567,0.124,1.009,0.373,1.327c0.25,0.318,0.603,0.477,1.058,0.477c0.456,0,0.809-0.159,1.059-0.477
		c0.248-0.318,0.373-0.76,0.373-1.327c0-0.57-0.126-1.012-0.377-1.326c-0.252-0.314-0.606-0.471-1.062-0.471
		c-0.455,0-0.807,0.156-1.054,0.469C53.696,31.314,53.573,31.757,53.573,32.33z"/>
	<path d="M59.692,30.19c0.175,0,0.362,0.019,0.562,0.054l-0.071,0.36c-0.172-0.042-0.351-0.064-0.536-0.064
		c-0.352,0-0.64,0.149-0.865,0.448s-0.339,0.676-0.339,1.132v2.279h-0.376v-4.128h0.32l0.037,0.745h0.026
		c0.17-0.304,0.351-0.517,0.544-0.64C59.186,30.252,59.419,30.19,59.692,30.19z"/>
	<path d="M66.41,34.399v-2.708c0-0.403-0.078-0.696-0.234-0.881c-0.157-0.185-0.398-0.278-0.723-0.278
		c-0.422,0-0.735,0.116-0.938,0.35c-0.203,0.233-0.304,0.599-0.304,1.097v2.419h-0.384v-2.822c0-0.696-0.319-1.044-0.957-1.044
		c-0.434,0-0.748,0.125-0.945,0.378c-0.198,0.251-0.297,0.654-0.297,1.209v2.279h-0.375v-4.128h0.311l0.08,0.566h0.022
		c0.114-0.205,0.275-0.364,0.485-0.477c0.211-0.113,0.443-0.169,0.696-0.169c0.65,0,1.068,0.245,1.253,0.733h0.015
		c0.135-0.235,0.315-0.417,0.542-0.543c0.227-0.127,0.484-0.19,0.772-0.19c0.451,0,0.788,0.121,1.014,0.361
		c0.226,0.24,0.339,0.623,0.339,1.146v2.701H66.41z"/>
	<path d="M70.772,33.324c0,0.37-0.141,0.654-0.421,0.853c-0.281,0.199-0.68,0.298-1.197,0.298c-0.551,0-0.989-0.085-1.313-0.255
		v-0.406c0.416,0.208,0.854,0.312,1.313,0.312c0.408,0,0.718-0.068,0.929-0.203c0.212-0.135,0.318-0.316,0.318-0.541
		c0-0.208-0.085-0.383-0.253-0.524c-0.168-0.143-0.445-0.281-0.83-0.418c-0.412-0.149-0.702-0.278-0.869-0.386
		c-0.168-0.106-0.293-0.228-0.378-0.364c-0.085-0.136-0.128-0.3-0.128-0.495c0-0.309,0.13-0.554,0.39-0.733
		c0.259-0.18,0.622-0.27,1.088-0.27c0.445,0,0.869,0.084,1.269,0.251l-0.141,0.342c-0.404-0.167-0.781-0.25-1.128-0.25
		c-0.337,0-0.604,0.055-0.801,0.167c-0.198,0.111-0.297,0.266-0.297,0.462c0,0.215,0.077,0.388,0.23,0.518
		c0.153,0.128,0.451,0.272,0.897,0.432c0.372,0.135,0.644,0.255,0.812,0.363c0.17,0.108,0.297,0.23,0.382,0.367
		S70.772,33.139,70.772,33.324z"/>
</g>
<g>
	<path fill="#FFFFFF" d="M220,14c0,1.1-0.9,2-2,2H42c-1.1,0-2-0.9-2-2v-4c0-1.1,0.9-2,2-2h176c1.1,0,2,0.9,2,2V14z"/>
</g>
<g>
	<circle fill="#333333" cx="28" cy="12" r="4"/>
	<polygon fill="#333333" points="16,8 16,16 20,12 	"/>
	<polyline fill="#333333" points="8,12 12,16 12,8 	"/>
</g>
<rect y="40" fill="#CCCCCC" width="228" height="240"/>
<rect x="12" y="48" fill="#FFFFFF" width="156" height="24"/>
<rect y="24" fill="#0F9D58" width="12" height="16"/>
<g>
	<path fill="#4285F4" d="M38.159,30.156c0.232,0.194,0.721,0.601,0.721,1.375c0,0.757-0.428,1.113-0.854,1.45
		c-0.131,0.134-0.283,0.274-0.283,0.5c0,0.224,0.152,0.345,0.263,0.438l0.365,0.285c0.446,0.377,0.854,0.722,0.854,1.429
		c0,0.957-0.925,1.927-2.672,1.927c-1.472,0-2.183-0.705-2.183-1.46c0-0.367,0.182-0.886,0.782-1.243
		c0.629-0.387,1.483-0.439,1.939-0.469c-0.142-0.184-0.306-0.377-0.306-0.693c0-0.173,0.053-0.276,0.104-0.397
		c-0.113,0.01-0.223,0.021-0.326,0.021c-1.076,0-1.686-0.808-1.686-1.603c0-0.471,0.215-0.988,0.649-1.365
		c0.578-0.481,1.27-0.562,1.819-0.562h2.091l-0.65,0.368H38.159z M37.437,34.682c-0.08-0.01-0.13-0.01-0.23-0.01
		c-0.094,0-0.642,0.019-1.068,0.163c-0.223,0.082-0.873,0.328-0.873,1.05c0,0.724,0.702,1.245,1.789,1.245
		c0.973,0,1.49-0.471,1.49-1.101C38.544,35.509,38.209,35.236,37.437,34.682z M37.733,32.745c0.232-0.234,0.255-0.561,0.255-0.743
		c0-0.733-0.438-1.875-1.281-1.875c-0.264,0-0.548,0.13-0.711,0.335c-0.172,0.213-0.224,0.488-0.224,0.755
		c0,0.683,0.396,1.814,1.271,1.814C37.295,33.031,37.57,32.91,37.733,32.745z"/>
	<path fill="#FFC325" d="M31.767,34.519c-1.613,0-2.474-1.264-2.474-2.403c0-1.332,1.083-2.472,2.625-2.472
		c1.49,0,2.422,1.17,2.422,2.401C34.34,33.247,33.418,34.519,31.767,34.519z M33.032,33.694c0.244-0.326,0.307-0.731,0.307-1.13
		c0-0.896-0.427-2.604-1.683-2.604c-0.337,0-0.671,0.132-0.914,0.346c-0.396,0.354-0.469,0.802-0.469,1.241
		c0,1.009,0.5,2.667,1.727,2.667C32.394,34.213,32.801,34.022,33.032,33.694z"/>
	<path fill="#EC174F" d="M26.271,34.519c-1.612,0-2.475-1.264-2.475-2.403c0-1.332,1.085-2.472,2.627-2.472
		c1.49,0,2.425,1.17,2.425,2.401C28.848,33.247,27.923,34.519,26.271,34.519z M27.537,33.694c0.246-0.326,0.305-0.731,0.305-1.13
		c0-0.896-0.425-2.604-1.683-2.604c-0.335,0-0.668,0.132-0.912,0.346c-0.396,0.354-0.468,0.802-0.468,1.241
		c0,1.009,0.498,2.667,1.724,2.667C26.898,34.213,27.305,34.022,27.537,33.694z"/>
	<path fill="#4285F4" d="M23.021,34.359l-1.455,0.338c-0.593,0.092-1.122,0.175-1.683,0.175c-2.813,0-3.883-2.08-3.883-3.707
		c0-1.984,1.52-3.826,4.115-3.826c0.553,0,1.084,0.082,1.562,0.213c0.764,0.217,1.122,0.484,1.344,0.636l-0.843,0.807l-0.359,0.083
		l0.256-0.41c-0.348-0.336-0.979-0.96-2.181-0.96c-1.612,0-2.824,1.228-2.824,3.018c0,1.923,1.388,3.734,3.608,3.734
		c0.653,0,0.989-0.134,1.295-0.255v-1.647l-1.539,0.08l0.813-0.438h2.161l-0.264,0.255c-0.072,0.061-0.083,0.082-0.102,0.162
		c-0.012,0.094-0.022,0.392-0.022,0.495V34.359z"/>
	<path fill="#0F9D58" d="M41.381,34.066c-0.337-0.033-0.408-0.094-0.408-0.491V33.46v-5.677c0.004-0.023,0.005-0.045,0.008-0.066
		c0.041-0.361,0.143-0.418,0.458-0.605H39.98l-0.766,0.368h0.781v0.007l-0.001-0.004v5.978v0.34c0,0.203-0.041,0.233-0.276,0.54
		h1.805l0.38-0.224C41.729,34.097,41.555,34.085,41.381,34.066z"/>
	<path fill="#EC174F" d="M45.529,34.16c-0.111,0.061-0.224,0.134-0.334,0.182c-0.333,0.155-0.677,0.193-0.98,0.193
		c-0.325,0-0.83-0.019-1.35-0.397c-0.715-0.505-1.033-1.38-1.033-2.143c0-1.576,1.279-2.347,2.32-2.347
		c0.366,0,0.742,0.092,1.043,0.283c0.506,0.335,0.639,0.772,0.708,1.007l-2.376,0.965l-0.782,0.061
		c0.253,1.292,1.125,2.043,2.087,2.043c0.516,0,0.889-0.182,1.233-0.354L45.529,34.16z M44.578,31.13
		c0.192-0.071,0.293-0.13,0.293-0.273c0-0.408-0.454-0.876-1.001-0.876c-0.405,0-1.166,0.318-1.166,1.415
		c0,0.172,0.021,0.356,0.031,0.536L44.578,31.13z"/>
</g>
<rect x="12" y="80" fill="#FFFFFF" width="156" height="160"/>
<rect x="12" y="248" fill="#FFFFFF" width="156" height="24"/>
<g>
	<path fill="#4285F4" d="M32,266c0,1.1-0.9,2-2,2H18c-1.1,0-2-0.9-2-2v-4c0-1.1,0.9-2,2-2h12c1.1,0,2,0.9,2,2V266z"/>
</g>
<g>
	<path fill="#4285F4" d="M32,234.098c0,1.1-0.9,2-2,2H18c-1.1,0-2-0.9-2-2v-3.805c0-1.1,0.9-2,2-2h12c1.1,0,2,0.9,2,2V234.098z"/>
</g>
<g>
	<g id="Layer_1_2_">
		<rect x="4.351" y="31.7" fill="#FFFFFF" width="4.499" height="0.601"/>
	</g>
	<polyline fill="#FFFFFF" points="4.351,32.899 8.85,32.899 8.85,33.5 4.351,33.5 	"/>
	<polyline fill="#FFFFFF" points="4.351,30.5 8.85,30.5 8.85,31.1 4.351,31.1 	"/>
	<g>
		<g id="Layer_1_3_">
			<rect x="3.15" y="31.7" fill="#FFFFFF" width="0.6" height="0.601"/>
		</g>
		<polyline fill="#FFFFFF" points="3.15,32.899 3.75,32.899 3.75,33.5 3.15,33.5 		"/>
		<polyline fill="#FFFFFF" points="3.15,30.5 3.75,30.5 3.75,31.1 3.15,31.1 		"/>
	</g>
</g>
<g>
	<rect x="180" y="48" fill="#FFFFFF" width="48" height="232"/>
	<rect x="180" y="40" width="48" height="8"/>
</g>
<g>
	<path fill="#FFFFFF" d="M184.855,43.937l0.901-1.737h0.677l-1.269,2.331v1.477h-0.625v-1.456l-1.263-2.352h0.677L184.855,43.937z"
		/>
	<path fill="#FFFFFF" d="M189.292,44.562c0,0.471-0.121,0.838-0.362,1.102s-0.577,0.396-1.008,0.396
		c-0.269,0-0.507-0.061-0.713-0.183c-0.207-0.122-0.366-0.296-0.477-0.523c-0.111-0.227-0.167-0.491-0.167-0.792
		c0-0.467,0.12-0.832,0.359-1.094s0.577-0.393,1.013-0.393c0.417,0,0.747,0.134,0.99,0.402
		C189.171,43.745,189.292,44.106,189.292,44.562z M187.195,44.562c0,0.665,0.246,0.998,0.737,0.998c0.486,0,0.729-0.333,0.729-0.998
		c0-0.658-0.245-0.987-0.734-0.987c-0.257,0-0.443,0.085-0.559,0.255C187.253,44,187.195,44.244,187.195,44.562z"/>
	<path fill="#FFFFFF" d="M191.894,46.007l-0.086-0.377h-0.031c-0.085,0.133-0.206,0.239-0.363,0.315s-0.336,0.115-0.538,0.115
		c-0.349,0-0.609-0.087-0.781-0.261c-0.172-0.173-0.258-0.437-0.258-0.789v-1.883h0.617v1.776c0,0.22,0.046,0.386,0.136,0.496
		c0.09,0.11,0.231,0.165,0.425,0.165c0.257,0,0.445-0.077,0.566-0.23c0.12-0.153,0.181-0.411,0.181-0.772v-1.435h0.614v2.88H191.894
		z"/>
	<path fill="#FFFFFF" d="M194.575,43.075c0.123,0,0.225,0.008,0.305,0.026l-0.06,0.57c-0.087-0.021-0.178-0.031-0.271-0.031
		c-0.244,0-0.442,0.08-0.595,0.24s-0.228,0.367-0.228,0.622v1.505h-0.612v-2.88h0.479l0.08,0.508h0.031
		c0.096-0.172,0.221-0.308,0.374-0.409S194.398,43.075,194.575,43.075z"/>
	<path fill="#FFFFFF" d="M198.334,46.007l-0.122-0.401h-0.021c-0.14,0.175-0.279,0.294-0.42,0.358s-0.321,0.095-0.541,0.095
		c-0.283,0-0.504-0.077-0.663-0.229s-0.238-0.369-0.238-0.648c0-0.297,0.11-0.521,0.331-0.672c0.22-0.151,0.556-0.233,1.008-0.247
		l0.497-0.016v-0.154c0-0.184-0.043-0.322-0.129-0.413c-0.086-0.091-0.219-0.137-0.399-0.137c-0.147,0-0.289,0.021-0.425,0.065
		s-0.266,0.095-0.391,0.154l-0.198-0.438c0.156-0.082,0.327-0.144,0.514-0.187c0.186-0.042,0.36-0.063,0.525-0.063
		c0.366,0,0.644,0.08,0.83,0.239s0.279,0.411,0.279,0.753v1.94H198.334z M197.423,45.59c0.223,0,0.4-0.062,0.535-0.187
		c0.135-0.124,0.202-0.298,0.202-0.522v-0.25l-0.37,0.016c-0.288,0.01-0.498,0.059-0.629,0.145s-0.196,0.217-0.196,0.395
		c0,0.128,0.038,0.228,0.114,0.298S197.271,45.59,197.423,45.59z"/>
	<path fill="#FFFFFF" d="M200.465,46.059c-0.359,0-0.64-0.13-0.842-0.391c-0.201-0.261-0.302-0.626-0.302-1.097
		c0-0.472,0.102-0.84,0.306-1.103c0.204-0.263,0.487-0.395,0.848-0.395c0.379,0,0.667,0.14,0.865,0.419h0.031
		c-0.03-0.207-0.045-0.37-0.045-0.489v-1.05h0.615v4.052h-0.479l-0.106-0.377h-0.029C201.13,45.916,200.843,46.059,200.465,46.059z
		 M200.629,45.564c0.251,0,0.435-0.071,0.549-0.212c0.115-0.142,0.174-0.371,0.178-0.689v-0.086c0-0.363-0.06-0.621-0.178-0.773
		s-0.303-0.229-0.555-0.229c-0.215,0-0.381,0.087-0.497,0.262c-0.116,0.174-0.175,0.423-0.175,0.746c0,0.319,0.057,0.563,0.17,0.73
		C200.233,45.48,200.403,45.564,200.629,45.564z"/>
	<path fill="#FFFFFF" d="M203.654,46.059c-0.359,0-0.64-0.13-0.842-0.391c-0.201-0.261-0.302-0.626-0.302-1.097
		c0-0.472,0.102-0.84,0.306-1.103c0.204-0.263,0.487-0.395,0.848-0.395c0.379,0,0.667,0.14,0.865,0.419h0.031
		c-0.03-0.207-0.045-0.37-0.045-0.489v-1.05h0.615v4.052h-0.479l-0.106-0.377h-0.029C204.319,45.916,204.032,46.059,203.654,46.059z
		 M203.818,45.564c0.251,0,0.435-0.071,0.549-0.212c0.115-0.142,0.174-0.371,0.178-0.689v-0.086c0-0.363-0.06-0.621-0.178-0.773
		s-0.303-0.229-0.555-0.229c-0.215,0-0.381,0.087-0.497,0.262c-0.116,0.174-0.175,0.423-0.175,0.746c0,0.319,0.057,0.563,0.17,0.73
		C203.423,45.48,203.593,45.564,203.818,45.564z"/>
	<path fill="#FFFFFF" d="M205.622,44.837v-0.521h1.339v0.521H205.622z"/>
	<path fill="#FFFFFF" d="M210.01,44.562c0,0.471-0.121,0.838-0.362,1.102s-0.577,0.396-1.008,0.396
		c-0.269,0-0.507-0.061-0.713-0.183c-0.207-0.122-0.366-0.296-0.477-0.523c-0.111-0.227-0.167-0.491-0.167-0.792
		c0-0.467,0.12-0.832,0.359-1.094s0.577-0.393,1.013-0.393c0.417,0,0.747,0.134,0.99,0.402
		C209.889,43.745,210.01,44.106,210.01,44.562z M207.913,44.562c0,0.665,0.246,0.998,0.737,0.998c0.486,0,0.729-0.333,0.729-0.998
		c0-0.658-0.245-0.987-0.734-0.987c-0.257,0-0.443,0.085-0.559,0.255C207.971,44,207.913,44.244,207.913,44.562z"/>
	<path fill="#FFFFFF" d="M213.113,46.007h-0.615v-1.771c0-0.222-0.044-0.388-0.134-0.497s-0.231-0.164-0.426-0.164
		c-0.259,0-0.448,0.076-0.567,0.229c-0.12,0.153-0.18,0.409-0.18,0.768v1.435h-0.612v-2.88h0.479l0.086,0.378h0.031
		c0.087-0.137,0.21-0.243,0.369-0.318c0.16-0.075,0.337-0.112,0.531-0.112c0.691,0,1.037,0.352,1.037,1.055V46.007z"/>
	<path fill="#FFFFFF" d="M217.617,46.007h-0.615v-1.771c0-0.222-0.044-0.388-0.134-0.497s-0.231-0.164-0.426-0.164
		c-0.257,0-0.445,0.077-0.566,0.23c-0.121,0.153-0.181,0.411-0.181,0.772v1.43h-0.612v-4.052h0.612v1.029
		c0,0.165-0.011,0.341-0.031,0.529h0.039c0.083-0.139,0.199-0.247,0.348-0.323c0.148-0.076,0.321-0.114,0.52-0.114
		c0.697,0,1.047,0.352,1.047,1.055V46.007z"/>
	<path fill="#FFFFFF" d="M219.594,46.059c-0.448,0-0.798-0.131-1.051-0.392s-0.379-0.621-0.379-1.08c0-0.47,0.117-0.84,0.352-1.109
		s0.557-0.403,0.966-0.403c0.381,0,0.681,0.115,0.901,0.346s0.331,0.549,0.331,0.953v0.331h-1.92
		c0.009,0.28,0.085,0.495,0.227,0.645c0.143,0.15,0.343,0.226,0.602,0.226c0.171,0,0.329-0.016,0.476-0.048s0.305-0.085,0.473-0.16
		v0.498c-0.149,0.071-0.301,0.122-0.453,0.151S219.79,46.059,219.594,46.059z M219.481,43.538c-0.194,0-0.35,0.062-0.467,0.185
		c-0.117,0.123-0.188,0.303-0.21,0.539h1.308c-0.004-0.238-0.062-0.418-0.172-0.541C219.829,43.599,219.676,43.538,219.481,43.538z"
		/>
	<path fill="#FFFFFF" d="M222.736,43.075c0.123,0,0.225,0.008,0.305,0.026l-0.06,0.57c-0.087-0.021-0.178-0.031-0.271-0.031
		c-0.244,0-0.442,0.08-0.595,0.24s-0.228,0.367-0.228,0.622v1.505h-0.612v-2.88h0.479l0.08,0.508h0.031
		c0.096-0.172,0.221-0.308,0.374-0.409S222.56,43.075,222.736,43.075z"/>
	<path fill="#FFFFFF" d="M224.699,46.059c-0.448,0-0.798-0.131-1.051-0.392s-0.379-0.621-0.379-1.08c0-0.47,0.117-0.84,0.352-1.109
		s0.557-0.403,0.966-0.403c0.381,0,0.681,0.115,0.901,0.346s0.331,0.549,0.331,0.953v0.331h-1.92
		c0.009,0.28,0.085,0.495,0.227,0.645c0.143,0.15,0.343,0.226,0.602,0.226c0.171,0,0.329-0.016,0.476-0.048s0.305-0.085,0.473-0.16
		v0.498c-0.149,0.071-0.301,0.122-0.453,0.151S224.896,46.059,224.699,46.059z M224.587,43.538c-0.194,0-0.35,0.062-0.467,0.185
		c-0.117,0.123-0.188,0.303-0.21,0.539h1.308c-0.004-0.238-0.062-0.418-0.172-0.541C224.935,43.599,224.781,43.538,224.587,43.538z"
		/>
</g>
<g>
</g>
<g>
</g>
<g>
</g>
<g>
</g>
<g>
</g>
<g>
</g>
</svg>
