<?xml version="1.0" encoding="utf-8"?>
<!-- Generator: Adobe Illustrator 16.0.4, SVG Export Plug-In . SVG Version: 6.00 Build 0)  -->
<!DOCTYPE svg PUBLIC "-//W3C//DTD SVG 1.1//EN" "http://www.w3.org/Graphics/SVG/1.1/DTD/svg11.dtd">
<svg version="1.1" id="Layer_1" xmlns="http://www.w3.org/2000/svg" xmlns:xlink="http://www.w3.org/1999/xlink" x="0px" y="0px"
	 width="408px" height="264px" viewBox="0 0 408 264" enable-background="new 0 0 408 264" xml:space="preserve">
<g>
	<rect fill="#999999" width="408" height="264"/>
	<rect y="36" fill="#4285F4" width="18" height="24"/>
	<rect x="18" y="36" fill="#FFFFFF" width="390" height="24"/>
	<g>
		<path fill="#FFFFFF" d="M396,22c0,1.1-0.9,2-2,2H62c-1.1,0-2-0.9-2-2v-8c0-1.1,0.9-2,2-2h332c1.1,0,2,0.9,2,2V22z"/>
	</g>
	<rect y="60" fill="#CCCCCC" width="408" height="192"/>
	<g>
		<path fill="#FFFFFF" d="M102,94c0,1.1-0.9,2-2,2H62c-1.1,0-2-0.9-2-2V74c0-1.1,0.9-2,2-2h38c1.1,0,2,0.9,2,2V94z"/>
	</g>
	<g>
		<path fill="#231F20" d="M66.875,19.139c0,0.333-0.125,0.589-0.373,0.77c-0.247,0.18-0.594,0.269-1.042,0.269
			c-0.473,0-0.841-0.075-1.107-0.224v-0.502c0.172,0.089,0.356,0.156,0.552,0.205c0.196,0.05,0.385,0.076,0.568,0.076
			c0.283,0,0.5-0.045,0.651-0.135c0.153-0.09,0.229-0.228,0.229-0.412c0-0.139-0.061-0.258-0.18-0.357
			c-0.122-0.099-0.356-0.215-0.705-0.349c-0.333-0.125-0.569-0.231-0.708-0.325c-0.141-0.092-0.245-0.196-0.312-0.312
			c-0.069-0.118-0.102-0.258-0.102-0.422c0-0.29,0.118-0.519,0.355-0.688c0.235-0.168,0.56-0.253,0.973-0.253
			c0.383,0,0.758,0.078,1.125,0.234l-0.192,0.441c-0.357-0.149-0.683-0.222-0.973-0.222c-0.256,0-0.449,0.04-0.579,0.12
			c-0.13,0.082-0.195,0.191-0.195,0.333c0,0.096,0.024,0.177,0.073,0.243c0.05,0.068,0.128,0.132,0.237,0.193
			c0.108,0.061,0.317,0.147,0.625,0.264c0.422,0.155,0.708,0.309,0.856,0.465S66.875,18.904,66.875,19.139z"/>
		<path fill="#231F20" d="M69.384,20.177c-0.517,0-0.917-0.158-1.199-0.476c-0.284-0.317-0.425-0.769-0.425-1.349
			c0-0.597,0.144-1.058,0.431-1.384c0.288-0.325,0.697-0.49,1.229-0.49c0.172,0,0.344,0.019,0.516,0.056
			c0.171,0.038,0.305,0.08,0.403,0.13l-0.167,0.46c-0.12-0.049-0.25-0.088-0.391-0.12s-0.266-0.047-0.375-0.047
			c-0.724,0-1.086,0.461-1.086,1.387c0,0.439,0.088,0.774,0.265,1.008c0.177,0.234,0.438,0.353,0.787,0.353
			c0.297,0,0.603-0.064,0.915-0.193v0.479C70.047,20.116,69.747,20.177,69.384,20.177z"/>
		<path fill="#231F20" d="M72.939,16.479c0.158,0,0.3,0.014,0.427,0.04l-0.076,0.502c-0.147-0.033-0.277-0.049-0.391-0.049
			c-0.288,0-0.535,0.116-0.741,0.351c-0.204,0.234-0.307,0.526-0.307,0.875v1.915h-0.541v-3.568h0.446l0.062,0.662h0.026
			c0.132-0.232,0.292-0.412,0.479-0.537C72.51,16.543,72.715,16.479,72.939,16.479z"/>
		<path fill="#231F20" d="M74.226,15.578c0-0.123,0.03-0.213,0.09-0.271c0.062-0.059,0.137-0.086,0.229-0.086
			c0.087,0,0.161,0.029,0.224,0.086c0.063,0.061,0.095,0.149,0.095,0.271c0,0.123-0.031,0.212-0.095,0.271
			c-0.062,0.061-0.136,0.092-0.224,0.092c-0.091,0-0.167-0.031-0.229-0.092C74.255,15.79,74.226,15.701,74.226,15.578z
			 M74.811,20.113h-0.54v-3.568h0.54V20.113z"/>
		<path fill="#231F20" d="M77.768,20.177c-0.231,0-0.443-0.042-0.636-0.127c-0.192-0.087-0.353-0.219-0.483-0.396h-0.039
			c0.026,0.208,0.039,0.406,0.039,0.592v1.467h-0.541v-5.168h0.441l0.074,0.49h0.026c0.14-0.196,0.301-0.338,0.485-0.425
			c0.184-0.085,0.396-0.13,0.634-0.13c0.473,0,0.839,0.162,1.095,0.486c0.259,0.325,0.385,0.778,0.385,1.361
			c0,0.585-0.13,1.042-0.391,1.365C78.596,20.016,78.232,20.177,77.768,20.177z M77.69,16.939c-0.364,0-0.629,0.101-0.791,0.304
			c-0.163,0.2-0.247,0.521-0.251,0.963v0.12c0,0.5,0.083,0.859,0.251,1.075c0.167,0.217,0.436,0.325,0.804,0.325
			c0.309,0,0.549-0.125,0.724-0.373c0.174-0.25,0.262-0.594,0.262-1.033c0-0.444-0.088-0.785-0.262-1.024
			C78.252,17.057,78.007,16.939,77.69,16.939z"/>
		<path fill="#231F20" d="M81.522,19.732c0.095,0,0.188-0.008,0.277-0.021c0.089-0.016,0.159-0.03,0.211-0.045v0.415
			c-0.059,0.026-0.144,0.05-0.258,0.069c-0.114,0.019-0.217,0.026-0.308,0.026c-0.691,0-1.036-0.361-1.036-1.09v-2.122h-0.51v-0.26
			l0.51-0.226l0.229-0.76h0.312v0.826h1.035v0.42H80.95v2.101c0,0.213,0.05,0.378,0.152,0.495
			C81.205,19.675,81.344,19.732,81.522,19.732z"/>
		<path fill="#231F20" d="M82.914,19.769c0-0.146,0.032-0.255,0.099-0.332c0.067-0.075,0.161-0.111,0.286-0.111
			c0.125,0,0.224,0.037,0.293,0.111c0.071,0.076,0.106,0.186,0.106,0.332c0,0.141-0.035,0.249-0.106,0.325
			c-0.072,0.076-0.169,0.113-0.292,0.113c-0.111,0-0.203-0.035-0.275-0.103C82.951,20.037,82.914,19.925,82.914,19.769z"/>
		<path fill="#231F20" d="M87.853,16.545v0.342l-0.66,0.078c0.061,0.076,0.114,0.175,0.163,0.298
			c0.048,0.122,0.071,0.261,0.071,0.414c0,0.351-0.12,0.628-0.358,0.836c-0.239,0.208-0.567,0.312-0.983,0.312
			c-0.107,0-0.206-0.008-0.299-0.026c-0.231,0.122-0.346,0.276-0.346,0.46c0,0.097,0.041,0.17,0.12,0.217
			c0.082,0.047,0.219,0.069,0.415,0.069h0.631c0.386,0,0.683,0.082,0.891,0.243c0.208,0.163,0.312,0.401,0.312,0.71
			c0,0.396-0.16,0.696-0.478,0.904c-0.316,0.207-0.778,0.309-1.385,0.309c-0.467,0-0.827-0.085-1.079-0.26
			c-0.252-0.174-0.379-0.418-0.379-0.734c0-0.217,0.069-0.406,0.208-0.564c0.139-0.156,0.333-0.266,0.587-0.321
			c-0.092-0.042-0.168-0.106-0.231-0.193c-0.061-0.085-0.092-0.188-0.092-0.302c0-0.13,0.035-0.245,0.104-0.342
			c0.068-0.097,0.179-0.191,0.328-0.283c-0.184-0.076-0.335-0.205-0.452-0.387c-0.115-0.182-0.173-0.391-0.173-0.625
			c0-0.391,0.116-0.692,0.351-0.904c0.234-0.21,0.567-0.318,0.998-0.318c0.186,0,0.354,0.023,0.503,0.066H87.853z M85.009,20.712
			c0,0.192,0.082,0.34,0.244,0.439c0.163,0.099,0.396,0.149,0.699,0.149c0.455,0,0.791-0.068,1.009-0.203
			c0.219-0.135,0.328-0.318,0.328-0.552c0-0.192-0.061-0.326-0.181-0.401c-0.12-0.076-0.344-0.113-0.673-0.113h-0.647
			c-0.245,0-0.436,0.059-0.573,0.175C85.076,20.325,85.009,20.493,85.009,20.712z M85.3,17.688c0,0.25,0.072,0.438,0.213,0.566
			c0.141,0.13,0.337,0.193,0.589,0.193c0.526,0,0.791-0.255,0.791-0.769c0-0.535-0.266-0.804-0.801-0.804
			c-0.253,0-0.449,0.07-0.585,0.205C85.37,17.217,85.3,17.42,85.3,17.688z"/>
		<path fill="#231F20" d="M91.769,18.326c0,0.58-0.146,1.037-0.438,1.361c-0.294,0.326-0.698,0.49-1.214,0.49
			c-0.319,0-0.603-0.075-0.851-0.224s-0.438-0.365-0.573-0.644c-0.134-0.28-0.201-0.608-0.201-0.983
			c0-0.582,0.145-1.035,0.435-1.359c0.292-0.324,0.695-0.488,1.211-0.488c0.5,0,0.896,0.167,1.19,0.499
			C91.623,17.311,91.769,17.759,91.769,18.326z M89.052,18.326c0,0.455,0.091,0.802,0.273,1.042
			c0.182,0.239,0.449,0.357,0.803,0.357s0.624-0.118,0.807-0.356c0.183-0.239,0.275-0.585,0.275-1.043
			c0-0.453-0.092-0.798-0.275-1.035c-0.183-0.234-0.454-0.352-0.812-0.352c-0.354,0-0.621,0.116-0.801,0.347
			C89.143,17.519,89.052,17.865,89.052,18.326z"/>
		<path fill="#231F20" d="M95.993,18.326c0,0.58-0.147,1.037-0.438,1.361c-0.294,0.326-0.698,0.49-1.214,0.49
			c-0.319,0-0.604-0.075-0.851-0.224c-0.248-0.149-0.438-0.365-0.573-0.644c-0.133-0.28-0.2-0.608-0.2-0.983
			c0-0.582,0.145-1.035,0.435-1.359c0.292-0.324,0.695-0.488,1.211-0.488c0.5,0,0.896,0.167,1.19,0.499
			C95.846,17.311,95.993,17.759,95.993,18.326z M93.276,18.326c0,0.455,0.091,0.802,0.273,1.042
			c0.183,0.239,0.449,0.357,0.803,0.357c0.354,0,0.623-0.118,0.806-0.356c0.183-0.239,0.275-0.585,0.275-1.043
			c0-0.453-0.092-0.798-0.275-1.035c-0.183-0.234-0.454-0.352-0.812-0.352c-0.354,0-0.621,0.116-0.801,0.347
			C93.366,17.519,93.276,17.865,93.276,18.326z"/>
		<path fill="#231F20" d="M100.029,16.545v0.342l-0.661,0.078c0.062,0.076,0.114,0.175,0.163,0.298
			c0.049,0.122,0.071,0.261,0.071,0.414c0,0.351-0.12,0.628-0.358,0.836c-0.238,0.208-0.566,0.312-0.982,0.312
			c-0.108,0-0.207-0.008-0.3-0.026c-0.23,0.122-0.345,0.276-0.345,0.46c0,0.097,0.041,0.17,0.12,0.217
			c0.081,0.047,0.219,0.069,0.414,0.069h0.632c0.386,0,0.683,0.082,0.891,0.243c0.207,0.163,0.311,0.401,0.311,0.71
			c0,0.396-0.159,0.696-0.477,0.904c-0.317,0.207-0.779,0.309-1.385,0.309c-0.468,0-0.828-0.085-1.079-0.26
			c-0.253-0.174-0.379-0.418-0.379-0.734c0-0.217,0.068-0.406,0.208-0.564c0.138-0.156,0.333-0.266,0.586-0.321
			c-0.091-0.042-0.168-0.106-0.231-0.193c-0.061-0.085-0.092-0.188-0.092-0.302c0-0.13,0.035-0.245,0.104-0.342
			c0.069-0.097,0.18-0.191,0.328-0.283c-0.184-0.076-0.335-0.205-0.451-0.387c-0.115-0.182-0.174-0.391-0.174-0.625
			c0-0.391,0.117-0.692,0.352-0.904c0.234-0.21,0.567-0.318,0.997-0.318c0.186,0,0.354,0.023,0.503,0.066H100.029z M97.185,20.712
			c0,0.192,0.081,0.34,0.244,0.439c0.163,0.099,0.396,0.149,0.699,0.149c0.454,0,0.791-0.068,1.008-0.203
			c0.219-0.135,0.328-0.318,0.328-0.552c0-0.192-0.06-0.326-0.18-0.401c-0.12-0.076-0.344-0.113-0.674-0.113h-0.647
			c-0.245,0-0.436,0.059-0.573,0.175C97.252,20.325,97.185,20.493,97.185,20.712z M97.477,17.688c0,0.25,0.072,0.438,0.213,0.566
			c0.141,0.13,0.336,0.193,0.589,0.193c0.526,0,0.791-0.255,0.791-0.769c0-0.535-0.267-0.804-0.801-0.804
			c-0.254,0-0.449,0.07-0.586,0.205C97.545,17.217,97.477,17.42,97.477,17.688z"/>
		<path fill="#231F20" d="M101.508,20.113h-0.541v-5.066h0.541V20.113z"/>
		<path fill="#231F20" d="M104.337,20.177c-0.528,0-0.944-0.16-1.249-0.481s-0.457-0.766-0.457-1.339
			c0-0.573,0.141-1.031,0.424-1.37c0.283-0.338,0.663-0.509,1.141-0.509c0.447,0,0.801,0.149,1.062,0.443s0.391,0.681,0.391,1.163
			v0.342h-2.458c0.01,0.418,0.116,0.738,0.317,0.953c0.201,0.217,0.483,0.326,0.848,0.326c0.385,0,0.764-0.082,1.141-0.241v0.481
			c-0.192,0.083-0.374,0.142-0.543,0.179C104.783,20.16,104.576,20.177,104.337,20.177z M104.19,16.932
			c-0.286,0-0.515,0.094-0.685,0.28c-0.17,0.188-0.271,0.444-0.3,0.776h1.864c0-0.342-0.076-0.603-0.228-0.785
			C104.689,17.024,104.472,16.932,104.19,16.932z"/>
		<path fill="#231F20" d="M106.623,19.769c0-0.146,0.033-0.255,0.099-0.332c0.067-0.075,0.162-0.111,0.286-0.111
			c0.126,0,0.224,0.037,0.294,0.111c0.07,0.076,0.106,0.186,0.106,0.332c0,0.141-0.036,0.249-0.108,0.325
			c-0.071,0.076-0.168,0.113-0.292,0.113c-0.11,0-0.202-0.035-0.275-0.103C106.66,20.037,106.623,19.925,106.623,19.769z"/>
		<path fill="#231F20" d="M110.005,20.177c-0.518,0-0.917-0.158-1.2-0.476c-0.283-0.317-0.424-0.769-0.424-1.349
			c0-0.597,0.143-1.058,0.431-1.384c0.288-0.325,0.696-0.49,1.228-0.49c0.172,0,0.344,0.019,0.516,0.056
			c0.171,0.038,0.306,0.08,0.404,0.13l-0.167,0.46c-0.12-0.049-0.25-0.088-0.391-0.12s-0.266-0.047-0.375-0.047
			c-0.724,0-1.087,0.461-1.087,1.387c0,0.439,0.088,0.774,0.265,1.008c0.177,0.234,0.438,0.353,0.787,0.353
			c0.297,0,0.604-0.064,0.916-0.193v0.479C110.668,20.116,110.367,20.177,110.005,20.177z"/>
		<path fill="#231F20" d="M114.955,18.326c0,0.58-0.148,1.037-0.439,1.361c-0.294,0.326-0.698,0.49-1.215,0.49
			c-0.318,0-0.603-0.075-0.85-0.224c-0.248-0.149-0.438-0.365-0.573-0.644c-0.134-0.28-0.2-0.608-0.2-0.983
			c0-0.582,0.144-1.035,0.435-1.359c0.292-0.324,0.695-0.488,1.211-0.488c0.5,0,0.896,0.167,1.19,0.499
			C114.807,17.311,114.955,17.759,114.955,18.326z M112.237,18.326c0,0.455,0.091,0.802,0.273,1.042
			c0.183,0.239,0.45,0.357,0.804,0.357c0.354,0,0.621-0.118,0.805-0.356c0.184-0.239,0.274-0.585,0.274-1.043
			c0-0.453-0.09-0.798-0.274-1.035c-0.184-0.234-0.455-0.352-0.812-0.352c-0.354,0-0.622,0.116-0.8,0.347
			C112.326,17.519,112.237,17.865,112.237,18.326z"/>
		<path fill="#231F20" d="M120.623,20.113v-2.321c0-0.283-0.06-0.497-0.183-0.641c-0.121-0.141-0.31-0.211-0.565-0.211
			c-0.337,0-0.586,0.095-0.747,0.29c-0.16,0.193-0.24,0.49-0.24,0.891v1.993h-0.541v-2.321c0-0.283-0.061-0.497-0.182-0.641
			c-0.121-0.141-0.311-0.211-0.569-0.211c-0.338,0-0.587,0.101-0.745,0.304s-0.235,0.536-0.235,0.998v1.872h-0.541v-3.568h0.44
			l0.087,0.49h0.026c0.103-0.175,0.247-0.311,0.432-0.408c0.187-0.098,0.393-0.148,0.624-0.148c0.557,0,0.922,0.203,1.094,0.608
			h0.026c0.106-0.188,0.261-0.335,0.462-0.443c0.201-0.109,0.432-0.165,0.69-0.165c0.404,0,0.706,0.104,0.906,0.312
			c0.201,0.207,0.302,0.539,0.302,0.993v2.328H120.623z"/>
	</g>
	<g>
		<g>
			<path d="M78.249,48.592h-3.362l-1.155,2.92h-0.64l3.328-8.309h0.367l3.261,8.309h-0.651L78.249,48.592z M75.097,48.071h2.959
				l-1.126-2.983c-0.094-0.234-0.208-0.559-0.34-0.974c-0.102,0.363-0.213,0.691-0.333,0.984L75.097,48.071z"/>
			<path d="M83.595,51.625c-0.947,0-1.637-0.354-2.072-1.064h-0.039l0.018,0.476c0.016,0.279,0.021,0.585,0.021,0.917v2.344h-0.56
				v-8.938h0.476l0.107,0.878h0.034c0.422-0.665,1.098-0.997,2.026-0.997c0.83,0,1.463,0.272,1.898,0.818
				c0.437,0.545,0.654,1.338,0.654,2.38c0,1.012-0.229,1.795-0.688,2.351C85.012,51.347,84.387,51.625,83.595,51.625z
				 M83.584,51.128c0.629,0,1.117-0.234,1.462-0.703c0.346-0.469,0.519-1.123,0.519-1.963c0-1.808-0.652-2.712-1.958-2.712
				c-0.717,0-1.243,0.198-1.579,0.592c-0.336,0.395-0.504,1.037-0.504,1.927v0.182c0,0.96,0.162,1.648,0.484,2.059
				C82.33,50.922,82.855,51.128,83.584,51.128z"/>
			<path d="M90.378,51.625c-0.947,0-1.637-0.354-2.072-1.064h-0.039l0.017,0.476c0.016,0.279,0.022,0.585,0.022,0.917v2.344h-0.56
				v-8.938h0.476l0.108,0.878h0.034c0.422-0.665,1.098-0.997,2.026-0.997c0.83,0,1.464,0.272,1.898,0.818
				c0.437,0.545,0.654,1.338,0.654,2.38c0,1.012-0.229,1.795-0.688,2.351C91.796,51.347,91.171,51.625,90.378,51.625z
				 M90.368,51.128c0.628,0,1.117-0.234,1.462-0.703c0.345-0.469,0.518-1.123,0.518-1.963c0-1.808-0.652-2.712-1.958-2.712
				c-0.717,0-1.243,0.198-1.579,0.592c-0.336,0.395-0.504,1.037-0.504,1.927v0.182c0,0.96,0.161,1.648,0.484,2.059
				C89.114,50.922,89.639,51.128,90.368,51.128z"/>
			<path d="M98.346,49.91c0,0.552-0.209,0.976-0.629,1.271c-0.418,0.297-1.013,0.444-1.783,0.444c-0.823,0-1.475-0.127-1.958-0.38
				v-0.604c0.619,0.311,1.272,0.463,1.958,0.463c0.608,0,1.069-0.101,1.384-0.302c0.315-0.203,0.473-0.471,0.473-0.808
				c0-0.309-0.126-0.569-0.376-0.781c-0.252-0.21-0.664-0.418-1.237-0.622c-0.614-0.224-1.047-0.415-1.296-0.574
				c-0.25-0.16-0.438-0.342-0.563-0.543c-0.126-0.203-0.19-0.448-0.19-0.74c0-0.46,0.194-0.823,0.581-1.09
				c0.387-0.269,0.927-0.403,1.621-0.403c0.664,0,1.294,0.124,1.891,0.374l-0.209,0.508c-0.603-0.248-1.164-0.373-1.681-0.373
				c-0.501,0-0.899,0.083-1.194,0.25c-0.294,0.165-0.442,0.396-0.442,0.691c0,0.319,0.115,0.577,0.343,0.769
				c0.228,0.191,0.675,0.408,1.339,0.644c0.555,0.202,0.958,0.38,1.211,0.542c0.252,0.16,0.442,0.342,0.568,0.545
				C98.282,49.396,98.346,49.635,98.346,49.91z"/>
			<path d="M107.417,49.378c0,0.689-0.252,1.238-0.76,1.641c-0.508,0.405-1.183,0.606-2.023,0.606c-1.012,0-1.787-0.111-2.327-0.333
				v-0.578c0.596,0.253,1.356,0.38,2.281,0.38c0.68,0,1.218-0.156,1.616-0.467c0.398-0.311,0.597-0.721,0.597-1.226
				c0-0.314-0.066-0.573-0.198-0.778c-0.133-0.207-0.348-0.394-0.646-0.562c-0.298-0.172-0.735-0.354-1.312-0.55
				c-0.846-0.29-1.43-0.604-1.752-0.942c-0.321-0.337-0.483-0.787-0.483-1.349c0-0.62,0.242-1.125,0.727-1.514
				c0.485-0.391,1.108-0.587,1.871-0.587c0.778,0,1.507,0.147,2.19,0.442l-0.209,0.497c-0.687-0.286-1.343-0.429-1.969-0.429
				c-0.612,0-1.099,0.141-1.461,0.424c-0.362,0.285-0.543,0.668-0.543,1.154c0,0.307,0.057,0.557,0.167,0.753
				c0.111,0.196,0.293,0.372,0.546,0.53c0.253,0.156,0.688,0.344,1.302,0.562c0.646,0.222,1.13,0.438,1.454,0.649
				c0.325,0.208,0.562,0.446,0.711,0.712C107.343,48.681,107.417,49,107.417,49.378z"/>
			<path d="M111.366,51.625c-0.88,0-1.567-0.278-2.066-0.832c-0.498-0.556-0.748-1.328-0.748-2.321c0-1.019,0.259-1.812,0.776-2.38
				c0.517-0.567,1.224-0.851,2.122-0.851c0.531,0,1.042,0.092,1.527,0.278l-0.152,0.497c-0.533-0.177-0.995-0.266-1.387-0.266
				c-0.755,0-1.327,0.232-1.715,0.7c-0.388,0.465-0.583,1.137-0.583,2.012c0,0.83,0.195,1.479,0.583,1.95
				c0.388,0.469,0.933,0.703,1.63,0.703c0.558,0,1.077-0.099,1.556-0.299v0.521C112.519,51.529,112.003,51.625,111.366,51.625z"/>
			<path d="M116.722,45.241c0.26,0,0.54,0.026,0.838,0.08l-0.108,0.536c-0.256-0.062-0.521-0.095-0.798-0.095
				c-0.525,0-0.955,0.222-1.291,0.668c-0.336,0.444-0.503,1.007-0.503,1.686v3.396h-0.56v-6.153h0.475l0.057,1.109h0.039
				c0.252-0.453,0.522-0.771,0.81-0.953C115.968,45.332,116.314,45.241,116.722,45.241z"/>
			<path d="M118.615,43.651c0-0.361,0.12-0.543,0.357-0.543c0.117,0,0.208,0.047,0.274,0.141c0.067,0.096,0.099,0.229,0.099,0.403
				c0,0.17-0.032,0.304-0.099,0.401c-0.066,0.099-0.157,0.147-0.274,0.147C118.735,44.2,118.615,44.016,118.615,43.651z
				 M119.254,51.512h-0.56v-6.153h0.56V51.512z"/>
			<path d="M123.83,51.625c-0.946,0-1.637-0.354-2.071-1.064h-0.039l0.017,0.476c0.016,0.279,0.022,0.585,0.022,0.917v2.344h-0.56
				v-8.938h0.475l0.108,0.878h0.034c0.422-0.665,1.097-0.997,2.026-0.997c0.829,0,1.464,0.272,1.898,0.818
				c0.436,0.545,0.654,1.338,0.654,2.38c0,1.012-0.229,1.795-0.688,2.351C125.248,51.347,124.623,51.625,123.83,51.625z
				 M123.819,51.128c0.629,0,1.117-0.234,1.463-0.703c0.345-0.469,0.518-1.123,0.518-1.963c0-1.808-0.653-2.712-1.958-2.712
				c-0.718,0-1.244,0.198-1.58,0.592c-0.336,0.395-0.503,1.037-0.503,1.927v0.182c0,0.96,0.161,1.648,0.484,2.059
				C122.566,50.922,123.09,51.128,123.819,51.128z"/>
			<path d="M129.607,51.128c0.354,0,0.664-0.031,0.927-0.092v0.453c-0.271,0.09-0.585,0.135-0.939,0.135
				c-0.543,0-0.944-0.146-1.203-0.436c-0.258-0.29-0.388-0.747-0.388-1.368v-3.974h-0.91v-0.328l0.91-0.255l0.284-1.392h0.288v1.488
				h1.806v0.488h-1.806v3.893c0,0.472,0.083,0.821,0.25,1.047C128.991,51.014,129.252,51.128,129.607,51.128z"/>
		</g>
		<g>
			<path fill="#4285F4" d="M57.238,45.234c0.349,0.292,1.083,0.901,1.083,2.062c0,1.134-0.642,1.67-1.281,2.175
				c-0.195,0.2-0.424,0.412-0.424,0.75c0,0.335,0.229,0.518,0.394,0.656l0.548,0.427c0.669,0.564,1.281,1.083,1.281,2.142
				c0,1.436-1.388,2.889-4.008,2.889c-2.208,0-3.273-1.056-3.273-2.188c0-0.55,0.273-1.328,1.174-1.866
				c0.943-0.58,2.225-0.658,2.908-0.702c-0.211-0.276-0.458-0.568-0.458-1.042c0-0.259,0.078-0.412,0.155-0.594
				c-0.171,0.016-0.334,0.029-0.49,0.029c-1.614,0-2.527-1.21-2.527-2.403c0-0.705,0.321-1.481,0.974-2.047
				c0.866-0.72,1.903-0.844,2.728-0.844h3.137l-0.976,0.552H57.238z M56.154,52.022c-0.12-0.014-0.194-0.014-0.345-0.014
				c-0.141,0-0.963,0.028-1.603,0.245c-0.334,0.122-1.309,0.49-1.309,1.573c0,1.089,1.053,1.87,2.683,1.87
				c1.458,0,2.235-0.707,2.235-1.653C57.816,53.262,57.314,52.853,56.154,52.022z M56.601,49.118
				c0.349-0.353,0.381-0.842,0.381-1.115c0-1.099-0.657-2.812-1.921-2.812c-0.396,0-0.823,0.194-1.067,0.502
				c-0.256,0.321-0.334,0.732-0.334,1.132c0,1.024,0.594,2.722,1.906,2.722C55.943,49.547,56.356,49.365,56.601,49.118z"/>
			<path fill="#FFC325" d="M47.649,51.779c-2.418,0-3.71-1.896-3.71-3.604c0-2,1.625-3.71,3.938-3.71
				c2.234,0,3.633,1.757,3.633,3.603C51.51,49.868,50.127,51.779,47.649,51.779z M49.549,50.542
				c0.365-0.489,0.459-1.095,0.459-1.694c0-1.344-0.64-3.906-2.523-3.906c-0.505,0-1.007,0.196-1.372,0.516
				c-0.594,0.533-0.703,1.205-0.703,1.865c0,1.51,0.75,4,2.59,4C48.59,51.321,49.201,51.033,49.549,50.542z"/>
			<path fill="#EC174F" d="M39.406,51.779c-2.419,0-3.712-1.896-3.712-3.604c0-2,1.627-3.71,3.939-3.71
				c2.236,0,3.637,1.757,3.637,3.603C43.271,49.868,41.884,51.779,39.406,51.779z M41.306,50.542
				c0.369-0.489,0.458-1.095,0.458-1.694c0-1.344-0.638-3.906-2.525-3.906c-0.501,0-1.001,0.196-1.366,0.516
				c-0.596,0.533-0.702,1.205-0.702,1.865c0,1.51,0.746,4,2.584,4C40.347,51.321,40.957,51.033,41.306,50.542z"/>
			<path fill="#4285F4" d="M34.531,51.54l-2.184,0.505c-0.889,0.141-1.682,0.266-2.522,0.266c-4.221,0-5.825-3.12-5.825-5.561
				c0-2.976,2.279-5.74,6.174-5.74c0.828,0,1.625,0.124,2.342,0.321c1.144,0.323,1.682,0.726,2.016,0.952l-1.264,1.211l-0.54,0.124
				l0.384-0.613c-0.521-0.507-1.469-1.439-3.271-1.439c-2.418,0-4.236,1.84-4.236,4.526c0,2.886,2.081,5.601,5.414,5.601
				c0.979,0,1.482-0.2,1.941-0.384v-2.472l-2.309,0.122l1.222-0.656h3.24l-0.396,0.383c-0.109,0.089-0.125,0.12-0.152,0.242
				c-0.018,0.141-0.033,0.586-0.033,0.743V51.54z"/>
			<path fill="#0F9D58" d="M62.071,51.099c-0.505-0.049-0.611-0.141-0.611-0.736v-0.172v-8.517c0.005-0.035,0.006-0.066,0.011-0.098
				c0.062-0.542,0.214-0.63,0.688-0.91h-2.187l-1.148,0.552h1.17v0.01l-0.001-0.005v8.967v0.51c0,0.304-0.062,0.349-0.414,0.808
				h2.707l0.571-0.335C62.592,51.146,62.332,51.127,62.071,51.099z"/>
			<path fill="#EC174F" d="M68.294,51.238c-0.167,0.094-0.336,0.203-0.501,0.276c-0.5,0.231-1.016,0.289-1.472,0.289
				c-0.486,0-1.245-0.028-2.022-0.596c-1.073-0.759-1.551-2.071-1.551-3.215c0-2.363,1.918-3.519,3.481-3.519
				c0.549,0,1.112,0.137,1.564,0.424c0.759,0.503,0.958,1.16,1.062,1.51l-3.566,1.448l-1.173,0.092
				c0.38,1.938,1.688,3.062,3.131,3.062c0.773,0,1.333-0.271,1.849-0.53L68.294,51.238z M66.867,46.696
				c0.289-0.108,0.44-0.198,0.44-0.412c0-0.609-0.682-1.312-1.502-1.312c-0.608,0-1.749,0.476-1.749,2.12
				c0,0.261,0.033,0.535,0.047,0.808L66.867,46.696z"/>
		</g>
	</g>
	<rect y="84" fill="#E6E6E6" width="48.001" height="12"/>
	<g>
		<path fill="#E6E6E6" d="M144,94c0,1.1-0.9,2-2,2h-38c-1.1,0-2-0.9-2-2V74c0-1.1,0.9-2,2-2h38c1.1,0,2,0.9,2,2V94z"/>
	</g>
	<rect x="60" y="84" fill="#FFFFFF" width="348" height="156"/>
	<rect y="72" fill="#FFFFFF" width="48.001" height="12"/>
	<line fill="none" stroke="#FFFFFF" stroke-width="2" stroke-miterlimit="10" x1="0" y1="240" x2="408" y2="240"/>
	<line fill="none" stroke="#FFFFFF" stroke-width="2" stroke-miterlimit="10" x1="47.333" y1="72" x2="47.333" y2="240"/>
	<polygon fill="#FFFFFF" points="12.601,48 7.2,42.599 7.2,46 0,46 0,50 7.2,50 7.2,53.401 	"/>
	<g>
		<circle fill="#333333" cx="42" cy="18" r="6"/>
		<polygon fill="#333333" points="24,12 24,24 30,18 		"/>
		<polyline fill="#333333" points="12,18 18,24 18,12 		"/>
	</g>
</g>
<path fill="#770088" d="M72.796,92.703L72.403,93.5c-0.037,0.004-0.091-0.018-0.097-0.1c-0.004-0.052,0.005-0.084-0.033-0.143
	c-0.23-0.349-0.669-0.627-1.197-0.627c-0.453,0-0.876,0.202-1.102,0.606c-0.205,0.367-0.199,0.787-0.199,1.184v0.425h1.791v0.683
	h-1.791V100h-0.828v-4.472h-1.19v-0.683h1.19v-0.538c0-0.486,0.02-0.943,0.301-1.4c0.383-0.622,1.103-0.954,1.873-0.954
	C71.809,91.953,72.404,92.231,72.796,92.703z"/>
<path fill="#770088" d="M74.006,94.524v3.054c0,0.367-0.001,0.796,0.193,1.183c0.218,0.433,0.618,0.67,1.047,0.67
	c0.528,0,1.015-0.354,1.266-0.812c0.183-0.334,0.216-0.66,0.216-1.081v-3.013h0.869v4.979c0,0.161,0.01,0.333,0.062,0.497h-0.911
	c-0.022-0.142-0.024-0.284-0.021-0.425l0.01-0.413c-0.357,0.604-1.005,0.973-1.692,0.973c-0.713,0-1.383-0.398-1.703-1.118
	c-0.214-0.48-0.219-0.962-0.217-1.438l0.01-3.054H74.006z"/>
<path fill="#770088" d="M79.171,94.524h0.879v0.963c0.402-0.61,1.078-1.098,1.821-1.098c0.625,0,1.186,0.351,1.459,0.968
	c0.195,0.44,0.198,0.893,0.198,1.32V100H82.68v-3.302c0-0.387-0.003-0.857-0.299-1.212c-0.197-0.234-0.468-0.347-0.743-0.347
	c-0.58,0-1.106,0.484-1.315,0.763c-0.228,0.304-0.272,0.572-0.272,0.94V100h-0.879V94.524z"/>
<path fill="#770088" d="M89.064,96.14c-0.095-0.072-0.03-0.185-0.076-0.277c-0.032-0.064-0.481-0.718-1.417-0.718
	c-1.007,0-1.81,0.78-1.81,2.028c0,1.28,0.814,2.175,1.882,2.175c0.549,0,1.081-0.242,1.451-0.662l0.497,0.579
	c-0.522,0.563-1.256,0.87-2.021,0.87c-1.55,0-2.699-1.221-2.699-2.872c0-1.645,1.144-2.853,2.753-2.853
	c0.881,0,1.618,0.383,2.049,1.015L89.064,96.14z"/>
<path fill="#770088" d="M93.168,92.899c0.042,0.122-0.044,0.196-0.068,0.324c-0.057,0.304-0.139,1.291-0.139,1.291h1.791v0.714
	h-1.801c-0.069,0.712-0.104,1.428-0.104,2.144c0,0.795,0.029,1.005,0.035,1.054c0.088,0.658,0.513,0.884,0.922,0.884
	c0.337,0,0.762-0.154,1.228-0.5l0.269,0.684c-0.463,0.339-1.099,0.611-1.751,0.611c-0.56,0-0.988-0.217-1.248-0.583
	c-0.319-0.449-0.323-1-0.323-1.492c0-0.93,0.038-1.862,0.114-2.801h-1.283l0.01-0.704h1.304l0.104-1.47L93.168,92.899z"/>
<path fill="#770088" d="M98.98,94.515v4.792h1.284V100h-3.55v-0.693h1.397v-4.089h-1.325v-0.703H98.98z M99.188,92.75
	c0,0.339-0.277,0.615-0.621,0.615c-0.343,0-0.621-0.276-0.621-0.615c0-0.34,0.278-0.616,0.621-0.616S99.188,92.41,99.188,92.75z"/>
<path fill="#770088" d="M103.869,100.145c-1.381,0-2.568-1.175-2.568-2.842c0-1.692,1.197-2.902,2.593-2.902
	c1.245,0,2.439,0.993,2.439,2.885C106.334,99.102,105.167,100.145,103.869,100.145z M102.213,97.229c0,1.352,0.79,2.171,1.663,2.171
	c0.8,0,1.589-0.699,1.589-2.078c0-1.505-0.839-2.187-1.629-2.187C102.998,95.135,102.213,95.885,102.213,97.229z"/>
<path fill="#770088" d="M107.621,94.524h0.879v0.963c0.402-0.61,1.078-1.098,1.821-1.098c0.625,0,1.186,0.351,1.459,0.968
	c0.195,0.44,0.198,0.893,0.198,1.32V100h-0.849v-3.302c0-0.387-0.003-0.857-0.299-1.212c-0.197-0.234-0.468-0.347-0.743-0.347
	c-0.58,0-1.106,0.484-1.315,0.763c-0.228,0.304-0.272,0.572-0.272,0.94V100h-0.879V94.524z"/>
<path d="M121.856,100.145c-1.381,0-2.568-1.175-2.568-2.842c0-1.692,1.197-2.902,2.594-2.902c1.245,0,2.439,0.993,2.439,2.885
	C124.321,99.102,123.153,100.145,121.856,100.145z M120.2,97.229c0,1.352,0.79,2.171,1.663,2.171c0.8,0,1.589-0.699,1.589-2.078
	c0-1.505-0.839-2.187-1.629-2.187C120.984,95.135,120.2,95.885,120.2,97.229z"/>
<path d="M125.607,94.524h0.879v0.963c0.402-0.61,1.078-1.098,1.821-1.098c0.625,0,1.186,0.351,1.459,0.968
	c0.195,0.44,0.198,0.893,0.198,1.32V100h-0.849v-3.302c0-0.387-0.003-0.857-0.299-1.212c-0.197-0.234-0.468-0.347-0.743-0.347
	c-0.58,0-1.106,0.484-1.315,0.763c-0.228,0.304-0.272,0.572-0.272,0.94V100h-0.879V94.524z"/>
<path d="M135.978,98.669c-0.492,0.995-1.353,1.445-2.159,1.445c-1.144,0-2.696-0.926-2.696-3.862c0-2.938,1.574-3.808,2.688-3.808
	c0.813,0,1.663,0.448,2.153,1.408c0.407,0.799,0.458,1.728,0.458,2.427C136.422,96.936,136.375,97.865,135.978,98.669z
	 M131.95,96.143c0,2.377,1.031,3.153,1.872,3.153c0.503,0,1.082-0.284,1.427-1.011c0.307-0.645,0.335-1.407,0.335-1.896
	c0-0.633-0.039-1.348-0.291-1.977c-0.348-0.866-0.987-1.182-1.518-1.182C132.991,93.23,131.95,93.915,131.95,96.143z"/>
<path d="M138.438,94.524v0.839c0.373-0.6,1.027-0.963,1.731-0.963c1.078,0,2.223,0.864,2.223,2.798c0,2.009-1.179,2.948-2.299,2.948
	c-0.666,0-1.279-0.329-1.645-0.871v2.723h-0.88l-0.01-7.474H138.438z M138.582,95.931c-0.121,0.284-0.145,0.617-0.145,1.08
	c0,0.793-0.003,1.244,0.157,1.614c0.216,0.498,0.733,0.756,1.253,0.756c0.513,0,1.647-0.276,1.647-2.005
	c0-1.988-1.161-2.239-1.642-2.239C139.3,95.137,138.791,95.438,138.582,95.931z"/>
<path d="M148.129,96.335c0.054,0.318,0.071,0.67,0.038,1.047h-3.889c0.065,1.641,1.126,2.044,1.86,2.044
	c0.544,0,1.061-0.216,1.418-0.616l0.476,0.466c-0.469,0.564-1.18,0.851-1.961,0.851c-1.488,0-2.631-0.978-2.631-2.803
	c0-2,1.211-2.936,2.52-2.936C146.858,94.388,147.881,94.864,148.129,96.335z M147.319,96.719c0.103-0.889-0.531-1.668-1.419-1.668
	c-0.588,0-1.422,0.376-1.593,1.668H147.319z"/>
<path d="M149.554,94.524h0.879v0.963c0.402-0.61,1.078-1.098,1.821-1.098c0.625,0,1.186,0.351,1.459,0.968
	c0.195,0.44,0.198,0.893,0.198,1.32V100h-0.849v-3.302c0-0.387-0.003-0.857-0.299-1.212c-0.197-0.234-0.468-0.347-0.743-0.347
	c-0.58,0-1.106,0.484-1.315,0.763c-0.228,0.304-0.272,0.572-0.272,0.94V100h-0.879V94.524z"/>
<path d="M159.151,92.744c-0.041,0.023-0.08,0.025-0.097,0.025c-0.048,0-0.086-0.014-0.128-0.014c-0.048,0-0.077,0.019-0.108,0.037
	c-1.401,0.826-2.231,2.354-2.231,4.067c0,1.863,0.966,3.626,2.605,4.578l-0.393,0.632c-1.9-0.997-3.046-2.991-3.046-5.17
	c0-2.195,1.18-4.074,3.036-4.891L159.151,92.744z"/>
<path fill="#0000FF" d="M164,96.335c0.054,0.318,0.071,0.67,0.038,1.047h-3.889c0.065,1.641,1.126,2.044,1.86,2.044
	c0.544,0,1.061-0.216,1.418-0.616l0.476,0.466c-0.469,0.564-1.18,0.851-1.961,0.851c-1.488,0-2.631-0.978-2.631-2.803
	c0-2,1.211-2.936,2.52-2.936C162.729,94.388,163.752,94.864,164,96.335z M163.19,96.719c0.103-0.889-0.531-1.668-1.419-1.668
	c-0.588,0-1.422,0.376-1.593,1.668H163.19z"/>
<path d="M164.503,92.02c1.949,0.897,3.208,2.84,3.208,4.976c0,2.155-1.282,4.147-3.271,5.096l-0.228-0.725
	c1.621-0.857,2.65-2.531,2.65-4.337c0-1.779-1.003-3.422-2.588-4.265L164.503,92.02z"/>
<path d="M176.214,96.595c0.213,0,0.541,0.004,0.802-0.271c0.281-0.295,0.311-0.725,0.311-1.018c0-0.29-0.03-0.562-0.03-0.858
	c0-0.452,0.064-1.126,0.592-1.607c0.575-0.524,1.346-0.479,1.989-0.479h0.362v0.684h-0.414c-0.524,0-0.89-0.05-1.212,0.152
	c-0.462,0.288-0.481,0.872-0.481,1.115c0,0.287,0.036,0.55,0.036,0.843c0,0.285-0.032,0.64-0.191,0.965
	c-0.177,0.362-0.482,0.646-0.853,0.806c0.455,0.158,1.013,0.615,1.013,1.868c0,0.371-0.038,0.686-0.038,1.003
	c0,0.413,0.061,0.938,0.49,1.233c0.328,0.226,0.702,0.201,1.195,0.201h0.445v0.673h-0.435c-0.741,0-1.355,0.036-1.873-0.361
	c-0.632-0.484-0.668-1.305-0.668-1.74c0-0.468,0.045-0.825,0.045-1.199c0-0.518-0.081-0.867-0.316-1.098
	c-0.246-0.241-0.555-0.238-0.758-0.238h-0.249v-0.673H176.214z"/>
<path d="M83.688,107.132c-0.026-0.009-0.061-0.032-0.063-0.099c-0.001-0.044,0.004-0.069-0.027-0.115
	c-0.29-0.422-0.825-0.74-1.521-0.74c-0.855,0-1.35,0.522-1.35,1.096c0,0.306,0.138,0.748,0.764,1.114
	c0.684,0.4,1.737,0.612,2.387,1.225c0.468,0.44,0.581,0.962,0.581,1.354c0,0.94-0.672,2.159-2.491,2.159
	c-0.922,0-1.759-0.323-2.347-0.963l0.497-0.859c0.058,0.029,0.055,0.095,0.055,0.114c-0.001,0.05-0.004,0.08,0.034,0.128
	c0.334,0.423,0.966,0.824,1.786,0.824c1.085,0,1.632-0.705,1.632-1.355c0-0.334-0.137-0.725-0.627-1.032
	c-0.565-0.354-1.644-0.612-2.335-1.123c-0.623-0.46-0.794-1.022-0.794-1.458c0-1.022,0.927-1.915,2.277-1.915
	c0.814,0,1.566,0.33,2.072,0.932L83.688,107.132z"/>
<path d="M86.433,107.524v0.839c0.373-0.6,1.027-0.963,1.731-0.963c1.078,0,2.223,0.864,2.223,2.798c0,2.009-1.179,2.948-2.299,2.948
	c-0.666,0-1.279-0.329-1.645-0.871v2.723h-0.88l-0.01-7.474H86.433z M86.577,108.931c-0.121,0.284-0.145,0.617-0.145,1.08
	c0,0.793-0.003,1.244,0.157,1.614c0.216,0.498,0.733,0.756,1.253,0.756c0.513,0,1.647-0.276,1.647-2.005
	c0-1.988-1.161-2.239-1.642-2.239C87.295,108.137,86.786,108.438,86.577,108.931z"/>
<path d="M92.76,107.524l-0.031,1.056c0.359-0.783,1.171-1.188,1.972-1.188c0.616,0,1.12,0.245,1.465,0.598l-0.404,0.828
	c-0.092-0.088-0.131-0.183-0.203-0.274c-0.154-0.197-0.444-0.411-0.905-0.411c-0.388,0-1.042,0.137-1.54,0.924
	c-0.372,0.589-0.385,0.953-0.385,1.283v2.671h-0.869v-5.486H92.76z"/>
<path d="M101.585,109.335c0.054,0.318,0.071,0.67,0.038,1.047h-3.889c0.065,1.641,1.126,2.044,1.86,2.044
	c0.544,0,1.061-0.216,1.418-0.616l0.476,0.466c-0.469,0.564-1.18,0.851-1.961,0.851c-1.488,0-2.631-0.978-2.631-2.803
	c0-2,1.211-2.936,2.52-2.936C100.314,107.388,101.336,107.864,101.585,109.335z M100.774,109.719
	c0.103-0.889-0.531-1.668-1.419-1.668c-0.588,0-1.422,0.376-1.593,1.668H100.774z"/>
<path d="M105.084,107.4c0.851,0,1.546,0.311,1.906,0.91c0.252,0.421,0.269,0.846,0.269,1.295V113h-0.818v-0.601
	c-0.598,0.49-1.294,0.735-1.967,0.735c-1.145,0-1.844-0.747-1.844-1.551c0-0.607,0.393-1.248,1.257-1.565
	c0.697-0.256,1.561-0.248,2.368-0.248h0.176v-0.196c0-0.291,0.004-0.644-0.178-0.943c-0.155-0.254-0.477-0.527-1.127-0.527
	c-0.506,0-1.123,0.142-1.572,0.611l-0.424-0.549C103.641,107.638,104.346,107.4,105.084,107.4z M106.266,110.434
	c-0.569,0-1.303-0.036-1.801,0.082c-0.687,0.164-0.966,0.612-0.966,1.01c0,0.49,0.424,0.948,1.151,0.948
	c0.718,0,1.242-0.435,1.44-0.646c0.37-0.393,0.372-0.748,0.372-1.032v-0.361H106.266z"/>
<path d="M112.468,105.02h0.921c0.005,0.082-0.041,0.142-0.065,0.18c-0.043,0.066-0.048,0.1-0.048,0.162l0.011,7.132
	c0,0.165,0.008,0.339,0.051,0.507h-0.859c-0.044-0.133-0.052-0.273-0.052-0.403v-0.477c-0.344,0.615-0.992,1.001-1.692,1.001
	c-1.059,0-2.179-0.884-2.179-2.906c0-2.094,1.261-2.836,2.306-2.836c0.757,0,1.343,0.38,1.607,0.942V105.02z M109.393,110.073
	c0,1.805,0.921,2.287,1.542,2.287c0.571,0,1.139-0.382,1.35-1.039c0.089-0.277,0.114-0.584,0.114-0.997
	c0-0.611-0.024-0.918-0.092-1.172c-0.217-0.813-0.925-1.069-1.405-1.069C110.271,108.083,109.393,108.514,109.393,110.073z"/>
<path d="M118.493,109.005c-0.021-0.005-0.063-0.024-0.062-0.097c0-0.042,0.008-0.07-0.025-0.114c-0.208-0.27-0.74-0.753-1.521-0.753
	c-0.62,0-1.154,0.308-1.154,0.749c0,0.184,0.095,0.449,0.542,0.666c0.512,0.247,1.395,0.371,2.014,0.719
	c0.648,0.363,0.804,0.859,0.804,1.238c0,0.827-0.782,1.711-2.279,1.711c-0.833,0-1.67-0.271-2.313-0.869l0.497-0.859
	c0.059,0.027,0.054,0.097,0.053,0.113c-0.002,0.048-0.007,0.081,0.033,0.128c0.174,0.197,0.775,0.763,1.714,0.763
	c0.783,0,1.409-0.354,1.409-0.866c0-0.198-0.095-0.487-0.547-0.698c-0.404-0.189-1.009-0.335-1.472-0.503
	c-0.298-0.107-1.335-0.456-1.335-1.412c0-0.818,0.833-1.53,2.106-1.53c0.811,0,1.538,0.302,2.044,0.859L118.493,109.005z"/>
<path d="M120.482,105.03h0.994c0.004,0.012,0.006,0.023,0.006,0.036c0,0.062-0.049,0.1-0.076,0.128
	c-0.041,0.043-0.043,0.074-0.043,0.115v3.178c0.402-0.61,1.078-1.098,1.821-1.098c0.624,0,1.186,0.351,1.458,0.968
	c0.195,0.44,0.198,0.893,0.198,1.32V113h-0.849v-3.302c0-0.387-0.002-0.857-0.299-1.212c-0.197-0.234-0.468-0.347-0.743-0.347
	c-0.579,0-1.106,0.484-1.315,0.763c-0.228,0.304-0.272,0.572-0.272,0.94V113h-0.88V105.03z"/>
<path d="M130.841,109.335c0.054,0.318,0.071,0.67,0.038,1.047h-3.889c0.065,1.641,1.126,2.044,1.86,2.044
	c0.544,0,1.061-0.216,1.418-0.616l0.476,0.466c-0.469,0.564-1.18,0.851-1.961,0.851c-1.488,0-2.631-0.978-2.631-2.803
	c0-2,1.211-2.936,2.52-2.936C129.57,107.388,130.593,107.864,130.841,109.335z M130.031,109.719
	c0.103-0.889-0.531-1.668-1.419-1.668c-0.588,0-1.422,0.376-1.593,1.668H130.031z"/>
<path d="M136.696,109.335c0.054,0.318,0.071,0.67,0.038,1.047h-3.889c0.065,1.641,1.126,2.044,1.86,2.044
	c0.544,0,1.061-0.216,1.418-0.616l0.476,0.466c-0.469,0.564-1.18,0.851-1.961,0.851c-1.488,0-2.631-0.978-2.631-2.803
	c0-2,1.211-2.936,2.52-2.936C135.425,107.388,136.447,107.864,136.696,109.335z M135.885,109.719
	c0.103-0.889-0.531-1.668-1.419-1.668c-0.588,0-1.422,0.376-1.593,1.668H135.885z"/>
<path d="M140.142,105.899c0.042,0.122-0.044,0.196-0.068,0.324c-0.057,0.304-0.139,1.291-0.139,1.291h1.791v0.714h-1.801
	c-0.069,0.712-0.104,1.428-0.104,2.144c0,0.795,0.029,1.005,0.035,1.054c0.088,0.658,0.513,0.884,0.922,0.884
	c0.337,0,0.762-0.154,1.228-0.5l0.269,0.684c-0.463,0.339-1.099,0.611-1.751,0.611c-0.56,0-0.988-0.217-1.248-0.583
	c-0.319-0.449-0.323-1-0.323-1.492c0-0.93,0.038-1.862,0.114-2.801h-1.283l0.01-0.704h1.304l0.104-1.47L140.142,105.899z"/>
<path d="M145.686,105.393h0.093l2.888,7.607h-0.87l-0.828-2.184h-2.37l-0.725,2.194h-0.828L145.686,105.393z M145.727,107.317
	l-0.963,2.847h2.019L145.727,107.317z"/>
<path d="M150.415,107.524v0.839c0.373-0.6,1.027-0.963,1.731-0.963c1.078,0,2.223,0.864,2.223,2.798
	c0,2.009-1.179,2.948-2.299,2.948c-0.666,0-1.279-0.329-1.645-0.871v2.723h-0.88l-0.01-7.474H150.415z M150.558,108.931
	c-0.121,0.284-0.145,0.617-0.145,1.08c0,0.793-0.003,1.244,0.157,1.614c0.216,0.498,0.733,0.756,1.253,0.756
	c0.513,0,1.647-0.276,1.647-2.005c0-1.988-1.161-2.239-1.642-2.239C151.276,108.137,150.767,108.438,150.558,108.931z"/>
<path d="M156.484,107.524v0.839c0.373-0.6,1.027-0.963,1.731-0.963c1.078,0,2.223,0.864,2.223,2.798
	c0,2.009-1.179,2.948-2.299,2.948c-0.666,0-1.279-0.329-1.645-0.871v2.723h-0.88l-0.01-7.474H156.484z M156.628,108.931
	c-0.121,0.284-0.145,0.617-0.145,1.08c0,0.793-0.003,1.244,0.157,1.614c0.216,0.498,0.733,0.756,1.253,0.756
	c0.513,0,1.647-0.276,1.647-2.005c0-1.988-1.161-2.239-1.642-2.239C157.346,108.137,156.837,108.438,156.628,108.931z"/>
<path d="M162.771,113.135c-0.394,0-0.709-0.311-0.709-0.688c0-0.377,0.315-0.688,0.709-0.688c0.395,0,0.709,0.312,0.709,0.688
	C163.481,112.824,163.166,113.135,162.771,113.135z"/>
<path d="M168.911,107.866c0.424-0.355,0.97-0.53,1.521-0.486l0.104,0.704c-0.104-0.019-0.21-0.027-0.316-0.027
	c-0.337,0-0.668,0.092-0.957,0.265c0.182,0.274,0.28,0.597,0.28,0.929c0,1.012-0.889,1.877-1.975,1.877
	c-0.237,0-0.473-0.042-0.696-0.125c-0.054,0.045-0.392,0.323-0.392,0.613c0,0.173,0.122,0.302,0.332,0.359
	c0.117,0.032,0.374,0.069,0.783,0.069c0.621,0,1.283-0.077,1.854,0.155c0.582,0.236,0.852,0.715,0.852,1.189
	c0,0.734-0.666,1.675-2.521,1.675c-1.92,0-2.478-0.7-2.478-1.298c0-0.436,0.303-0.838,0.891-1.214
	c-0.346-0.182-0.439-0.502-0.439-0.729c0-0.353,0.225-0.723,0.62-1.058c-0.502-0.327-0.81-0.885-0.81-1.484
	c0-1.07,0.958-1.938,2.048-1.938C168.113,107.343,168.573,107.529,168.911,107.866z M166.095,113.562
	c0,0.191,0.097,0.493,0.54,0.669c0.414,0.165,0.88,0.18,1.131,0.18c0.367,0,0.83-0.023,1.231-0.24
	c0.376-0.203,0.513-0.49,0.513-0.728c0-0.241-0.146-0.561-0.654-0.638c-0.314-0.047-0.756-0.017-1.161-0.031
	c-0.419-0.016-0.71-0.039-0.918-0.066C166.463,112.88,166.095,113.168,166.095,113.562z M167.56,110.434
	c0.666,0,1.207-0.54,1.207-1.204s-0.54-1.203-1.206-1.203s-1.207,0.539-1.207,1.203S166.894,110.434,167.56,110.434z"/>
<path d="M175.826,109.335c0.054,0.318,0.071,0.67,0.038,1.047h-3.889c0.065,1.641,1.126,2.044,1.86,2.044
	c0.544,0,1.061-0.216,1.418-0.616l0.476,0.466c-0.469,0.564-1.18,0.851-1.961,0.851c-1.488,0-2.631-0.978-2.631-2.803
	c0-2,1.211-2.936,2.52-2.936C174.555,107.388,175.577,107.864,175.826,109.335z M175.015,109.719
	c0.103-0.889-0.531-1.668-1.419-1.668c-0.588,0-1.422,0.376-1.593,1.668H175.015z"/>
<path d="M179.271,105.899c0.042,0.122-0.044,0.196-0.068,0.324c-0.057,0.304-0.139,1.291-0.139,1.291h1.791v0.714h-1.801
	c-0.069,0.712-0.104,1.428-0.104,2.144c0,0.795,0.029,1.005,0.035,1.054c0.088,0.658,0.513,0.884,0.922,0.884
	c0.337,0,0.762-0.154,1.228-0.5l0.269,0.684c-0.463,0.339-1.099,0.611-1.751,0.611c-0.56,0-0.988-0.217-1.248-0.583
	c-0.319-0.449-0.323-1-0.323-1.492c0-0.93,0.038-1.862,0.114-2.801h-1.283l0.01-0.704h1.304l0.104-1.47L179.271,105.899z"/>
<path d="M183.193,105.527c0.008,0.019,0.013,0.039,0.013,0.061c0,0.071-0.047,0.12-0.079,0.165
	c-0.044,0.062-0.047,0.103-0.047,0.157v4.523c0,0.371,0.007,0.732,0.18,1.101c0.269,0.575,0.833,0.887,1.425,0.887
	c0.583,0,1.146-0.305,1.422-0.876c0.184-0.38,0.192-0.757,0.192-1.143v-4.875h0.797v4.854c0,0.546-0.017,1.063-0.299,1.585
	c-0.425,0.783-1.265,1.169-2.128,1.169c-0.882,0-1.711-0.395-2.125-1.163c-0.277-0.513-0.292-1.021-0.292-1.55v-4.896H183.193z"/>
<path d="M190.62,107.515v4.792h1.284V113h-3.55v-0.693h1.397v-4.089h-1.325v-0.703H190.62z M190.827,105.75
	c0,0.339-0.277,0.615-0.621,0.615c-0.343,0-0.621-0.276-0.621-0.615c0-0.34,0.278-0.616,0.621-0.616S190.827,105.41,190.827,105.75z
	"/>
<path d="M196.941,105.744c-0.041,0.023-0.08,0.025-0.097,0.025c-0.048,0-0.086-0.014-0.128-0.014c-0.048,0-0.077,0.019-0.108,0.037
	c-1.401,0.826-2.231,2.354-2.231,4.067c0,1.863,0.966,3.626,2.605,4.578l-0.393,0.632c-1.9-0.997-3.046-2.991-3.046-5.17
	c0-2.195,1.18-4.074,3.036-4.891L196.941,105.744z"/>
<path d="M198.503,105.02c1.949,0.897,3.208,2.84,3.208,4.976c0,2.155-1.282,4.147-3.271,5.096l-0.228-0.725
	c1.621-0.857,2.65-2.531,2.65-4.337c0-1.779-1.003-3.422-2.588-4.265L198.503,105.02z"/>
<path d="M204.469,113.135c-0.394,0-0.709-0.311-0.709-0.688c0-0.377,0.315-0.688,0.709-0.688c0.395,0,0.709,0.312,0.709,0.688
	C205.178,112.824,204.863,113.135,204.469,113.135z"/>
<path d="M211.209,109.14c-0.096-0.072-0.029-0.185-0.076-0.277c-0.031-0.064-0.48-0.718-1.416-0.718
	c-1.008,0-1.811,0.78-1.811,2.028c0,1.28,0.814,2.175,1.883,2.175c0.549,0,1.08-0.242,1.451-0.662l0.496,0.579
	c-0.521,0.563-1.256,0.87-2.02,0.87c-1.551,0-2.699-1.221-2.699-2.872c0-1.645,1.143-2.853,2.753-2.853
	c0.882,0,1.618,0.383,2.049,1.015L211.209,109.14z"/>
<path d="M214.056,107.524l-0.031,1.056c0.358-0.783,1.171-1.188,1.972-1.188c0.615,0,1.12,0.245,1.465,0.598l-0.404,0.828
	c-0.092-0.088-0.131-0.183-0.203-0.274c-0.153-0.197-0.443-0.411-0.904-0.411c-0.388,0-1.041,0.137-1.539,0.924
	c-0.373,0.589-0.386,0.953-0.386,1.283v2.671h-0.869v-5.486H214.056z"/>
<path d="M222.881,109.335c0.055,0.318,0.071,0.67,0.038,1.047h-3.889c0.065,1.641,1.126,2.044,1.86,2.044
	c0.544,0,1.061-0.216,1.418-0.616l0.477,0.466c-0.47,0.564-1.18,0.851-1.962,0.851c-1.488,0-2.632-0.978-2.632-2.803
	c0-2,1.211-2.936,2.52-2.936C221.609,107.388,222.633,107.864,222.881,109.335z M222.07,109.719
	c0.104-0.889-0.531-1.668-1.419-1.668c-0.589,0-1.423,0.376-1.593,1.668H222.07z"/>
<path d="M226.381,107.4c0.85,0,1.545,0.311,1.905,0.91c0.253,0.421,0.269,0.846,0.269,1.295V113h-0.817v-0.601
	c-0.598,0.49-1.294,0.735-1.968,0.735c-1.145,0-1.844-0.747-1.844-1.551c0-0.607,0.393-1.248,1.258-1.565
	c0.696-0.256,1.561-0.248,2.367-0.248h0.176v-0.196c0-0.291,0.004-0.644-0.178-0.943c-0.154-0.254-0.477-0.527-1.127-0.527
	c-0.507,0-1.123,0.142-1.572,0.611l-0.424-0.549C224.938,107.638,225.642,107.4,226.381,107.4z M227.562,110.434
	c-0.569,0-1.304-0.036-1.801,0.082c-0.687,0.164-0.966,0.612-0.966,1.01c0,0.49,0.424,0.948,1.15,0.948
	c0.718,0,1.242-0.435,1.44-0.646c0.37-0.393,0.372-0.748,0.372-1.032v-0.361H227.562z"/>
<path d="M232.08,105.899c0.041,0.122-0.045,0.196-0.068,0.324c-0.057,0.304-0.139,1.291-0.139,1.291h1.79v0.714h-1.801
	c-0.069,0.712-0.104,1.428-0.104,2.144c0,0.795,0.029,1.005,0.035,1.054c0.088,0.658,0.514,0.884,0.922,0.884
	c0.338,0,0.763-0.154,1.229-0.5l0.269,0.684c-0.464,0.339-1.099,0.611-1.751,0.611c-0.561,0-0.988-0.217-1.248-0.583
	c-0.319-0.449-0.324-1-0.324-1.492c0-0.93,0.038-1.862,0.114-2.801h-1.283l0.011-0.704h1.304l0.104-1.47L232.08,105.899z"/>
<path d="M239.756,109.335c0.054,0.318,0.07,0.67,0.037,1.047h-3.889c0.066,1.641,1.127,2.044,1.86,2.044
	c0.544,0,1.062-0.216,1.419-0.616l0.476,0.466c-0.47,0.564-1.18,0.851-1.962,0.851c-1.488,0-2.631-0.978-2.631-2.803
	c0-2,1.211-2.936,2.52-2.936C238.484,107.388,239.507,107.864,239.756,109.335z M238.945,109.719
	c0.103-0.889-0.531-1.668-1.42-1.668c-0.588,0-1.422,0.376-1.592,1.668H238.945z"/>
<path d="M243.124,105.393h0.093l2.889,7.607h-0.87l-0.828-2.184h-2.37l-0.725,2.194h-0.828L243.124,105.393z M243.166,107.317
	l-0.963,2.847h2.018L243.166,107.317z"/>
<path d="M250.475,105.02h0.922c0.004,0.082-0.041,0.142-0.066,0.18c-0.043,0.066-0.048,0.1-0.048,0.162l0.011,7.132
	c0,0.165,0.008,0.339,0.051,0.507h-0.858c-0.044-0.133-0.052-0.273-0.052-0.403v-0.477c-0.344,0.615-0.992,1.001-1.692,1.001
	c-1.06,0-2.179-0.884-2.179-2.906c0-2.094,1.262-2.836,2.306-2.836c0.757,0,1.343,0.38,1.606,0.942V105.02z M247.4,110.073
	c0,1.805,0.921,2.287,1.541,2.287c0.572,0,1.139-0.382,1.35-1.039c0.09-0.277,0.115-0.584,0.115-0.997
	c0-0.611-0.025-0.918-0.093-1.172c-0.217-0.813-0.925-1.069-1.405-1.069C248.277,108.083,247.4,108.514,247.4,110.073z"/>
<path d="M256.468,105.02h0.921c0.005,0.082-0.041,0.142-0.065,0.18c-0.043,0.066-0.048,0.1-0.048,0.162l0.01,7.132
	c0,0.165,0.009,0.339,0.052,0.507h-0.858c-0.045-0.133-0.053-0.273-0.053-0.403v-0.477c-0.344,0.615-0.991,1.001-1.691,1.001
	c-1.06,0-2.18-0.884-2.18-2.906c0-2.094,1.262-2.836,2.307-2.836c0.757,0,1.343,0.38,1.606,0.942V105.02z M253.393,110.073
	c0,1.805,0.922,2.287,1.542,2.287c0.571,0,1.139-0.382,1.35-1.039c0.089-0.277,0.114-0.584,0.114-0.997
	c0-0.611-0.024-0.918-0.092-1.172c-0.217-0.813-0.926-1.069-1.406-1.069C254.271,108.083,253.393,108.514,253.393,110.073z"/>
<path d="M261.07,113.145c-1.381,0-2.568-1.175-2.568-2.842c0-1.692,1.197-2.902,2.594-2.902c1.245,0,2.439,0.993,2.439,2.885
	C263.535,112.102,262.367,113.145,261.07,113.145z M259.414,110.229c0,1.352,0.789,2.171,1.662,2.171c0.801,0,1.59-0.699,1.59-2.078
	c0-1.505-0.839-2.187-1.629-2.187C260.199,108.135,259.414,108.885,259.414,110.229z"/>
<path d="M264.822,107.524h0.879v0.963c0.402-0.61,1.078-1.098,1.821-1.098c0.624,0,1.187,0.351,1.459,0.968
	c0.194,0.44,0.198,0.893,0.198,1.32V113h-0.85v-3.302c0-0.387-0.002-0.857-0.299-1.212c-0.197-0.234-0.468-0.347-0.742-0.347
	c-0.58,0-1.106,0.484-1.315,0.763c-0.228,0.304-0.272,0.572-0.272,0.94V113h-0.879V107.524z"/>
<path d="M271.192,105.527l1.853,3.653l1.884-3.664h0.632v7.494h-0.797v-5.651l-1.615,3.012h-0.32l-1.512-2.971v5.61h-0.787v-7.483
	H271.192z"/>
<path d="M281.355,109.335c0.053,0.318,0.07,0.67,0.037,1.047h-3.889c0.065,1.641,1.127,2.044,1.859,2.044
	c0.545,0,1.062-0.216,1.419-0.616l0.476,0.466c-0.469,0.564-1.18,0.851-1.961,0.851c-1.488,0-2.631-0.978-2.631-2.803
	c0-2,1.211-2.936,2.52-2.936C280.084,107.388,281.105,107.864,281.355,109.335z M280.544,109.719
	c0.103-0.889-0.531-1.668-1.419-1.668c-0.588,0-1.422,0.376-1.593,1.668H280.544z"/>
<path d="M282.779,107.524h0.879v0.963c0.402-0.61,1.078-1.098,1.821-1.098c0.624,0,1.187,0.351,1.459,0.968
	c0.194,0.44,0.198,0.893,0.198,1.32V113h-0.85v-3.302c0-0.387-0.002-0.857-0.299-1.212c-0.197-0.234-0.468-0.347-0.742-0.347
	c-0.58,0-1.106,0.484-1.315,0.763c-0.228,0.304-0.272,0.572-0.272,0.94V113h-0.879V107.524z"/>
<path d="M289.521,107.524v3.054c0,0.367-0.002,0.796,0.193,1.183c0.218,0.433,0.617,0.67,1.047,0.67
	c0.527,0,1.015-0.354,1.266-0.812c0.184-0.334,0.216-0.66,0.216-1.081v-3.013h0.87v4.979c0,0.161,0.009,0.333,0.062,0.497h-0.911
	c-0.022-0.142-0.023-0.284-0.021-0.425l0.011-0.413c-0.357,0.604-1.006,0.973-1.692,0.973c-0.713,0-1.383-0.398-1.703-1.118
	c-0.214-0.48-0.219-0.962-0.218-1.438l0.011-3.054H289.521z"/>
<path d="M298.35,105.744c-0.041,0.023-0.08,0.025-0.098,0.025c-0.047,0-0.086-0.014-0.127-0.014c-0.049,0-0.077,0.019-0.109,0.037
	c-1.4,0.826-2.23,2.354-2.23,4.067c0,1.863,0.966,3.626,2.605,4.578l-0.394,0.632c-1.899-0.997-3.046-2.991-3.046-5.17
	c0-2.195,1.18-4.074,3.035-4.891L298.35,105.744z"/>
<path d="M299.912,105.02c1.948,0.897,3.208,2.84,3.208,4.976c0,2.155-1.282,4.147-3.271,5.096l-0.228-0.725
	c1.62-0.857,2.649-2.531,2.649-4.337c0-1.779-1.002-3.422-2.588-4.265L299.912,105.02z"/>
<path d="M105.861,126.135c-0.394,0-0.709-0.311-0.709-0.688c0-0.377,0.315-0.688,0.709-0.688c0.395,0,0.709,0.312,0.709,0.688
	C106.571,125.824,106.256,126.135,105.861,126.135z"/>
<path d="M111.033,120.4c0.851,0,1.546,0.311,1.906,0.91c0.252,0.421,0.269,0.846,0.269,1.295V126h-0.818v-0.601
	c-0.598,0.49-1.294,0.735-1.967,0.735c-1.145,0-1.844-0.747-1.844-1.551c0-0.607,0.393-1.248,1.257-1.565
	c0.697-0.256,1.561-0.248,2.368-0.248h0.176v-0.196c0-0.291,0.004-0.644-0.178-0.943c-0.155-0.254-0.477-0.527-1.127-0.527
	c-0.506,0-1.123,0.142-1.572,0.611l-0.424-0.549C109.589,120.638,110.294,120.4,111.033,120.4z M112.214,123.434
	c-0.569,0-1.303-0.036-1.801,0.082c-0.687,0.164-0.966,0.612-0.966,1.01c0,0.49,0.424,0.948,1.151,0.948
	c0.718,0,1.242-0.435,1.44-0.646c0.37-0.393,0.372-0.748,0.372-1.032v-0.361H112.214z"/>
<path d="M118.417,118.02h0.921c0.005,0.082-0.041,0.142-0.065,0.18c-0.043,0.066-0.048,0.1-0.048,0.162l0.01,7.132
	c0,0.165,0.009,0.339,0.052,0.507h-0.859c-0.044-0.133-0.052-0.273-0.052-0.403v-0.477c-0.344,0.615-0.992,1.001-1.692,1.001
	c-1.059,0-2.179-0.884-2.179-2.906c0-2.094,1.261-2.836,2.306-2.836c0.757,0,1.343,0.38,1.607,0.942V118.02z M115.341,123.073
	c0,1.805,0.921,2.287,1.542,2.287c0.571,0,1.139-0.382,1.35-1.039c0.089-0.277,0.114-0.584,0.114-0.997
	c0-0.611-0.024-0.918-0.092-1.172c-0.217-0.813-0.925-1.069-1.405-1.069C116.219,121.083,115.341,121.514,115.341,123.073z"/>
<path d="M124.409,118.02h0.921c0.005,0.082-0.041,0.142-0.065,0.18c-0.043,0.066-0.048,0.1-0.048,0.162l0.011,7.132
	c0,0.165,0.008,0.339,0.051,0.507h-0.859c-0.044-0.133-0.052-0.273-0.052-0.403v-0.477c-0.344,0.615-0.992,1.001-1.692,1.001
	c-1.059,0-2.179-0.884-2.179-2.906c0-2.094,1.261-2.836,2.306-2.836c0.757,0,1.343,0.38,1.607,0.942V118.02z M121.334,123.073
	c0,1.805,0.921,2.287,1.542,2.287c0.571,0,1.139-0.382,1.35-1.039c0.089-0.277,0.114-0.584,0.114-0.997
	c0-0.611-0.024-0.918-0.092-1.172c-0.217-0.813-0.925-1.069-1.405-1.069C122.212,121.083,121.334,121.514,121.334,123.073z"/>
<path d="M130.304,118.527v0.703h-1.48v6.086h1.552v0.694h-3.86v-0.704h1.47v-6.076h-1.387v-0.703H130.304z"/>
<path d="M133.564,118.899c0.042,0.122-0.044,0.196-0.068,0.324c-0.057,0.304-0.139,1.291-0.139,1.291h1.791v0.714h-1.801
	c-0.069,0.712-0.104,1.428-0.104,2.144c0,0.795,0.029,1.005,0.035,1.054c0.088,0.658,0.513,0.884,0.922,0.884
	c0.337,0,0.762-0.154,1.228-0.5l0.269,0.684c-0.463,0.339-1.099,0.611-1.751,0.611c-0.56,0-0.988-0.217-1.248-0.583
	c-0.319-0.449-0.323-1-0.323-1.492c0-0.93,0.038-1.862,0.114-2.801h-1.283l0.01-0.704h1.304l0.104-1.47L133.564,118.899z"/>
<path d="M141.241,122.335c0.054,0.318,0.071,0.67,0.038,1.047h-3.889c0.065,1.641,1.126,2.044,1.86,2.044
	c0.544,0,1.061-0.216,1.418-0.616l0.476,0.466c-0.469,0.564-1.18,0.851-1.961,0.851c-1.488,0-2.631-0.978-2.631-2.803
	c0-2,1.211-2.936,2.52-2.936C139.969,120.388,140.992,120.864,141.241,122.335z M140.43,122.719
	c0.103-0.889-0.531-1.668-1.419-1.668c-0.588,0-1.422,0.376-1.593,1.668H140.43z"/>
<path d="M142.482,120.524h0.797l-0.01,0.538c0.252-0.383,0.672-0.673,1.121-0.673c0.491,0,0.884,0.345,0.97,0.798
	c0.212-0.485,0.702-0.798,1.228-0.798c0.308,0,0.647,0.119,0.857,0.436c0.243,0.366,0.224,0.83,0.224,1.283v3.902h-0.818v-3.893
	c0-0.249,0.027-0.562-0.074-0.793c-0.088-0.202-0.258-0.306-0.435-0.306c-0.333,0-0.546,0.341-0.637,0.494
	c-0.202,0.341-0.23,0.576-0.23,0.863V126h-0.808v-3.809c0-0.227,0.017-0.49-0.054-0.72c-0.093-0.301-0.312-0.422-0.508-0.422
	c-0.219,0-0.464,0.143-0.663,0.511c-0.155,0.288-0.173,0.527-0.173,0.786V126h-0.787V120.524z"/>
<path d="M152.688,118.744c-0.041,0.023-0.08,0.025-0.097,0.025c-0.048,0-0.086-0.014-0.128-0.014c-0.048,0-0.077,0.019-0.108,0.037
	c-1.401,0.826-2.231,2.354-2.231,4.067c0,1.863,0.966,3.626,2.605,4.578l-0.393,0.632c-1.9-0.997-3.046-2.991-3.046-5.17
	c0-2.195,1.18-4.074,3.036-4.891L152.688,118.744z"/>
<path fill="#AA1111" d="M155.533,120.266l-0.29,0.797l-0.663-0.165l0.259-0.808c0.065-0.202,0.117-0.428,0.117-0.663
	c0-0.261-0.075-0.5-0.075-0.76c0-0.475,0.281-0.659,0.512-0.659c0.236,0,0.54,0.197,0.54,0.74
	C155.934,119.063,155.832,119.445,155.533,120.266z"/>
<path fill="#AA1111" d="M161.654,120.132c-0.026-0.009-0.061-0.032-0.063-0.099c-0.001-0.044,0.004-0.069-0.027-0.115
	c-0.29-0.422-0.825-0.74-1.521-0.74c-0.855,0-1.35,0.522-1.35,1.096c0,0.306,0.138,0.748,0.764,1.114
	c0.684,0.4,1.737,0.612,2.387,1.225c0.468,0.44,0.581,0.962,0.581,1.354c0,0.94-0.672,2.159-2.491,2.159
	c-0.922,0-1.759-0.323-2.347-0.963l0.497-0.859c0.058,0.029,0.055,0.095,0.055,0.114c-0.001,0.05-0.004,0.08,0.034,0.128
	c0.334,0.423,0.966,0.824,1.786,0.824c1.085,0,1.632-0.705,1.632-1.355c0-0.334-0.137-0.725-0.627-1.032
	c-0.565-0.354-1.644-0.612-2.335-1.123c-0.623-0.46-0.794-1.022-0.794-1.458c0-1.022,0.927-1.915,2.277-1.915
	c0.814,0,1.566,0.33,2.073,0.932L161.654,120.132z"/>
<path fill="#AA1111" d="M163.601,118.03h0.994c0.004,0.012,0.006,0.023,0.006,0.036c0,0.062-0.049,0.1-0.076,0.128
	c-0.041,0.043-0.043,0.074-0.043,0.115v3.178c0.402-0.61,1.078-1.098,1.821-1.098c0.624,0,1.186,0.351,1.458,0.968
	c0.195,0.44,0.198,0.893,0.198,1.32V126h-0.849v-3.302c0-0.387-0.002-0.857-0.299-1.212c-0.197-0.234-0.468-0.347-0.743-0.347
	c-0.579,0-1.106,0.484-1.315,0.763c-0.228,0.304-0.272,0.572-0.272,0.94V126h-0.88V118.03z"/>
<path fill="#AA1111" d="M171.77,126.145c-1.381,0-2.568-1.175-2.568-2.842c0-1.692,1.197-2.902,2.594-2.902
	c1.245,0,2.439,0.993,2.439,2.885C174.235,125.102,173.067,126.145,171.77,126.145z M170.114,123.229
	c0,1.352,0.79,2.171,1.663,2.171c0.8,0,1.589-0.699,1.589-2.078c0-1.505-0.839-2.187-1.629-2.187
	C170.898,121.135,170.114,121.885,170.114,123.229z"/>
<path fill="#AA1111" d="M175.783,120.515c0.032,0.093,0,0.173-0.02,0.237c-0.03,0.096-0.027,0.139-0.011,0.218l0.797,3.954
	l0.942-3.892h0.528l1.159,3.881c0.472-3.117,0.529-3.727,0.507-4.389h0.797c-0.236,1.839-0.54,3.669-0.911,5.486h-0.808
	l-1.014-3.551l-0.963,3.551h-0.776l-1.107-5.496H175.783z"/>
<path fill="#AA1111" d="M183.226,120.266l-0.29,0.797l-0.663-0.165l0.259-0.808c0.065-0.202,0.117-0.428,0.117-0.663
	c0-0.261-0.075-0.5-0.075-0.76c0-0.475,0.281-0.659,0.512-0.659c0.236,0,0.54,0.197,0.54,0.74
	C183.626,119.063,183.524,119.445,183.226,120.266z"/>
<path d="M185.681,128.019l-0.414-0.362c0.284-0.262,0.486-0.554,0.603-0.746c0.059-0.097,0.178-0.301,0.178-0.5
	c0-0.247-0.177-0.357-0.281-0.427c-0.106-0.07-0.334-0.208-0.334-0.53c0-0.362,0.296-0.684,0.69-0.684
	c0.427,0,0.833,0.381,0.833,0.994C186.955,126.388,186.516,127.17,185.681,128.019z"/>
<path fill="#AA1111" d="M198.715,120.266l-0.29,0.797l-0.663-0.165l0.259-0.808c0.065-0.202,0.117-0.428,0.117-0.663
	c0-0.261-0.075-0.5-0.075-0.76c0-0.475,0.281-0.659,0.512-0.659c0.236,0,0.54,0.197,0.54,0.74
	C199.116,119.063,199.014,119.445,198.715,120.266z"/>
<path fill="#AA1111" d="M204.501,122.005c-0.021-0.005-0.063-0.024-0.062-0.097c0-0.042,0.008-0.07-0.025-0.114
	c-0.208-0.27-0.74-0.753-1.521-0.753c-0.62,0-1.154,0.308-1.154,0.749c0,0.184,0.095,0.449,0.542,0.666
	c0.512,0.247,1.395,0.371,2.014,0.719c0.648,0.363,0.804,0.859,0.804,1.238c0,0.827-0.782,1.711-2.279,1.711
	c-0.833,0-1.67-0.271-2.313-0.869l0.497-0.859c0.059,0.027,0.054,0.097,0.053,0.113c-0.002,0.048-0.007,0.081,0.033,0.128
	c0.174,0.197,0.775,0.763,1.714,0.763c0.783,0,1.409-0.354,1.409-0.866c0-0.198-0.095-0.487-0.547-0.698
	c-0.404-0.189-1.009-0.335-1.472-0.503c-0.298-0.107-1.335-0.456-1.335-1.412c0-0.818,0.833-1.53,2.106-1.53
	c0.811,0,1.538,0.302,2.044,0.859L204.501,122.005z"/>
<path fill="#AA1111" d="M206.491,118.03h0.993c0.004,0.012,0.006,0.023,0.006,0.036c0,0.062-0.049,0.1-0.076,0.128
	c-0.041,0.043-0.043,0.074-0.043,0.115v3.178c0.402-0.61,1.078-1.098,1.821-1.098c0.624,0,1.187,0.351,1.458,0.968
	c0.195,0.44,0.198,0.893,0.198,1.32V126H210v-3.302c0-0.387-0.002-0.857-0.299-1.212c-0.197-0.234-0.469-0.347-0.743-0.347
	c-0.579,0-1.106,0.484-1.315,0.763c-0.227,0.304-0.271,0.572-0.271,0.94V126h-0.88V118.03z"/>
<path fill="#AA1111" d="M214.66,126.145c-1.381,0-2.568-1.175-2.568-2.842c0-1.692,1.197-2.902,2.594-2.902
	c1.246,0,2.439,0.993,2.439,2.885C217.125,125.102,215.958,126.145,214.66,126.145z M213.004,123.229
	c0,1.352,0.79,2.171,1.663,2.171c0.8,0,1.589-0.699,1.589-2.078c0-1.505-0.838-2.187-1.629-2.187
	C213.789,121.135,213.004,121.885,213.004,123.229z"/>
<path fill="#AA1111" d="M218.674,120.515c0.031,0.093,0,0.173-0.02,0.237c-0.03,0.096-0.027,0.139-0.012,0.218l0.797,3.954
	l0.941-3.892h0.528l1.159,3.881c0.473-3.117,0.529-3.727,0.508-4.389h0.797c-0.236,1.839-0.541,3.669-0.911,5.486h-0.808
	l-1.014-3.551l-0.963,3.551h-0.776l-1.107-5.496H218.674z"/>
<path fill="#AA1111" d="M228.156,120.132c-0.025-0.009-0.061-0.032-0.062-0.099c-0.002-0.044,0.004-0.069-0.027-0.115
	c-0.29-0.422-0.825-0.74-1.521-0.74c-0.855,0-1.35,0.522-1.35,1.096c0,0.306,0.139,0.748,0.764,1.114
	c0.684,0.4,1.736,0.612,2.387,1.225c0.468,0.44,0.58,0.962,0.58,1.354c0,0.94-0.672,2.159-2.49,2.159
	c-0.922,0-1.76-0.323-2.347-0.963l0.497-0.859c0.057,0.029,0.055,0.095,0.055,0.114c-0.002,0.05-0.004,0.08,0.033,0.128
	c0.334,0.423,0.966,0.824,1.786,0.824c1.085,0,1.632-0.705,1.632-1.355c0-0.334-0.137-0.725-0.627-1.032
	c-0.564-0.354-1.644-0.612-2.336-1.123c-0.623-0.46-0.794-1.022-0.794-1.458c0-1.022,0.927-1.915,2.276-1.915
	c0.814,0,1.566,0.33,2.072,0.932L228.156,120.132z"/>
<path fill="#AA1111" d="M232.286,120.515v4.792h1.284V126h-3.551v-0.693h1.397v-4.089h-1.325v-0.703H232.286z M232.493,118.75
	c0,0.339-0.277,0.615-0.621,0.615c-0.343,0-0.621-0.276-0.621-0.615c0-0.34,0.278-0.616,0.621-0.616S232.493,118.41,232.493,118.75z
	"/>
<path fill="#AA1111" d="M238.602,118.02h0.922c0.004,0.082-0.041,0.142-0.066,0.18c-0.043,0.066-0.048,0.1-0.048,0.162l0.011,7.132
	c0,0.165,0.008,0.339,0.051,0.507h-0.858c-0.044-0.133-0.052-0.273-0.052-0.403v-0.477c-0.344,0.615-0.992,1.001-1.692,1.001
	c-1.06,0-2.179-0.884-2.179-2.906c0-2.094,1.262-2.836,2.306-2.836c0.757,0,1.343,0.38,1.606,0.942V118.02z M235.527,123.073
	c0,1.805,0.921,2.287,1.541,2.287c0.572,0,1.139-0.382,1.35-1.039c0.09-0.277,0.115-0.584,0.115-0.997
	c0-0.611-0.025-0.918-0.093-1.172c-0.217-0.813-0.925-1.069-1.405-1.069C236.404,121.083,235.527,121.514,235.527,123.073z"/>
<path fill="#AA1111" d="M245.398,122.335c0.054,0.318,0.07,0.67,0.037,1.047h-3.889c0.066,1.641,1.127,2.044,1.86,2.044
	c0.544,0,1.062-0.216,1.419-0.616l0.476,0.466c-0.47,0.564-1.18,0.851-1.962,0.851c-1.488,0-2.631-0.978-2.631-2.803
	c0-2,1.211-2.936,2.52-2.936C244.127,120.388,245.149,120.864,245.398,122.335z M244.588,122.719
	c0.103-0.889-0.531-1.668-1.42-1.668c-0.588,0-1.422,0.376-1.592,1.668H244.588z"/>
<path fill="#AA1111" d="M247.787,118.02c0.02,0.072-0.045,0.119-0.066,0.135c-0.056,0.045-0.068,0.071-0.068,0.135v3.074
	c0.348-0.603,0.99-0.974,1.688-0.974c1.078,0,2.204,0.89,2.204,2.804c0,1.987-1.167,2.942-2.29,2.942
	c-0.658,0-1.263-0.325-1.623-0.86l-0.3,0.725h-0.559v-7.98H247.787z M247.795,121.933c-0.124,0.302-0.143,0.654-0.143,1.149
	c0,0.475-0.004,0.797,0.033,1.082c0.139,1.045,0.966,1.194,1.34,1.194c0.537,0,1.621-0.306,1.621-1.984
	c0-1.935-1.092-2.242-1.607-2.242C248.498,121.132,248,121.438,247.795,121.933z"/>
<path fill="#AA1111" d="M254.973,120.4c0.851,0,1.546,0.311,1.906,0.91c0.252,0.421,0.268,0.846,0.268,1.295V126h-0.816v-0.601
	c-0.598,0.49-1.295,0.735-1.968,0.735c-1.146,0-1.844-0.747-1.844-1.551c0-0.607,0.393-1.248,1.257-1.565
	c0.697-0.256,1.561-0.248,2.367-0.248h0.177v-0.196c0-0.291,0.004-0.644-0.179-0.943c-0.154-0.254-0.477-0.527-1.127-0.527
	c-0.506,0-1.123,0.142-1.572,0.611l-0.424-0.549C253.529,120.638,254.234,120.4,254.973,120.4z M256.154,123.434
	c-0.57,0-1.304-0.036-1.801,0.082c-0.688,0.164-0.967,0.612-0.967,1.01c0,0.49,0.424,0.948,1.15,0.948
	c0.719,0,1.242-0.435,1.441-0.646c0.369-0.393,0.371-0.748,0.371-1.032v-0.361H256.154z"/>
<path fill="#AA1111" d="M259.797,120.524l-0.031,1.056c0.359-0.783,1.172-1.188,1.973-1.188c0.615,0,1.119,0.245,1.465,0.598
	l-0.404,0.828c-0.092-0.088-0.131-0.183-0.203-0.274c-0.154-0.197-0.443-0.411-0.904-0.411c-0.389,0-1.042,0.137-1.54,0.924
	c-0.372,0.589-0.386,0.953-0.386,1.283v2.671h-0.869v-5.486H259.797z"/>
<path fill="#AA1111" d="M266.051,120.266l-0.289,0.797l-0.663-0.165l0.259-0.808c0.064-0.202,0.117-0.428,0.117-0.663
	c0-0.261-0.075-0.5-0.075-0.76c0-0.475,0.28-0.659,0.512-0.659c0.235,0,0.54,0.197,0.54,0.74
	C266.451,119.063,266.35,119.445,266.051,120.266z"/>
<path d="M268.571,118.02c1.948,0.897,3.208,2.84,3.208,4.976c0,2.155-1.281,4.147-3.27,5.096l-0.229-0.725
	c1.621-0.857,2.65-2.531,2.65-4.337c0-1.779-1.003-3.422-2.588-4.265L268.571,118.02z"/>
<path d="M105.861,139.135c-0.394,0-0.709-0.311-0.709-0.688c0-0.377,0.315-0.688,0.709-0.688c0.395,0,0.709,0.312,0.709,0.688
	C106.571,138.824,106.256,139.135,105.861,139.135z"/>
<path d="M111.033,133.4c0.851,0,1.546,0.311,1.906,0.91c0.252,0.421,0.269,0.846,0.269,1.295V139h-0.818v-0.601
	c-0.598,0.49-1.294,0.735-1.967,0.735c-1.145,0-1.844-0.747-1.844-1.551c0-0.607,0.393-1.248,1.257-1.565
	c0.697-0.256,1.561-0.248,2.368-0.248h0.176v-0.196c0-0.291,0.004-0.644-0.178-0.943c-0.155-0.254-0.477-0.527-1.127-0.527
	c-0.506,0-1.123,0.142-1.572,0.611l-0.424-0.549C109.589,133.638,110.294,133.4,111.033,133.4z M112.214,136.434
	c-0.569,0-1.303-0.036-1.801,0.082c-0.687,0.164-0.966,0.612-0.966,1.01c0,0.49,0.424,0.948,1.151,0.948
	c0.718,0,1.242-0.435,1.44-0.646c0.37-0.393,0.372-0.748,0.372-1.032v-0.361H112.214z"/>
<path d="M118.417,131.02h0.921c0.005,0.082-0.041,0.142-0.065,0.18c-0.043,0.066-0.048,0.1-0.048,0.162l0.01,7.132
	c0,0.165,0.009,0.339,0.052,0.507h-0.859c-0.044-0.133-0.052-0.273-0.052-0.403v-0.477c-0.344,0.615-0.992,1.001-1.692,1.001
	c-1.059,0-2.179-0.884-2.179-2.906c0-2.094,1.261-2.836,2.306-2.836c0.757,0,1.343,0.38,1.607,0.942V131.02z M115.341,136.073
	c0,1.805,0.921,2.287,1.542,2.287c0.571,0,1.139-0.382,1.35-1.039c0.089-0.277,0.114-0.584,0.114-0.997
	c0-0.611-0.024-0.918-0.092-1.172c-0.217-0.813-0.925-1.069-1.405-1.069C116.219,134.083,115.341,134.514,115.341,136.073z"/>
<path d="M124.409,131.02h0.921c0.005,0.082-0.041,0.142-0.065,0.18c-0.043,0.066-0.048,0.1-0.048,0.162l0.011,7.132
	c0,0.165,0.008,0.339,0.051,0.507h-0.859c-0.044-0.133-0.052-0.273-0.052-0.403v-0.477c-0.344,0.615-0.992,1.001-1.692,1.001
	c-1.059,0-2.179-0.884-2.179-2.906c0-2.094,1.261-2.836,2.306-2.836c0.757,0,1.343,0.38,1.607,0.942V131.02z M121.334,136.073
	c0,1.805,0.921,2.287,1.542,2.287c0.571,0,1.139-0.382,1.35-1.039c0.089-0.277,0.114-0.584,0.114-0.997
	c0-0.611-0.024-0.918-0.092-1.172c-0.217-0.813-0.925-1.069-1.405-1.069C122.212,134.083,121.334,134.514,121.334,136.073z"/>
<path d="M131.361,131.517v0.756h-2.205v6.738h-0.849v-6.738h-2.122v-0.756H131.361z"/>
<path d="M133.831,139.145c-1.381,0-2.568-1.175-2.568-2.842c0-1.692,1.197-2.902,2.593-2.902c1.245,0,2.439,0.993,2.439,2.885
	C136.296,138.102,135.128,139.145,133.831,139.145z M132.175,136.229c0,1.352,0.79,2.171,1.663,2.171c0.8,0,1.589-0.699,1.589-2.078
	c0-1.505-0.839-2.187-1.629-2.187C132.959,134.135,132.175,134.885,132.175,136.229z"/>
<path d="M138.31,131.527c0.008,0.019,0.013,0.039,0.013,0.061c0,0.071-0.047,0.12-0.079,0.165c-0.044,0.062-0.047,0.103-0.047,0.157
	v4.523c0,0.371,0.007,0.732,0.18,1.101c0.269,0.575,0.833,0.887,1.425,0.887c0.583,0,1.146-0.305,1.422-0.876
	c0.184-0.38,0.192-0.757,0.192-1.143v-4.875h0.797v4.854c0,0.546-0.017,1.063-0.299,1.585c-0.425,0.783-1.265,1.169-2.128,1.169
	c-0.882,0-1.711-0.395-2.125-1.163c-0.277-0.513-0.292-1.021-0.292-1.55v-4.896H138.31z"/>
<path d="M145.736,133.515v4.792h1.284V139h-3.55v-0.693h1.397v-4.089h-1.325v-0.703H145.736z M145.943,131.75
	c0,0.339-0.277,0.615-0.621,0.615c-0.343,0-0.621-0.276-0.621-0.615c0-0.34,0.278-0.616,0.621-0.616S145.943,131.41,145.943,131.75z
	"/>
<path d="M152.057,131.744c-0.041,0.023-0.08,0.025-0.097,0.025c-0.048,0-0.086-0.014-0.128-0.014c-0.048,0-0.077,0.019-0.108,0.037
	c-1.401,0.826-2.231,2.354-2.231,4.067c0,1.863,0.966,3.626,2.605,4.578l-0.393,0.632c-1.9-0.997-3.046-2.991-3.046-5.17
	c0-2.195,1.18-4.074,3.036-4.891L152.057,131.744z"/>
<path d="M153.62,131.02c1.949,0.897,3.208,2.84,3.208,4.976c0,2.155-1.282,4.147-3.271,5.096l-0.228-0.725
	c1.621-0.857,2.65-2.531,2.65-4.337c0-1.779-1.003-3.422-2.588-4.265L153.62,131.02z"/>
<path d="M159.242,141.019l-0.414-0.362c0.284-0.262,0.486-0.554,0.603-0.746c0.059-0.097,0.178-0.301,0.178-0.5
	c0-0.247-0.177-0.357-0.281-0.427c-0.106-0.07-0.334-0.208-0.334-0.53c0-0.362,0.296-0.684,0.69-0.684
	c0.427,0,0.833,0.381,0.833,0.994C160.517,139.388,160.077,140.17,159.242,141.019z M159.712,135.306
	c-0.394,0-0.709-0.312-0.709-0.689c0-0.377,0.315-0.688,0.709-0.688c0.395,0,0.709,0.311,0.709,0.688
	C160.422,134.994,160.107,135.306,159.712,135.306z"/>
<path fill="#770088" d="M79.171,172.524h0.879v0.963c0.402-0.61,1.078-1.098,1.821-1.098c0.625,0,1.186,0.351,1.459,0.968
	c0.195,0.44,0.198,0.893,0.198,1.32V178H82.68v-3.302c0-0.387-0.003-0.857-0.299-1.212c-0.197-0.234-0.468-0.347-0.743-0.347
	c-0.58,0-1.106,0.484-1.315,0.763c-0.228,0.304-0.272,0.572-0.272,0.94V178h-0.879V172.524z"/>
<path fill="#770088" d="M89.064,174.14c-0.095-0.072-0.03-0.185-0.076-0.277c-0.032-0.064-0.481-0.718-1.417-0.718
	c-1.007,0-1.81,0.78-1.81,2.028c0,1.28,0.814,2.175,1.882,2.175c0.549,0,1.081-0.242,1.451-0.662l0.497,0.579
	c-0.522,0.563-1.256,0.87-2.021,0.87c-1.55,0-2.699-1.221-2.699-2.872c0-1.645,1.144-2.853,2.753-2.853
	c0.881,0,1.618,0.383,2.049,1.015L89.064,174.14z"/>
<path fill="#770088" d="M80.511,185.515c0.021,0.098-0.039,0.161-0.039,0.234c0,0.029,0.008,0.051,0.018,0.076l1.584,4.005
	l0.879-2.039c0.311-0.719,0.601-1.479,0.746-2.276h0.776c-0.182,0.835-0.49,1.634-0.817,2.401l-1.335,3.125H81.65l-2.174-5.526
	H80.511z"/>
<path fill="#770088" d="M87.651,185.4c0.851,0,1.546,0.311,1.906,0.91c0.252,0.421,0.269,0.846,0.269,1.295V191h-0.818v-0.601
	c-0.598,0.49-1.294,0.735-1.967,0.735c-1.145,0-1.844-0.747-1.844-1.551c0-0.607,0.393-1.248,1.257-1.565
	c0.697-0.256,1.561-0.248,2.368-0.248h0.176v-0.196c0-0.291,0.004-0.644-0.178-0.943c-0.155-0.254-0.477-0.527-1.127-0.527
	c-0.506,0-1.123,0.142-1.572,0.611l-0.424-0.549C86.208,185.638,86.912,185.4,87.651,185.4z M88.832,188.434
	c-0.569,0-1.303-0.036-1.801,0.082c-0.687,0.164-0.966,0.612-0.966,1.01c0,0.49,0.424,0.948,1.151,0.948
	c0.718,0,1.242-0.435,1.44-0.646c0.37-0.393,0.372-0.748,0.372-1.032v-0.361H88.832z"/>
<path d="M315.725,191.145c-1.381,0-2.568-1.175-2.568-2.842c0-1.692,1.197-2.902,2.594-2.902c1.245,0,2.439,0.993,2.439,2.885
	C318.189,190.102,317.021,191.145,315.725,191.145z M314.068,188.229c0,1.352,0.789,2.171,1.662,2.171
	c0.801,0,1.59-0.699,1.59-2.078c0-1.505-0.839-2.187-1.629-2.187C314.854,186.135,314.068,186.885,314.068,188.229z"/>
<path d="M319.293,185.524h0.797l-0.01,0.538c0.252-0.383,0.672-0.673,1.121-0.673c0.491,0,0.884,0.345,0.97,0.798
	c0.212-0.485,0.702-0.798,1.228-0.798c0.309,0,0.646,0.119,0.857,0.436c0.242,0.366,0.223,0.83,0.223,1.283v3.902h-0.817v-3.893
	c0-0.249,0.026-0.562-0.074-0.793c-0.089-0.202-0.258-0.306-0.435-0.306c-0.333,0-0.547,0.341-0.638,0.494
	c-0.202,0.341-0.229,0.576-0.229,0.863V191h-0.809v-3.809c0-0.227,0.018-0.49-0.053-0.72c-0.094-0.301-0.312-0.422-0.508-0.422
	c-0.22,0-0.465,0.143-0.663,0.511c-0.155,0.288-0.173,0.527-0.173,0.786V191h-0.787V185.524z"/>
<path d="M330.128,183.517v0.735h-3.457v2.35h2.794v0.724h-2.794V191h-0.849v-7.483H330.128z"/>
<path d="M83.688,211.132c-0.026-0.009-0.061-0.032-0.063-0.099c-0.001-0.044,0.004-0.069-0.027-0.115
	c-0.29-0.422-0.825-0.74-1.521-0.74c-0.855,0-1.35,0.522-1.35,1.096c0,0.306,0.138,0.748,0.764,1.114
	c0.684,0.4,1.737,0.612,2.387,1.225c0.468,0.44,0.581,0.962,0.581,1.354c0,0.94-0.672,2.159-2.491,2.159
	c-0.922,0-1.759-0.323-2.347-0.963l0.497-0.859c0.058,0.029,0.055,0.095,0.055,0.114c-0.001,0.05-0.004,0.08,0.034,0.128
	c0.334,0.423,0.966,0.824,1.786,0.824c1.085,0,1.632-0.705,1.632-1.355c0-0.334-0.137-0.725-0.627-1.032
	c-0.565-0.354-1.644-0.612-2.335-1.123c-0.623-0.46-0.794-1.022-0.794-1.458c0-1.022,0.927-1.915,2.277-1.915
	c0.814,0,1.566,0.33,2.072,0.932L83.688,211.132z"/>
<path d="M86.433,211.524v0.839c0.373-0.6,1.027-0.963,1.731-0.963c1.078,0,2.223,0.864,2.223,2.798c0,2.009-1.179,2.948-2.299,2.948
	c-0.666,0-1.279-0.329-1.645-0.871v2.723h-0.88l-0.01-7.474H86.433z M86.577,212.931c-0.121,0.284-0.145,0.617-0.145,1.08
	c0,0.793-0.003,1.244,0.157,1.614c0.216,0.498,0.733,0.756,1.253,0.756c0.513,0,1.647-0.276,1.647-2.005
	c0-1.988-1.161-2.239-1.642-2.239C87.295,212.137,86.786,212.438,86.577,212.931z"/>
<g>
</g>
<g>
</g>
<g>
</g>
<g>
</g>
<g>
</g>
<g>
</g>
</svg>
