<?xml version="1.0" encoding="utf-8"?>
<!-- Generator: Adobe Illustrator 16.0.4, SVG Export Plug-In . SVG Version: 6.00 Build 0)  -->
<!DOCTYPE svg PUBLIC "-//W3C//DTD SVG 1.1//EN" "http://www.w3.org/Graphics/SVG/1.1/DTD/svg11.dtd">
<svg version="1.1" id="Layer_1" xmlns="http://www.w3.org/2000/svg" xmlns:xlink="http://www.w3.org/1999/xlink" x="0px" y="0px"
	 width="228px" height="288px" viewBox="0 0 228 288" enable-background="new 0 0 228 288" xml:space="preserve">
<g>
	<rect fill="#999999" width="228" height="288"/>
	<rect y="24" fill="#0F9D58" width="12" height="16"/>
	<rect x="12" y="24" fill="#FFFFFF" width="216" height="16"/>
	<rect y="40" fill="#CCCCCC" width="228" height="240"/>
	<g>
		<path fill="#FFFFFF" d="M220,14c0,1.1-0.9,2-2,2H42c-1.1,0-2-0.9-2-2v-4c0-1.1,0.9-2,2-2h176c1.1,0,2,0.9,2,2V14z"/>
	</g>
	<rect x="12" y="48" fill="#FFFFFF" width="216" height="224"/>
	<line fill="none" stroke="#231F20" stroke-width="0.25" stroke-miterlimit="10" x1="0" y1="56" x2="180" y2="56"/>
	<line fill="none" stroke="#231F20" stroke-width="0.25" stroke-miterlimit="10" x1="0" y1="64" x2="180" y2="64"/>
	<line fill="none" stroke="#231F20" stroke-width="0.25" stroke-miterlimit="10" x1="0" y1="48" x2="228" y2="48"/>
	<line fill="none" stroke="#231F20" stroke-width="0.25" stroke-miterlimit="10" x1="0" y1="80" x2="180" y2="80"/>
	<line fill="none" stroke="#231F20" stroke-width="0.25" stroke-miterlimit="10" x1="0" y1="88" x2="180" y2="88"/>
	<line fill="none" stroke="#231F20" stroke-width="0.25" stroke-miterlimit="10" x1="0" y1="72" x2="180" y2="72"/>
	<line fill="none" stroke="#231F20" stroke-width="0.25" stroke-miterlimit="10" x1="0" y1="104" x2="180" y2="104"/>
	<line fill="none" stroke="#231F20" stroke-width="0.25" stroke-miterlimit="10" x1="0" y1="112" x2="180" y2="112"/>
	<line fill="none" stroke="#231F20" stroke-width="0.25" stroke-miterlimit="10" x1="0" y1="96" x2="180" y2="96"/>
	<line fill="none" stroke="#231F20" stroke-width="0.25" stroke-miterlimit="10" x1="0" y1="120" x2="180" y2="120"/>
	<line fill="none" stroke="#231F20" stroke-width="0.25" stroke-miterlimit="10" x1="0" y1="128" x2="180" y2="128"/>
	<line fill="none" stroke="#231F20" stroke-width="0.25" stroke-miterlimit="10" x1="12" y1="40" x2="12" y2="272"/>
	<line fill="none" stroke="#231F20" stroke-width="0.25" stroke-miterlimit="10" x1="40" y1="40" x2="40" y2="272"/>
	<line fill="none" stroke="#231F20" stroke-width="0.25" stroke-miterlimit="10" x1="68" y1="40" x2="68" y2="272"/>
	<line fill="none" stroke="#231F20" stroke-width="0.25" stroke-miterlimit="10" x1="96" y1="40" x2="96" y2="272"/>
	<line fill="none" stroke="#231F20" stroke-width="0.25" stroke-miterlimit="10" x1="124" y1="40" x2="124" y2="272"/>
	<line fill="none" stroke="#231F20" stroke-width="0.25" stroke-miterlimit="10" x1="152" y1="40" x2="152" y2="272"/>
	<line fill="none" stroke="#231F20" stroke-width="0.25" stroke-miterlimit="10" x1="0" y1="136" x2="180" y2="136"/>
	<line fill="none" stroke="#231F20" stroke-width="0.25" stroke-miterlimit="10" x1="0" y1="40" x2="228" y2="40"/>
	<line fill="none" stroke="#231F20" stroke-width="0.25" stroke-miterlimit="10" x1="0" y1="144" x2="180" y2="144"/>
	<line fill="none" stroke="#231F20" stroke-width="0.25" stroke-miterlimit="10" x1="0" y1="152" x2="180" y2="152"/>
	<g>
		<g>
			<path d="M52.554,32.919c0,0.46-0.168,0.825-0.507,1.094s-0.788,0.403-1.349,0.403c-0.674,0-1.191-0.074-1.551-0.223v-0.385
				c0.398,0.169,0.905,0.253,1.521,0.253c0.453,0,0.812-0.104,1.077-0.311c0.266-0.208,0.398-0.48,0.398-0.817
				c0-0.209-0.044-0.381-0.132-0.519c-0.088-0.137-0.232-0.262-0.431-0.375s-0.49-0.235-0.875-0.366
				c-0.564-0.194-0.953-0.403-1.168-0.629c-0.214-0.225-0.322-0.524-0.322-0.899c0-0.413,0.161-0.749,0.484-1.009
				c0.324-0.26,0.739-0.391,1.247-0.391c0.519,0,1.004,0.098,1.46,0.294l-0.14,0.332c-0.457-0.191-0.895-0.287-1.312-0.287
				c-0.408,0-0.732,0.095-0.974,0.283s-0.362,0.445-0.362,0.77c0,0.204,0.038,0.371,0.111,0.501
				c0.074,0.131,0.195,0.249,0.364,0.353c0.169,0.104,0.458,0.229,0.868,0.375c0.43,0.148,0.753,0.292,0.969,0.432
				c0.216,0.14,0.375,0.298,0.474,0.476C52.505,32.453,52.554,32.667,52.554,32.919z"/>
			<path d="M56.409,34.341v-2.66c0-0.413-0.087-0.712-0.26-0.9c-0.174-0.188-0.443-0.281-0.807-0.281
				c-0.491,0-0.85,0.124-1.078,0.372c-0.228,0.247-0.342,0.649-0.342,1.205v2.264h-0.374V28.47h0.374v1.868l-0.018,0.524h0.026
				c0.154-0.247,0.347-0.425,0.581-0.536c0.234-0.11,0.525-0.166,0.873-0.166c0.931,0,1.396,0.499,1.396,1.498v2.683H56.409z"/>
			<path d="M59.686,34.417c-0.596,0-1.061-0.184-1.394-0.551c-0.333-0.367-0.5-0.882-0.5-1.543c0-0.654,0.162-1.178,0.483-1.571
				c0.322-0.394,0.755-0.59,1.301-0.59c0.484,0,0.865,0.168,1.144,0.505c0.279,0.337,0.419,0.795,0.419,1.374v0.302h-2.955
				c0.005,0.563,0.136,0.993,0.395,1.29c0.258,0.297,0.626,0.445,1.106,0.445c0.234,0,0.44-0.016,0.617-0.049
				c0.177-0.033,0.402-0.103,0.674-0.211v0.339c-0.232,0.101-0.445,0.169-0.642,0.206C60.139,34.398,59.923,34.417,59.686,34.417z
				 M59.577,30.493c-0.395,0-0.711,0.13-0.95,0.391c-0.239,0.26-0.378,0.635-0.419,1.126h2.536c0-0.476-0.104-0.848-0.309-1.115
				C60.227,30.626,59.941,30.493,59.577,30.493z"/>
			<path d="M63.85,34.417c-0.596,0-1.061-0.184-1.394-0.551c-0.333-0.367-0.5-0.882-0.5-1.543c0-0.654,0.162-1.178,0.483-1.571
				c0.322-0.394,0.755-0.59,1.301-0.59c0.484,0,0.865,0.168,1.144,0.505c0.279,0.337,0.419,0.795,0.419,1.374v0.302h-2.955
				c0.005,0.563,0.136,0.993,0.395,1.29c0.258,0.297,0.626,0.445,1.106,0.445c0.234,0,0.44-0.016,0.617-0.049
				c0.177-0.033,0.402-0.103,0.674-0.211v0.339c-0.232,0.101-0.445,0.169-0.642,0.206C64.303,34.398,64.087,34.417,63.85,34.417z
				 M63.741,30.493c-0.395,0-0.711,0.13-0.95,0.391c-0.239,0.26-0.378,0.635-0.419,1.126h2.536c0-0.476-0.104-0.848-0.309-1.115
				C64.391,30.626,64.105,30.493,63.741,30.493z"/>
			<path d="M67.441,34.084c0.236,0,0.443-0.02,0.618-0.06v0.302c-0.181,0.06-0.39,0.09-0.626,0.09c-0.362,0-0.629-0.097-0.802-0.291
				c-0.172-0.194-0.258-0.498-0.258-0.913v-2.648h-0.607v-0.219l0.607-0.17l0.189-0.928h0.192v0.992h1.204v0.325h-1.204v2.596
				c0,0.314,0.056,0.547,0.167,0.698C67.031,34.009,67.205,34.084,67.441,34.084z"/>
			<path d="M71.413,33.273c0,0.367-0.14,0.65-0.419,0.847c-0.279,0.198-0.675,0.296-1.188,0.296c-0.549,0-0.983-0.084-1.306-0.253
				V33.76c0.413,0.207,0.848,0.31,1.306,0.31c0.405,0,0.712-0.067,0.923-0.202c0.21-0.135,0.315-0.314,0.315-0.538
				c0-0.207-0.084-0.38-0.251-0.521c-0.167-0.141-0.442-0.28-0.825-0.416c-0.41-0.148-0.698-0.276-0.864-0.383
				c-0.167-0.107-0.292-0.228-0.375-0.362c-0.084-0.135-0.127-0.299-0.127-0.492c0-0.307,0.129-0.549,0.387-0.729
				c0.258-0.178,0.618-0.268,1.081-0.268c0.443,0,0.863,0.083,1.261,0.249l-0.14,0.339c-0.402-0.166-0.776-0.249-1.121-0.249
				c-0.334,0-0.6,0.056-0.796,0.166c-0.196,0.111-0.294,0.264-0.294,0.46c0,0.214,0.077,0.385,0.229,0.513
				c0.152,0.128,0.45,0.272,0.893,0.43c0.37,0.133,0.639,0.253,0.807,0.36s0.295,0.228,0.379,0.364
				C71.37,32.93,71.413,33.09,71.413,33.273z"/>
		</g>
		<g>
			<path fill="#4285F4" d="M38.159,30.156c0.233,0.194,0.722,0.601,0.722,1.375c0,0.756-0.428,1.113-0.854,1.45
				c-0.13,0.134-0.283,0.274-0.283,0.5c0,0.224,0.153,0.345,0.263,0.438l0.366,0.285c0.446,0.377,0.854,0.722,0.854,1.429
				c0,0.957-0.925,1.926-2.672,1.926c-1.472,0-2.182-0.704-2.182-1.459c0-0.367,0.181-0.886,0.782-1.244
				c0.628-0.386,1.483-0.438,1.939-0.468c-0.142-0.184-0.306-0.377-0.306-0.694c0-0.172,0.052-0.275,0.104-0.396
				c-0.114,0.01-0.223,0.02-0.326,0.02c-1.076,0-1.685-0.807-1.685-1.602c0-0.471,0.214-0.988,0.649-1.365
				c0.578-0.481,1.269-0.562,1.818-0.562h2.091l-0.65,0.368H38.159z M37.437,34.682c-0.08-0.01-0.13-0.01-0.231-0.01
				c-0.094,0-0.641,0.019-1.067,0.163c-0.223,0.082-0.874,0.327-0.874,1.05c0,0.725,0.702,1.246,1.789,1.246
				c0.972,0,1.491-0.471,1.491-1.102C38.544,35.508,38.209,35.235,37.437,34.682z M37.733,32.745
				c0.233-0.234,0.254-0.561,0.254-0.743c0-0.733-0.438-1.875-1.28-1.875c-0.264,0-0.549,0.13-0.712,0.335
				c-0.171,0.213-0.223,0.488-0.223,0.754c0,0.683,0.396,1.815,1.271,1.815C37.295,33.031,37.57,32.91,37.733,32.745z"/>
			<path fill="#FFC325" d="M31.767,34.519c-1.613,0-2.474-1.264-2.474-2.403c0-1.333,1.083-2.473,2.626-2.473
				c1.49,0,2.422,1.171,2.422,2.402C34.34,33.246,33.418,34.519,31.767,34.519z M33.032,33.694c0.244-0.326,0.306-0.731,0.306-1.13
				c0-0.896-0.426-2.604-1.682-2.604c-0.337,0-0.671,0.131-0.914,0.345c-0.396,0.355-0.469,0.803-0.469,1.242
				c0,1.008,0.5,2.667,1.727,2.667C32.393,34.213,32.8,34.021,33.032,33.694z"/>
			<path fill="#EC174F" d="M26.271,34.519c-1.613,0-2.475-1.264-2.475-2.403c0-1.333,1.085-2.473,2.627-2.473
				c1.49,0,2.424,1.171,2.424,2.402C28.847,33.246,27.923,34.519,26.271,34.519z M27.537,33.694c0.246-0.326,0.305-0.731,0.305-1.13
				c0-0.896-0.425-2.604-1.683-2.604c-0.335,0-0.667,0.131-0.911,0.345c-0.397,0.355-0.468,0.803-0.468,1.242
				c0,1.008,0.498,2.667,1.723,2.667C26.898,34.213,27.305,34.021,27.537,33.694z"/>
			<path fill="#4285F4" d="M23.021,34.359l-1.456,0.338c-0.593,0.093-1.122,0.176-1.682,0.176c-2.813,0-3.883-2.08-3.883-3.707
				c0-1.984,1.519-3.826,4.115-3.826c0.552,0,1.083,0.082,1.562,0.213c0.763,0.216,1.122,0.484,1.344,0.635l-0.843,0.808
				l-0.359,0.083l0.256-0.409c-0.348-0.337-0.979-0.96-2.182-0.96c-1.612,0-2.824,1.228-2.824,3.018
				c0,1.923,1.387,3.734,3.608,3.734c0.653,0,0.989-0.134,1.294-0.256v-1.647l-1.539,0.081l0.814-0.438h2.161l-0.264,0.255
				c-0.072,0.06-0.083,0.081-0.102,0.162c-0.011,0.094-0.021,0.392-0.021,0.495V34.359z"/>
			<path fill="#0F9D58" d="M41.381,34.066c-0.336-0.033-0.408-0.094-0.408-0.491V33.46v-5.678c0.003-0.022,0.004-0.044,0.007-0.065
				c0.042-0.361,0.143-0.419,0.458-0.605h-1.458l-0.766,0.368h0.78v0.007l-0.001-0.004v5.978v0.34c0,0.203-0.041,0.233-0.276,0.539
				h1.805l0.38-0.224C41.729,34.097,41.555,34.084,41.381,34.066z"/>
			<path fill="#EC174F" d="M45.529,34.159c-0.112,0.062-0.224,0.135-0.334,0.183c-0.333,0.155-0.677,0.193-0.981,0.193
				c-0.325,0-0.83-0.019-1.349-0.397c-0.715-0.505-1.033-1.38-1.033-2.143c0-1.576,1.279-2.347,2.32-2.347
				c0.365,0,0.741,0.092,1.042,0.283c0.506,0.335,0.639,0.772,0.708,1.007l-2.377,0.965l-0.782,0.061
				c0.253,1.292,1.125,2.042,2.088,2.042c0.515,0,0.888-0.181,1.232-0.353L45.529,34.159z M44.578,31.13
				c0.193-0.071,0.293-0.131,0.293-0.273c0-0.407-0.455-0.876-1.002-0.876c-0.405,0-1.166,0.318-1.166,1.414
				c0,0.173,0.021,0.356,0.031,0.537L44.578,31.13z"/>
		</g>
	</g>
	<line fill="none" stroke="#231F20" stroke-width="0.25" stroke-miterlimit="10" x1="0" y1="160" x2="180" y2="160"/>
	<line fill="none" stroke="#231F20" stroke-width="0.25" stroke-miterlimit="10" x1="0" y1="168" x2="180" y2="168"/>
	<line fill="none" stroke="#231F20" stroke-width="0.25" stroke-miterlimit="10" x1="0" y1="176" x2="180" y2="176"/>
	<g>
		<circle fill="#333333" cx="28" cy="12" r="4"/>
		<polygon fill="#333333" points="16,8 16,16 20,12 		"/>
		<polyline fill="#333333" points="8,12 12,16 12,8 		"/>
	</g>
	<path fill="#FFFFFF" d="M3.153,29.3v4.8h5.694v-4.8H3.153z M3.447,29.6h1.506v1.2H3.447V29.6z M3.447,31.094h1.506V32.3H3.447
		V31.094z M3.447,33.807V32.6h1.506v1.207H3.447z M8.554,33.807H5.248V32.6h3.306V33.807z M8.554,32.3H5.248v-1.206h3.306V32.3z
		 M8.554,30.8H5.248v-1.2h3.306V30.8z"/>
	<line fill="none" stroke="#231F20" stroke-width="0.25" stroke-miterlimit="10" x1="0" y1="184" x2="180" y2="184"/>
	<line fill="none" stroke="#231F20" stroke-width="0.25" stroke-miterlimit="10" x1="0" y1="192" x2="180" y2="192"/>
	<line fill="none" stroke="#231F20" stroke-width="0.25" stroke-miterlimit="10" x1="0" y1="208" x2="180" y2="208"/>
	<line fill="none" stroke="#231F20" stroke-width="0.25" stroke-miterlimit="10" x1="0" y1="216" x2="180" y2="216"/>
	<line fill="none" stroke="#231F20" stroke-width="0.25" stroke-miterlimit="10" x1="0" y1="200" x2="180" y2="200"/>
	<line fill="none" stroke="#231F20" stroke-width="0.25" stroke-miterlimit="10" x1="0" y1="232" x2="180" y2="232"/>
	<line fill="none" stroke="#231F20" stroke-width="0.25" stroke-miterlimit="10" x1="0" y1="240" x2="180" y2="240"/>
	<line fill="none" stroke="#231F20" stroke-width="0.25" stroke-miterlimit="10" x1="0" y1="224" x2="180" y2="224"/>
	<line fill="none" stroke="#231F20" stroke-width="0.25" stroke-miterlimit="10" x1="0" y1="248" x2="180" y2="248"/>
	<line fill="none" stroke="#231F20" stroke-width="0.25" stroke-miterlimit="10" x1="0" y1="256" x2="180" y2="256"/>
	<line fill="none" stroke="#231F20" stroke-width="0.25" stroke-miterlimit="10" x1="0" y1="264" x2="180" y2="264"/>
	<line fill="none" stroke="#231F20" stroke-width="0.25" stroke-miterlimit="10" x1="0" y1="272" x2="180" y2="272"/>
	<g>
		<rect x="180" y="40" width="48" height="8"/>
		<rect x="180" y="48" fill="#FFFFFF" width="48" height="224"/>
	</g>
	<line fill="none" stroke="#231F20" stroke-width="0.25" stroke-miterlimit="10" x1="180" y1="40" x2="180" y2="272"/>
	<g>
		<path fill="#FFFFFF" d="M183.627,43.578l0.93-1.792h0.698l-1.308,2.404v1.522h-0.645v-1.501L182,41.787h0.698L183.627,43.578z"/>
		<path fill="#FFFFFF" d="M188.203,44.223c0,0.485-0.125,0.864-0.373,1.136c-0.25,0.272-0.596,0.408-1.04,0.408
			c-0.277,0-0.522-0.062-0.735-0.188s-0.377-0.305-0.492-0.54c-0.114-0.235-0.172-0.507-0.172-0.816
			c0-0.482,0.124-0.858,0.371-1.128c0.247-0.271,0.596-0.406,1.045-0.406c0.43,0,0.77,0.138,1.021,0.415
			C188.078,43.38,188.203,43.753,188.203,44.223z M186.041,44.223c0,0.686,0.254,1.028,0.76,1.028c0.502,0,0.752-0.343,0.752-1.028
			c0-0.679-0.252-1.018-0.757-1.018c-0.265,0-0.457,0.088-0.576,0.263S186.041,43.895,186.041,44.223z"/>
		<path fill="#FFFFFF" d="M190.885,45.713l-0.088-0.39h-0.033c-0.087,0.138-0.212,0.247-0.374,0.325s-0.347,0.118-0.554,0.118
			c-0.361,0-0.629-0.089-0.807-0.269s-0.266-0.45-0.266-0.813v-1.942h0.637v1.832c0,0.228,0.047,0.398,0.139,0.512
			c0.094,0.114,0.24,0.17,0.438,0.17c0.265,0,0.46-0.079,0.584-0.238c0.124-0.158,0.187-0.424,0.187-0.796v-1.48h0.635v2.97H190.885
			z"/>
		<path fill="#FFFFFF" d="M193.651,42.689c0.127,0,0.231,0.009,0.313,0.027l-0.062,0.588c-0.089-0.021-0.183-0.032-0.279-0.032
			c-0.252,0-0.456,0.083-0.613,0.247c-0.157,0.165-0.235,0.379-0.235,0.642v1.552h-0.631v-2.97h0.494l0.083,0.524h0.032
			c0.099-0.178,0.227-0.318,0.386-0.422C193.298,42.741,193.469,42.689,193.651,42.689z"/>
		<path fill="#FFFFFF" d="M197.527,45.713l-0.125-0.414h-0.021c-0.145,0.181-0.288,0.304-0.434,0.369
			c-0.145,0.065-0.33,0.098-0.559,0.098c-0.291,0-0.52-0.079-0.684-0.236c-0.163-0.158-0.245-0.38-0.245-0.669
			c0-0.306,0.114-0.537,0.341-0.692c0.228-0.156,0.574-0.241,1.039-0.255l0.514-0.016v-0.158c0-0.19-0.045-0.332-0.133-0.426
			c-0.089-0.094-0.227-0.141-0.412-0.141c-0.152,0-0.299,0.022-0.438,0.067c-0.141,0.045-0.275,0.098-0.404,0.159l-0.203-0.451
			c0.16-0.084,0.338-0.148,0.529-0.192s0.372-0.066,0.542-0.066c0.378,0,0.663,0.083,0.855,0.247s0.288,0.423,0.288,0.776v2.001
			H197.527z M196.588,45.283c0.229,0,0.413-0.064,0.552-0.192s0.208-0.308,0.208-0.539v-0.258l-0.381,0.016
			c-0.297,0.011-0.514,0.061-0.648,0.149c-0.136,0.089-0.203,0.225-0.203,0.407c0,0.132,0.039,0.235,0.118,0.307
			C196.312,45.247,196.43,45.283,196.588,45.283z"/>
		<path fill="#FFFFFF" d="M199.725,45.767c-0.371,0-0.66-0.134-0.868-0.403s-0.312-0.646-0.312-1.13
			c0-0.487,0.105-0.866,0.315-1.138c0.21-0.271,0.502-0.407,0.874-0.407c0.391,0,0.688,0.144,0.893,0.432h0.031
			c-0.03-0.213-0.045-0.381-0.045-0.505v-1.082h0.633v4.179h-0.494l-0.109-0.39h-0.029C200.41,45.619,200.114,45.767,199.725,45.767
			z M199.893,45.256c0.26,0,0.449-0.073,0.566-0.219c0.119-0.146,0.18-0.383,0.184-0.71v-0.089c0-0.374-0.061-0.64-0.184-0.797
			c-0.121-0.158-0.312-0.236-0.571-0.236c-0.222,0-0.394,0.09-0.513,0.27c-0.12,0.18-0.18,0.437-0.18,0.77
			c0,0.329,0.058,0.58,0.174,0.753C199.486,45.17,199.66,45.256,199.893,45.256z"/>
		<path fill="#FFFFFF" d="M203.014,45.767c-0.371,0-0.66-0.134-0.867-0.403c-0.208-0.269-0.312-0.646-0.312-1.13
			c0-0.487,0.105-0.866,0.316-1.138c0.21-0.271,0.502-0.407,0.874-0.407c0.39,0,0.688,0.144,0.892,0.432h0.032
			c-0.03-0.213-0.046-0.381-0.046-0.505v-1.082h0.634v4.179h-0.494l-0.11-0.39h-0.029C203.7,45.619,203.404,45.767,203.014,45.767z
			 M203.183,45.256c0.26,0,0.448-0.073,0.566-0.219s0.179-0.383,0.183-0.71v-0.089c0-0.374-0.061-0.64-0.183-0.797
			s-0.312-0.236-0.571-0.236c-0.223,0-0.394,0.09-0.514,0.27c-0.119,0.18-0.18,0.437-0.18,0.77c0,0.329,0.059,0.58,0.175,0.753
			S202.949,45.256,203.183,45.256z"/>
		<path fill="#FFFFFF" d="M205.043,44.507V43.97h1.381v0.537H205.043z"/>
		<path fill="#FFFFFF" d="M209.568,44.223c0,0.485-0.125,0.864-0.374,1.136s-0.595,0.408-1.04,0.408
			c-0.277,0-0.521-0.062-0.734-0.188c-0.214-0.125-0.377-0.305-0.492-0.54c-0.115-0.235-0.172-0.507-0.172-0.816
			c0-0.482,0.123-0.858,0.371-1.128c0.246-0.271,0.595-0.406,1.045-0.406c0.43,0,0.77,0.138,1.02,0.415
			C209.442,43.38,209.568,43.753,209.568,44.223z M207.406,44.223c0,0.686,0.253,1.028,0.76,1.028c0.501,0,0.752-0.343,0.752-1.028
			c0-0.679-0.252-1.018-0.758-1.018c-0.265,0-0.457,0.088-0.576,0.263S207.406,43.895,207.406,44.223z"/>
		<path fill="#FFFFFF" d="M212.769,45.713h-0.634v-1.826c0-0.229-0.047-0.4-0.139-0.513c-0.092-0.113-0.238-0.169-0.439-0.169
			c-0.266,0-0.461,0.079-0.585,0.236s-0.186,0.421-0.186,0.792v1.479h-0.631v-2.97h0.494l0.089,0.389h0.032
			c0.089-0.141,0.216-0.25,0.381-0.327c0.165-0.077,0.348-0.116,0.548-0.116c0.713,0,1.069,0.363,1.069,1.087V45.713z"/>
		<path fill="#FFFFFF" d="M217.414,45.713h-0.635v-1.826c0-0.229-0.046-0.4-0.139-0.513c-0.092-0.113-0.238-0.169-0.438-0.169
			c-0.265,0-0.46,0.079-0.584,0.238c-0.124,0.158-0.187,0.424-0.187,0.796v1.475h-0.631v-4.179h0.631v1.061
			c0,0.17-0.012,0.352-0.033,0.545h0.041c0.086-0.143,0.205-0.254,0.358-0.333s0.331-0.118,0.536-0.118
			c0.719,0,1.08,0.363,1.08,1.087V45.713z"/>
		<path fill="#FFFFFF" d="M219.451,45.767c-0.463,0-0.823-0.135-1.084-0.404c-0.26-0.27-0.391-0.641-0.391-1.113
			c0-0.485,0.121-0.866,0.363-1.144c0.24-0.278,0.573-0.417,0.996-0.417c0.392,0,0.701,0.119,0.929,0.357
			c0.228,0.238,0.341,0.566,0.341,0.983v0.341h-1.979c0.008,0.288,0.086,0.51,0.232,0.665c0.147,0.155,0.354,0.232,0.621,0.232
			c0.176,0,0.339-0.017,0.49-0.05s0.313-0.088,0.487-0.165v0.513c-0.153,0.073-0.31,0.125-0.468,0.155
			C219.833,45.751,219.653,45.767,219.451,45.767z M219.336,43.167c-0.201,0-0.361,0.063-0.482,0.19
			c-0.121,0.127-0.193,0.312-0.217,0.556h1.349c-0.003-0.245-0.062-0.431-0.177-0.557C219.693,43.23,219.536,43.167,219.336,43.167z
			"/>
		<path fill="#FFFFFF" d="M222.692,42.689c0.127,0,0.231,0.009,0.313,0.027l-0.062,0.588c-0.089-0.021-0.183-0.032-0.279-0.032
			c-0.252,0-0.456,0.083-0.613,0.247c-0.157,0.165-0.235,0.379-0.235,0.642v1.552h-0.631v-2.97h0.494l0.083,0.524h0.032
			c0.099-0.178,0.227-0.318,0.386-0.422C222.339,42.741,222.51,42.689,222.692,42.689z"/>
		<path fill="#FFFFFF" d="M224.717,45.767c-0.463,0-0.823-0.135-1.084-0.404c-0.26-0.27-0.391-0.641-0.391-1.113
			c0-0.485,0.121-0.866,0.363-1.144c0.24-0.278,0.573-0.417,0.996-0.417c0.392,0,0.701,0.119,0.929,0.357
			c0.228,0.238,0.341,0.566,0.341,0.983v0.341h-1.979c0.008,0.288,0.086,0.51,0.232,0.665c0.147,0.155,0.354,0.232,0.621,0.232
			c0.176,0,0.339-0.017,0.49-0.05s0.313-0.088,0.487-0.165v0.513c-0.153,0.073-0.31,0.125-0.468,0.155
			C225.099,45.751,224.919,45.767,224.717,45.767z M224.602,43.167c-0.201,0-0.361,0.063-0.482,0.19
			c-0.121,0.127-0.193,0.312-0.217,0.556h1.349c-0.003-0.245-0.062-0.431-0.177-0.557C224.959,43.23,224.802,43.167,224.602,43.167z
			"/>
	</g>
</g>
<g>
</g>
<g>
</g>
<g>
</g>
<g>
</g>
<g>
</g>
<g>
</g>
</svg>
