<?xml version="1.0" encoding="utf-8"?>
<!-- Generator: Adobe Illustrator 16.0.4, SVG Export Plug-In . SVG Version: 6.00 Build 0)  -->
<!DOCTYPE svg PUBLIC "-//W3C//DTD SVG 1.1//EN" "http://www.w3.org/Graphics/SVG/1.1/DTD/svg11.dtd">
<svg version="1.1" id="Layer_1" xmlns="http://www.w3.org/2000/svg" xmlns:xlink="http://www.w3.org/1999/xlink" x="0px" y="0px"
	 width="160px" height="108px" viewBox="0 0 160 108" enable-background="new 0 0 160 108" xml:space="preserve">
<g>
	<rect fill="#E6E6E6" width="160" height="108"/>
	<rect fill="#FFFFFF" width="160" height="16"/>
	<rect y="16" fill="#CCCCCC" width="160" height="8"/>
	<rect x="44" y="56" fill="#F05722" width="32" height="16"/>
	<rect x="84" y="28" fill="#3F5CA9" width="32" height="16"/>
	<rect x="4" y="84" fill="#F4DF3B" width="32" height="16"/>
	<rect x="4" y="56" fill="#4285F4" width="32" height="16"/>
	<rect x="124" y="84" fill="#F4B400" width="32" height="16"/>
	<rect x="44" y="84" fill="#795548" width="32" height="16"/>
	<rect x="44" y="28" fill="#0F9D58" width="32" height="16"/>
	<rect x="124" y="56" fill="#11A9CC" width="32" height="16"/>
	<rect x="84" y="56" fill="#A61D4C" width="32" height="16"/>
	<rect x="4" y="28" fill="#4D4D4D" width="32" height="16"/>
	<rect x="124" y="28" fill="#CDDC39" width="32" height="16"/>
	<g>
		<path d="M7.558,8.78h-2.32l-0.797,2.016H4l2.297-5.734H6.55l2.25,5.734H8.351L7.558,8.78z M5.382,8.421h2.043L6.648,6.362
			C6.583,6.201,6.505,5.977,6.414,5.69c-0.07,0.25-0.147,0.477-0.23,0.68L5.382,8.421z"/>
		<path d="M10.866,6.468c0.307,0,0.573,0.056,0.797,0.168s0.424,0.303,0.602,0.574h0.023c-0.016-0.328-0.023-0.65-0.023-0.965V4.718
			h0.383v6.078h-0.254l-0.098-0.648h-0.031c-0.323,0.484-0.787,0.727-1.391,0.727c-0.586,0-1.034-0.182-1.344-0.547
			S9.065,9.431,9.065,8.733c0-0.734,0.154-1.295,0.461-1.684S10.28,6.468,10.866,6.468z M10.866,6.819
			c-0.463,0-0.812,0.163-1.045,0.488s-0.35,0.798-0.35,1.418c0,1.203,0.467,1.805,1.402,1.805c0.479,0,0.831-0.139,1.055-0.418
			s0.336-0.738,0.336-1.379V8.667c0-0.656-0.11-1.128-0.33-1.416S11.358,6.819,10.866,6.819z"/>
		<path d="M15.428,6.468c0.307,0,0.573,0.056,0.797,0.168s0.424,0.303,0.602,0.574h0.023c-0.016-0.328-0.023-0.65-0.023-0.965V4.718
			h0.383v6.078h-0.254l-0.098-0.648h-0.031c-0.323,0.484-0.787,0.727-1.391,0.727c-0.586,0-1.034-0.182-1.344-0.547
			s-0.465-0.896-0.465-1.594c0-0.734,0.154-1.295,0.461-1.684S14.842,6.468,15.428,6.468z M15.428,6.819
			c-0.463,0-0.812,0.163-1.045,0.488s-0.35,0.798-0.35,1.418c0,1.203,0.467,1.805,1.402,1.805c0.479,0,0.831-0.139,1.055-0.418
			s0.336-0.738,0.336-1.379V8.667c0-0.656-0.11-1.128-0.33-1.416S15.92,6.819,15.428,6.819z"/>
		<path d="M18.083,8.796v-0.32h1.855v0.32H18.083z"/>
		<path d="M24.321,8.667c0,0.693-0.168,1.234-0.504,1.623s-0.799,0.584-1.391,0.584c-0.373,0-0.701-0.09-0.984-0.27
			s-0.501-0.438-0.652-0.773s-0.227-0.724-0.227-1.164c0-0.693,0.168-1.232,0.504-1.619s0.797-0.58,1.383-0.58
			c0.583,0,1.041,0.196,1.373,0.588S24.321,7.985,24.321,8.667z M20.969,8.667c0,0.583,0.128,1.039,0.385,1.365
			s0.619,0.49,1.088,0.49s0.832-0.164,1.088-0.49s0.385-0.782,0.385-1.365c0-0.586-0.129-1.041-0.389-1.363
			s-0.623-0.484-1.092-0.484s-0.83,0.161-1.084,0.482S20.969,8.079,20.969,8.667z"/>
		<path d="M28.257,10.796V8.042c0-0.427-0.09-0.738-0.27-0.932s-0.458-0.291-0.836-0.291c-0.508,0-0.879,0.128-1.115,0.385
			s-0.354,0.672-0.354,1.248v2.344h-0.387V6.55h0.328l0.074,0.582h0.023c0.276-0.443,0.767-0.664,1.473-0.664
			c0.963,0,1.445,0.517,1.445,1.551v2.777H28.257z"/>
		<path d="M32.448,9.69c0,0.38-0.145,0.672-0.434,0.877s-0.699,0.307-1.23,0.307c-0.568,0-1.018-0.087-1.352-0.262v-0.418
			c0.427,0.213,0.877,0.32,1.352,0.32c0.419,0,0.738-0.07,0.955-0.209s0.326-0.325,0.326-0.557c0-0.213-0.086-0.393-0.26-0.539
			s-0.458-0.289-0.854-0.43c-0.424-0.154-0.723-0.286-0.895-0.396s-0.301-0.236-0.389-0.375s-0.131-0.309-0.131-0.51
			c0-0.318,0.133-0.569,0.4-0.754s0.64-0.277,1.119-0.277c0.458,0,0.893,0.086,1.305,0.258l-0.145,0.352
			c-0.417-0.172-0.803-0.258-1.16-0.258c-0.346,0-0.621,0.057-0.824,0.172s-0.305,0.273-0.305,0.477
			c0,0.221,0.079,0.398,0.236,0.531s0.465,0.281,0.924,0.445c0.383,0.138,0.662,0.262,0.836,0.373s0.305,0.236,0.393,0.377
			S32.448,9.5,32.448,9.69z"/>
	</g>
	<rect x="80" y="80" fill="#CCCCCC" width="40" height="28"/>
	<g>
		<path fill="#4285F4" d="M112,102c0,1.1-0.9,2-2,2H90c-1.1,0-2-0.9-2-2v-4c0-1.1,0.9-2,2-2h20c1.1,0,2,0.9,2,2V102z"/>
	</g>
	<g>
		<path fill="#FFFFFF" d="M93.713,99.698h1.609v0.539h-1.609v1.664H93.17v-1.664h-1.602v-0.539h1.602v-1.672h0.543V99.698z"/>
		<path fill="#FFFFFF" d="M97.943,101.899h-0.636v-3.927h2.216v0.543h-1.58v1.228h1.48v0.545h-1.48V101.899z"/>
		<path fill="#FFFFFF" d="M100.743,100.331v1.568h-0.642v-3.927h1.109c0.506,0,0.881,0.096,1.125,0.285
			c0.243,0.189,0.365,0.477,0.365,0.859c0,0.488-0.254,0.837-0.763,1.045l1.108,1.737h-0.73l-0.939-1.568H100.743z M100.743,99.799
			h0.446c0.299,0,0.516-0.055,0.649-0.166s0.201-0.275,0.201-0.494c0-0.223-0.072-0.381-0.218-0.479
			c-0.145-0.096-0.363-0.145-0.654-0.145h-0.425V99.799z"/>
		<path fill="#FFFFFF" d="M105.704,101.899h-2.221v-3.927h2.221v0.543h-1.579v1.068h1.479v0.537h-1.479v1.233h1.579V101.899z"/>
		<path fill="#FFFFFF" d="M108.641,101.899h-2.221v-3.927h2.221v0.543h-1.58v1.068h1.48v0.537h-1.48v1.233h1.58V101.899z"/>
	</g>
	<g>
		<path d="M86.099,88.445l0.929-1.791h0.699l-1.309,2.404v1.521h-0.645v-1.5l-1.303-2.426h0.699L86.099,88.445z"/>
		<path d="M90.674,89.09c0,0.485-0.124,0.864-0.373,1.137c-0.249,0.271-0.596,0.408-1.039,0.408c-0.277,0-0.523-0.062-0.736-0.188
			s-0.377-0.306-0.491-0.54s-0.172-0.506-0.172-0.816c0-0.481,0.124-0.857,0.37-1.127c0.248-0.271,0.596-0.406,1.045-0.406
			c0.43,0,0.77,0.139,1.021,0.415C90.549,88.248,90.674,88.621,90.674,89.09z M88.512,89.09c0,0.686,0.254,1.029,0.76,1.029
			c0.502,0,0.752-0.344,0.752-1.029c0-0.678-0.252-1.018-0.756-1.018c-0.266,0-0.457,0.088-0.576,0.264
			C88.572,88.511,88.512,88.762,88.512,89.09z"/>
		<path d="M93.356,90.58l-0.089-0.389h-0.032c-0.087,0.138-0.212,0.246-0.374,0.324c-0.162,0.079-0.348,0.119-0.555,0.119
			c-0.36,0-0.629-0.09-0.806-0.27c-0.178-0.179-0.267-0.449-0.267-0.812V87.61h0.637v1.831c0,0.229,0.047,0.398,0.14,0.512
			c0.093,0.114,0.239,0.171,0.438,0.171c0.265,0,0.459-0.079,0.584-0.237c0.124-0.158,0.187-0.424,0.187-0.797V87.61h0.634v2.97
			H93.356z"/>
		<path d="M96.123,87.557c0.127,0,0.23,0.009,0.313,0.027l-0.062,0.588c-0.09-0.021-0.184-0.033-0.279-0.033
			c-0.252,0-0.457,0.083-0.613,0.248c-0.157,0.164-0.236,0.379-0.236,0.642v1.552h-0.631v-2.97h0.494l0.084,0.524h0.031
			c0.1-0.178,0.228-0.318,0.387-0.422C95.77,87.608,95.939,87.557,96.123,87.557z"/>
		<path d="M99.999,90.58l-0.126-0.413h-0.021c-0.144,0.181-0.287,0.304-0.433,0.369s-0.331,0.099-0.559,0.099
			c-0.292,0-0.52-0.079-0.684-0.236c-0.163-0.158-0.245-0.381-0.245-0.67c0-0.305,0.113-0.537,0.341-0.691
			c0.228-0.156,0.573-0.242,1.039-0.256l0.513-0.016v-0.158c0-0.19-0.044-0.332-0.133-0.426c-0.088-0.095-0.227-0.142-0.412-0.142
			c-0.152,0-0.298,0.022-0.438,0.067s-0.274,0.098-0.403,0.158l-0.204-0.451c0.161-0.084,0.338-0.148,0.529-0.191
			c0.191-0.045,0.373-0.066,0.543-0.066c0.377,0,0.662,0.082,0.855,0.247c0.191,0.165,0.288,0.423,0.288,0.776v2H99.999z
			 M99.059,90.15c0.229,0,0.414-0.063,0.553-0.191s0.208-0.308,0.208-0.539v-0.258l-0.382,0.017
			c-0.297,0.011-0.514,0.061-0.648,0.149c-0.135,0.088-0.203,0.225-0.203,0.406c0,0.133,0.04,0.235,0.119,0.308
			C98.783,90.115,98.901,90.15,99.059,90.15z"/>
		<path d="M102.195,90.635c-0.371,0-0.66-0.135-0.867-0.403c-0.208-0.269-0.312-0.646-0.312-1.13c0-0.488,0.105-0.867,0.316-1.139
			c0.21-0.271,0.502-0.406,0.874-0.406c0.39,0,0.688,0.145,0.892,0.432h0.032c-0.03-0.213-0.046-0.381-0.046-0.504v-1.082h0.634
			v4.178h-0.494l-0.11-0.389h-0.029C102.882,90.486,102.586,90.635,102.195,90.635z M102.364,90.124c0.26,0,0.448-0.073,0.566-0.219
			s0.179-0.383,0.183-0.71v-0.09c0-0.373-0.061-0.639-0.183-0.797s-0.312-0.236-0.571-0.236c-0.223,0-0.394,0.09-0.514,0.27
			c-0.119,0.18-0.18,0.438-0.18,0.77c0,0.33,0.059,0.58,0.175,0.754C101.957,90.037,102.131,90.124,102.364,90.124z"/>
		<path d="M105.484,90.635c-0.371,0-0.66-0.135-0.867-0.403s-0.312-0.646-0.312-1.13c0-0.488,0.104-0.867,0.315-1.139
			c0.211-0.271,0.502-0.406,0.875-0.406c0.39,0,0.688,0.145,0.891,0.432h0.033c-0.031-0.213-0.047-0.381-0.047-0.504v-1.082h0.635
			v4.178h-0.494l-0.111-0.389h-0.029C106.172,90.486,105.875,90.635,105.484,90.635z M105.654,90.124
			c0.26,0,0.447-0.073,0.566-0.219c0.117-0.146,0.179-0.383,0.182-0.71v-0.09c0-0.373-0.061-0.639-0.182-0.797
			c-0.122-0.158-0.312-0.236-0.572-0.236c-0.223,0-0.393,0.09-0.514,0.27c-0.119,0.18-0.18,0.438-0.18,0.77
			c0,0.33,0.059,0.58,0.176,0.754C105.246,90.037,105.421,90.124,105.654,90.124z"/>
		<path d="M107.514,89.375v-0.537h1.381v0.537H107.514z"/>
		<path d="M112.039,89.09c0,0.485-0.125,0.864-0.373,1.137c-0.25,0.271-0.596,0.408-1.04,0.408c-0.277,0-0.522-0.062-0.735-0.188
			s-0.377-0.306-0.492-0.54c-0.114-0.234-0.172-0.506-0.172-0.816c0-0.481,0.124-0.857,0.371-1.127
			c0.247-0.271,0.596-0.406,1.045-0.406c0.43,0,0.77,0.139,1.021,0.415S112.039,88.621,112.039,89.09z M109.877,89.09
			c0,0.686,0.254,1.029,0.76,1.029c0.502,0,0.752-0.344,0.752-1.029c0-0.678-0.252-1.018-0.757-1.018
			c-0.265,0-0.457,0.088-0.576,0.264C109.937,88.511,109.877,88.762,109.877,89.09z"/>
		<path d="M115.24,90.58h-0.635v-1.826c0-0.229-0.046-0.4-0.139-0.512c-0.092-0.113-0.238-0.17-0.438-0.17
			c-0.267,0-0.462,0.078-0.585,0.236c-0.124,0.158-0.186,0.422-0.186,0.793v1.479h-0.631v-2.97h0.494l0.088,0.39h0.033
			c0.089-0.142,0.216-0.251,0.381-0.328c0.164-0.076,0.348-0.115,0.547-0.115c0.713,0,1.07,0.363,1.07,1.088V90.58z"/>
	</g>
	<polygon fill="#65B045" points="44,94.828 54.829,84 49.171,84 44,89.172 	"/>
	<polygon fill="#65B045" points="4,66.828 14.829,56 9.171,56 4,61.172 	"/>
	<polygon fill="#65B045" points="84,38.829 94.828,28 89.172,28 84,33.171 	"/>
	<line fill="none" stroke="#231F20" stroke-width="0.25" stroke-miterlimit="10" x1="0" y1="52" x2="160" y2="52"/>
	<line fill="none" stroke="#231F20" stroke-width="0.25" stroke-miterlimit="10" x1="0" y1="80" x2="160" y2="80"/>
	<line fill="none" stroke="#231F20" stroke-width="0.25" stroke-miterlimit="10" x1="40" y1="24" x2="40" y2="108"/>
	<line fill="none" stroke="#231F20" stroke-width="0.25" stroke-miterlimit="10" x1="80" y1="24" x2="80" y2="108"/>
	<line fill="none" stroke="#231F20" stroke-width="0.25" stroke-miterlimit="10" x1="120" y1="24" x2="120" y2="108"/>
	<polygon fill="#65B045" points="124,94.828 134.828,84 129.172,84 124,89.172 	"/>
</g>
<g>
</g>
<g>
</g>
<g>
</g>
<g>
</g>
<g>
</g>
<g>
</g>
</svg>
