<?xml version="1.0" encoding="UTF-8" standalone="no"?>
<svg width="439px" height="210px" viewBox="0 0 439 210" version="1.1" xmlns="http://www.w3.org/2000/svg" xmlns:xlink="http://www.w3.org/1999/xlink" xmlns:sketch="http://www.bohemiancoding.com/sketch/ns">
    <title>Post-install tip - Dont</title>
    <description>Created with Sketch (http://www.bohemiancoding.com/sketch)</description>
    <defs>
        <filter x="-50%" y="-50%" width="200%" height="200%" filterUnits="objectBoundingBox" id="filter-1">
            <feOffset dx="0" dy="1" in="SourceAlpha" result="shadowOffsetOuter1"></feOffset>
            <feGaussianBlur stdDeviation="0" in="shadowOffsetOuter1" result="shadowBlurOuter1"></feGaussianBlur>
            <feColorMatrix values="0 0 0 0 0.768627451   0 0 0 0 0.768627451   0 0 0 0 0.768627451  0 0 0 0.7 0" in="shadowBlurOuter1" type="matrix" result="shadowMatrixOuter1"></feColorMatrix>
            <feMerge>
                <feMergeNode in="shadowMatrixOuter1"></feMergeNode>
                <feMergeNode in="SourceGraphic"></feMergeNode>
            </feMerge>
        </filter>
        <filter x="-50%" y="-50%" width="200%" height="200%" filterUnits="objectBoundingBox" id="filter-2">
            <feOffset dx="0" dy="1" in="SourceAlpha" result="shadowOffsetOuter1"></feOffset>
            <feGaussianBlur stdDeviation="0" in="shadowOffsetOuter1" result="shadowBlurOuter1"></feGaussianBlur>
            <feColorMatrix values="0 0 0 0 0.77   0 0 0 0 0.77   0 0 0 0 0.77  0 0 0 0.7 0" in="shadowBlurOuter1" type="matrix" result="shadowMatrixOuter1"></feColorMatrix>
            <feMerge>
                <feMergeNode in="shadowMatrixOuter1"></feMergeNode>
                <feMergeNode in="SourceGraphic"></feMergeNode>
            </feMerge>
        </filter>
        <filter x="-50%" y="-50%" width="200%" height="200%" filterUnits="objectBoundingBox" id="filter-3">
            <feOffset dx="0" dy="1" in="SourceAlpha" result="shadowOffsetOuter1"></feOffset>
            <feGaussianBlur stdDeviation="0" in="shadowOffsetOuter1" result="shadowBlurOuter1"></feGaussianBlur>
            <feColorMatrix values="0 0 0 0 0.77   0 0 0 0 0.77   0 0 0 0 0.77  0 0 0 0.7 0" in="shadowBlurOuter1" type="matrix" result="shadowMatrixOuter1"></feColorMatrix>
            <feOffset dx="0" dy="2" in="SourceAlpha" result="shadowOffsetInner1"></feOffset>
            <feGaussianBlur stdDeviation="0" in="shadowOffsetInner1" result="shadowBlurInner1"></feGaussianBlur>
            <feComposite in="shadowBlurInner1" in2="SourceAlpha" operator="arithmetic" k2="-1" k3="1" result="shadowInnerInner1"></feComposite>
            <feColorMatrix values="0 0 0 0 1   0 0 0 0 0.999936521   0 0 0 0 1  0 0 0 0.7 0" in="shadowInnerInner1" type="matrix" result="shadowMatrixInner1"></feColorMatrix>
            <feOffset dx="0" dy="1" in="SourceAlpha" result="shadowOffsetInner2"></feOffset>
            <feGaussianBlur stdDeviation="0" in="shadowOffsetInner2" result="shadowBlurInner2"></feGaussianBlur>
            <feComposite in="shadowBlurInner2" in2="SourceAlpha" operator="arithmetic" k2="-1" k3="1" result="shadowInnerInner2"></feComposite>
            <feColorMatrix values="0 0 0 0 0.77   0 0 0 0 0.77   0 0 0 0 0.77  0 0 0 0.7 0" in="shadowInnerInner2" type="matrix" result="shadowMatrixInner2"></feColorMatrix>
            <feMerge>
                <feMergeNode in="shadowMatrixOuter1"></feMergeNode>
                <feMergeNode in="SourceGraphic"></feMergeNode>
                <feMergeNode in="shadowMatrixInner1"></feMergeNode>
                <feMergeNode in="shadowMatrixInner2"></feMergeNode>
            </feMerge>
        </filter>
        <filter x="-50%" y="-50%" width="200%" height="200%" filterUnits="objectBoundingBox" id="filter-4">
            <feOffset dx="0" dy="1" in="SourceAlpha" result="shadowOffsetOuter1"></feOffset>
            <feGaussianBlur stdDeviation="2" in="shadowOffsetOuter1" result="shadowBlurOuter1"></feGaussianBlur>
            <feColorMatrix values="0 0 0 0 0   0 0 0 0 0   0 0 0 0 0  0 0 0 0.7 0" in="shadowBlurOuter1" type="matrix" result="shadowMatrixOuter1"></feColorMatrix>
            <feMerge>
                <feMergeNode in="shadowMatrixOuter1"></feMergeNode>
                <feMergeNode in="SourceGraphic"></feMergeNode>
            </feMerge>
        </filter>
        <linearGradient x1="50%" y1="0%" x2="50%" y2="100%" id="linearGradient-5">
            <stop stop-color="#4C91FF" offset="0%"></stop>
            <stop stop-color="#4787EE" offset="100%"></stop>
        </linearGradient>
        <linearGradient x1="50%" y1="0%" x2="50%" y2="100%" id="linearGradient-6">
            <stop stop-color="#F5F5F5" offset="0%"></stop>
            <stop stop-color="#F1F1F1" offset="100%"></stop>
        </linearGradient>
    </defs>
    <g id="Left" stroke="none" stroke-width="1" fill="none" fill-rule="evenodd" sketch:type="MSPage">
        <g id="Post-install-tip---Dont" sketch:type="MSArtboardGroup">
            <g id="Rectangle-48-+-Rectangle-48-+-Rectangle-48-+-Dont" sketch:type="MSLayerGroup">
                <g id="Rectangle-48-+-Rectangle-48-+-Rectangle-48" transform="translate(0.000000, 39.000000)" fill="#F2F2F2" sketch:type="MSShapeGroup">
                    <path d="M0,109 L0,99 L0,89 L0,89 L0,79 L0,69 L0,69 L0,59 L0,49 L0,49 L0,39 L0,29 L0,29 L0,19 L0,9 L0,9 L0,0 L4,5 L0.727272727,9.09090909 L4,14 L0.666666667,19 L0.666666667,19 L4,24 L0.666666667,29 L4,34 L0.666666667,39 L0.666666667,39 L4,44 L0.666666667,49 L4,54 L0.666666667,59 L0.666666667,59 L4,64 L0.666666667,69 L4,74 L0.666666667,79 L0.666666667,79 L4,84 L0.666666667,89 L4,94 L0.666666667,99 L0.666666667,99 L4,104 L0.727272727,108.909091 L4,113 L0,118 L0,109 Z" id="Triangle" transform="translate(2.000000, 59.000000) rotate(-180.000000) translate(-2.000000, -59.000000) "></path>
                    <rect id="Rectangle-48" filter="url(#filter-1)" x="4" y="98" width="426" height="19"></rect>
                    <rect id="Rectangle-48" filter="url(#filter-2)" x="4" y="69" width="426" height="30"></rect>
                    <rect id="Rectangle-48" filter="url(#filter-3)" x="4" y="0" width="426" height="70"></rect>
                    <path d="M430,109 L430,99 L430,89 L430,89 L430,79 L430,69 L430,69 L430,59 L430,49 L430,49 L430,39 L430,29 L430,29 L430,19 L430,9 L430,9 L430,0 L434,5 L430.727273,9.09090909 L434,14 L430.666667,19 L430.666667,19 L434,24 L430.666667,29 L434,34 L430.666667,39 L430.666667,39 L434,44 L430.666667,49 L434,54 L430.666667,59 L430.666667,59 L434,64 L430.666667,69 L434,74 L430.666667,79 L430.666667,79 L434,84 L430.666667,89 L434,94 L430.666667,99 L430.666667,99 L434,104 L430.727273,108.909091 L434,113 L430,118 L430,109 Z" id="Triangle"></path>
                </g>
                <g id="Dont" transform="translate(4.000000, 0.000000)">
                    <path d="M222,26 L377,26 L377,205 L50,205 L50,26 L206,26 L214,18 L222,26 Z" id="bg" stroke="#BBBBBB" fill="#FFFFFF" filter="url(#filter-4)" sketch:type="MSShapeGroup"></path>
                    <rect id="btn" stroke="#2F78EE" fill="url(#linearGradient-5)" sketch:type="MSShapeGroup" x="288" y="159" width="72" height="29" rx="2"></rect>
                    <text id="Close" sketch:type="MSTextLayer" font-family="Arial" font-size="11" font-weight="bold" fill="#FFFFFF">
                        <tspan x="309" y="178">Close</tspan>
                    </text>
                    <rect id="btn" stroke="#DCDCDC" fill="url(#linearGradient-6)" sketch:type="MSShapeGroup" x="201" y="159" width="77" height="29" rx="2"></rect>
                    <text id="Learn-more" sketch:type="MSTextLayer" font-family="Arial" font-size="11" font-weight="bold" fill="#333333">
                        <tspan x="209" y="178">Learn more</tspan>
                    </text>
                    <text id="Try-out-our-large-se" sketch:type="MSTextLayer" font-family="Arial" font-size="13" font-weight="normal" fill="#262626">
                        <tspan x="67" y="84">Try out our large selection of custom charts. </tspan>
                        <tspan x="67" y="105">Install this add-on to make great-looking </tspan>
                        <tspan x="67" y="126">visualizations</tspan>
                    </text>
                    <path d="M353,44.1666667 L354.166667,43 L356.5,45.3333333 L358.833333,43 L360,44.1666667 L357.666667,46.5 L360,48.8333333 L358.833333,50 L356.5,47.6666667 L354.166667,50 L353,48.8333333 L355.333333,46.5 L353,44.1666667 Z" id="Rectangle-4" fill="#999999" sketch:type="MSShapeGroup"></path>
                    <text id="Charts" sketch:type="MSTextLayer" font-family="Arial" font-size="16" font-weight="normal" fill="#1A1A1A">
                        <tspan x="67" y="57">Charts</tspan>
                    </text>
                    <text id="Help" sketch:type="MSTextLayer" font-family="Arial" font-size="13" font-weight="normal" fill="#999999">
                        <tspan x="252" y="12">Help</tspan>
                    </text>
                    <text id="Add-ons" sketch:type="MSTextLayer" font-family="Arial" font-size="13" font-weight="normal" fill="#1A1A1A">
                        <tspan x="188" y="12">Add-ons</tspan>
                    </text>
                    <text id="Table" sketch:type="MSTextLayer" font-family="Arial" font-size="13" font-weight="normal" fill="#999999">
                        <tspan x="141" y="12">Table</tspan>
                    </text>
                    <text id="Tools" sketch:type="MSTextLayer" font-family="Arial" font-size="13" font-weight="normal" fill="#999999">
                        <tspan x="93" y="12">Tools</tspan>
                    </text>
                    <text id="Format" sketch:type="MSTextLayer" font-family="Arial" font-size="13" font-weight="normal" fill="#999999">
                        <tspan x="34" y="12">Format</tspan>
                    </text>
                    <text id="ert" sketch:type="MSTextLayer" font-family="Arial" font-size="13" font-weight="normal" fill="#999999">
                        <tspan x="0" y="12">ert</tspan>
                    </text>
                </g>
            </g>
        </g>
    </g>
</svg>